<svg xmlns="http://www.w3.org/2000/svg" viewBox="0 0 76.33 119.24"><defs><style>.cls-1{fill:#fbf6f9;}.cls-2{fill:#0e0c18;}.cls-3{fill:#ca85bf;}.cls-4{fill:#fff;}.cls-5{fill:#0d0b16;}.cls-6{fill:#560e82;}</style></defs><g id="Layer_2" data-name="Layer 2"><g id="Icons"><g id="Level_4" data-name="Level 4"><g id="Meso"><g id="Blood"><g id="Blood-Base"><rect class="cls-1" x="16.96" y="42.58" width="4.24" height="4.26"/><rect class="cls-2" x="50.89" y="17.03" width="4.24" height="4.26"/><path class="cls-3" d="M63.61,46.84V42.58H59.37V34.07H55.13V25.55H50.89V17H46.65V12.78H42.41V4.26H33.93v8.52H29.69V17H25.44v8.52H21.2v8.52H17v8.51H21.2V55.36H17v17H12.72v21.3H17v4.25H21.2v4.26h4.24v8.52H21.2v-4.26H17V102.2H12.72V97.94H8.48V68.14h4.24v-17H8.48v8.52H4.24V102.2H8.48v4.26h4.24v4.26H17V115H38.17v-4.26h8.48V102.2h4.24V97.94h4.24V89.43h4.24V80.91h4.24v-17h4.24V51.1H63.61Z"/><polygon class="cls-3" points="16.96 46.84 16.96 42.59 12.72 42.59 12.72 46.84 12.72 51.1 16.96 51.1 16.96 46.84"/><polygon class="cls-4" points="21.2 97.94 16.96 97.94 16.96 93.69 12.72 93.69 12.72 89.43 12.72 85.17 12.72 80.91 12.72 76.65 12.72 72.39 16.96 72.39 16.96 68.14 16.96 63.88 16.96 59.62 16.96 55.36 21.2 55.36 21.2 51.1 21.2 46.84 16.96 46.84 16.96 51.1 12.72 51.1 12.72 55.36 12.72 59.62 12.72 63.88 12.72 68.14 8.48 68.14 8.48 72.39 8.48 76.65 8.48 80.91 8.48 85.17 8.48 89.43 8.48 93.69 8.48 97.94 12.72 97.94 12.72 102.2 16.96 102.2 16.96 106.46 21.2 106.46 21.2 110.72 25.45 110.72 25.45 106.46 25.45 102.2 21.2 102.2 21.2 97.94"/><polygon class="cls-5" points="21.2 119.24 25.45 119.24 29.69 119.24 33.93 119.24 38.17 119.24 42.41 119.24 46.65 119.24 50.89 119.24 55.13 119.24 59.37 119.24 59.37 114.98 55.13 114.98 50.89 114.98 46.65 114.98 42.41 114.98 38.17 114.98 33.93 114.98 29.69 114.98 25.45 114.98 21.2 114.98 16.96 114.98 16.96 119.24 21.2 119.24"/><rect class="cls-5" x="59.37" y="110.72" width="4.24" height="4.26"/><rect class="cls-5" x="12.72" y="110.72" width="4.24" height="4.26"/><rect class="cls-5" x="63.61" y="106.46" width="4.24" height="4.26"/><rect class="cls-5" x="8.48" y="106.46" width="4.24" height="4.26"/><rect class="cls-5" x="67.85" y="102.2" width="4.24" height="4.26"/><rect class="cls-5" x="4.24" y="102.2" width="4.24" height="4.26"/><polygon class="cls-5" points="76.33 97.94 76.33 93.69 76.33 89.43 76.33 85.17 76.33 80.91 76.33 76.65 76.33 72.39 76.33 68.14 76.33 63.88 76.33 59.62 72.09 59.62 72.09 63.88 72.09 68.14 72.09 72.39 72.09 76.65 72.09 80.91 72.09 85.17 72.09 89.43 72.09 93.69 72.09 97.94 72.09 102.2 76.33 102.2 76.33 97.94"/><polygon class="cls-5" points="4.24 93.69 4.24 89.43 4.24 85.17 4.24 80.91 4.24 76.65 4.24 72.39 4.24 68.14 4.24 63.88 4.24 59.62 0 59.62 0 63.88 0 68.14 0 72.39 0 76.65 0 80.91 0 85.17 0 89.43 0 93.69 0 97.94 0 102.2 4.24 102.2 4.24 97.94 4.24 93.69"/><polygon class="cls-5" points="8.48 55.36 8.48 51.1 4.24 51.1 4.24 55.36 4.24 59.62 8.48 59.62 8.48 55.36"/><polygon class="cls-5" points="72.09 51.1 67.85 51.1 67.85 55.36 67.85 59.62 72.09 59.62 72.09 55.36 72.09 51.1"/><polygon class="cls-5" points="12.72 46.84 12.72 42.59 8.48 42.59 8.48 46.84 8.48 51.1 12.72 51.1 12.72 46.84"/><polygon class="cls-5" points="67.85 42.59 63.61 42.59 63.61 46.84 63.61 51.1 67.85 51.1 67.85 46.84 67.85 42.59"/><polygon class="cls-5" points="16.96 38.33 16.96 34.07 12.72 34.07 12.72 38.33 12.72 42.59 16.96 42.59 16.96 38.33"/><polygon class="cls-5" points="63.61 34.07 59.37 34.07 59.37 38.33 59.37 42.59 63.61 42.59 63.61 38.33 63.61 34.07"/><polygon class="cls-5" points="21.2 29.81 21.2 25.55 16.96 25.55 16.96 29.81 16.96 34.07 21.2 34.07 21.2 29.81"/><polygon class="cls-5" points="59.37 25.55 55.13 25.55 55.13 29.81 55.13 34.07 59.37 34.07 59.37 29.81 59.37 25.55"/><rect class="cls-5" x="50.89" y="21.29" width="4.24" height="4.26"/><polygon class="cls-5" points="25.45 21.29 25.45 17.03 21.2 17.03 21.2 21.29 21.2 25.55 25.45 25.55 25.45 21.29"/><rect class="cls-5" x="25.44" y="12.78" width="4.24" height="4.26"/><rect class="cls-5" x="46.65" y="12.78" width="4.24" height="4.26"/><polygon class="cls-5" points="42.41 12.78 46.65 12.78 46.65 8.52 46.65 4.26 42.41 4.26 42.41 8.52 42.41 12.78"/><polygon class="cls-5" points="33.93 8.52 33.93 4.26 29.69 4.26 29.69 8.52 29.69 12.78 33.93 12.78 33.93 8.52"/><polygon class="cls-5" points="42.41 4.26 42.41 0 38.17 0 33.93 0 33.93 4.26 38.17 4.26 42.41 4.26"/><polygon class="cls-6" points="67.85 63.88 63.61 63.88 63.61 68.14 63.61 72.39 63.61 76.65 63.61 80.91 59.37 80.91 59.37 85.17 59.37 89.43 55.13 89.43 55.13 93.69 55.13 97.94 50.89 97.94 50.89 102.2 46.65 102.2 46.65 106.46 46.65 110.72 42.41 110.72 38.17 110.72 38.17 114.98 42.41 114.98 46.65 114.98 50.89 114.98 55.13 114.98 59.37 114.98 59.37 110.72 63.61 110.72 63.61 106.46 67.85 106.46 67.85 102.2 72.09 102.2 72.09 97.94 72.09 93.69 72.09 89.43 72.09 85.17 72.09 80.91 72.09 76.65 72.09 72.39 72.09 68.14 72.09 63.88 72.09 59.62 67.85 59.62 67.85 63.88"/></g></g></g></g></g></g></svg>