<svg xmlns="http://www.w3.org/2000/svg" viewBox="0 0 21.2 12.78"><defs><style>.cls-1{fill:#ea180e;}.cls-2{fill:#fff;}.cls-3{fill:#0d0b16;}</style></defs><g id="Layer_2" data-name="Layer 2"><g id="Icons"><g id="Level_4" data-name="Level 4"><g id="Meso"><g id="Blood"><g id="Blood-Face"><g id="Mouth"><polygon class="cls-1" points="4.24 12.78 8.48 12.78 12.72 12.78 12.72 8.52 8.48 8.52 4.24 8.52 4.24 12.78"/><polygon class="cls-2" points="12.72 4.26 16.96 4.26 21.2 4.26 21.2 0 16.96 0 12.72 0 8.48 0 4.24 0 4.24 4.26 8.48 4.26 12.72 4.26"/><polygon class="cls-3" points="0 0 0 4.26 0 8.52 4.24 8.52 8.48 8.52 12.72 8.52 16.96 8.52 16.96 4.26 12.72 4.26 8.48 4.26 4.24 4.26 4.24 0 0 0"/></g></g></g></g></g></g></g></svg>