<svg xmlns="http://www.w3.org/2000/svg" viewBox="0 0 109.08 105.32"><defs><style>.cls-1{fill:#e1b8d9;}.cls-2{fill:#ca85bf;}.cls-3{fill:#0d0b16;}.cls-4{fill:#3e0959;}.cls-5{fill:#560e82;}</style></defs><g id="Layer_2" data-name="Layer 2"><g id="Icons"><g id="Level_3" data-name="Level 3"><g id="Meso"><g id="Blood_Cells" data-name="Blood Cells"><g id="BloodCells-Base"><path class="cls-1" d="M96.49,25.28V21.06h-4.2V16.85H88.1V12.64H83.9V8.43H75.51V4.21H33.56V8.43H25.17v4.21H21v4.21h-4.2v4.21H12.59v8.43H8.39V59h4.2V67.4h4.19v4.22H21v4.21h4.19V80h4.2v4.21h8.39v4.22H71.32V84.25h8.39V80H83.9V75.83h4.2V71.62h4.19V67.4h4.2V54.76h4.2V29.49h-4.2ZM83.9,46.34V59H79.71V67.4h-4.2v4.22H71.32v4.21H62.93V80H46.15V75.83H37.76V71.62h-4.2V67.4H29.37V59h-4.2V42.13h4.2V29.49h4.19V25.28H42V21.06H67.12v4.22h8.39V33.7h4.2v8.43H83.9ZM92.29,33.7v8.43H88.1V33.7H83.9V25.28H79.71V21.06H71.32V16.85H62.93V12.64H46.15v4.21H37.76v4.21H29.37v4.22h-4.2V33.7H21v8.43h-4.2V33.7H21V25.28h4.19V16.85h4.2V12.64h8.39V8.43H71.32v4.21h4.19v4.21H83.9v8.43h4.2v4.21h4.19Z"/><polygon class="cls-2" points="100.69 46.34 100.69 50.55 100.69 54.77 96.49 54.77 96.49 58.98 96.49 63.19 96.49 67.4 92.3 67.4 92.3 71.62 88.1 71.62 88.1 75.83 83.9 75.83 83.9 80.04 79.71 80.04 79.71 84.25 75.51 84.25 71.32 84.25 71.32 88.47 67.12 88.47 62.93 88.47 58.73 88.47 54.54 88.47 50.34 88.47 46.15 88.47 41.95 88.47 37.76 88.47 37.76 84.25 33.56 84.25 29.37 84.25 29.37 80.04 25.17 80.04 25.17 75.83 20.98 75.83 20.98 71.62 16.78 71.62 16.78 67.4 12.59 67.4 12.59 63.19 12.59 58.98 8.39 58.98 8.39 54.77 8.39 50.55 8.39 46.34 8.39 42.13 4.2 42.13 4.2 46.34 4.2 50.55 4.2 54.77 4.2 58.98 4.2 63.19 8.39 63.19 8.39 67.4 8.39 71.62 8.39 75.83 12.59 75.83 12.59 80.04 12.59 84.25 16.78 84.25 16.78 88.47 20.98 88.47 20.98 92.68 25.17 92.68 29.37 92.68 29.37 96.89 33.56 96.89 37.76 96.89 37.76 101.11 41.95 101.11 46.15 101.11 50.34 101.11 54.54 101.11 58.73 101.11 62.93 101.11 67.12 101.11 71.32 101.11 71.32 96.89 75.51 96.89 79.71 96.89 79.71 92.68 83.9 92.68 88.1 92.68 88.1 88.47 92.3 88.47 92.3 84.25 96.49 84.25 96.49 80.04 96.49 75.83 100.69 75.83 100.69 71.62 100.69 67.4 100.69 63.19 104.88 63.19 104.88 58.98 104.88 54.77 104.88 50.55 104.88 46.34 104.88 42.13 100.69 42.13 100.69 46.34"/><polygon class="cls-2" points="20.98 37.91 20.98 33.7 16.78 33.7 16.78 37.91 16.78 42.13 20.98 42.13 20.98 37.91"/><polygon class="cls-2" points="83.9 33.7 88.1 33.7 88.1 37.91 88.1 42.13 92.3 42.13 92.3 37.91 92.3 33.7 92.3 29.49 88.1 29.49 88.1 25.28 83.9 25.28 83.9 29.49 83.9 33.7"/><polygon class="cls-2" points="25.17 29.49 25.17 25.28 20.98 25.28 20.98 29.49 20.98 33.7 25.17 33.7 25.17 29.49"/><polygon class="cls-2" points="29.37 21.06 33.56 21.06 37.76 21.06 37.76 16.85 41.95 16.85 46.15 16.85 46.15 12.64 50.34 12.64 54.54 12.64 58.73 12.64 62.93 12.64 62.93 16.85 67.12 16.85 71.32 16.85 71.32 21.06 75.51 21.06 79.71 21.06 79.71 25.28 83.9 25.28 83.9 21.06 83.9 16.85 79.71 16.85 75.51 16.85 75.51 12.64 71.32 12.64 71.32 8.43 67.12 8.43 62.93 8.43 58.73 8.43 54.54 8.43 50.34 8.43 46.15 8.43 41.95 8.43 37.76 8.43 37.76 12.64 33.56 12.64 29.37 12.64 29.37 16.85 25.17 16.85 25.17 21.06 25.17 25.28 29.37 25.28 29.37 21.06"/><polygon class="cls-3" points="62.93 101.11 58.73 101.11 54.54 101.11 50.34 101.11 46.15 101.11 41.95 101.11 37.76 101.11 37.76 105.32 41.95 105.32 46.15 105.32 50.34 105.32 54.54 105.32 58.73 105.32 62.93 105.32 67.12 105.32 71.32 105.32 71.32 101.11 67.12 101.11 62.93 101.11"/><polygon class="cls-3" points="71.32 96.89 71.32 101.11 75.51 101.11 79.71 101.11 79.71 96.89 75.51 96.89 71.32 96.89"/><polygon class="cls-3" points="33.56 96.89 29.37 96.89 29.37 101.11 33.56 101.11 37.76 101.11 37.76 96.89 33.56 96.89"/><polygon class="cls-3" points="79.71 92.68 79.71 96.89 83.9 96.89 88.1 96.89 88.1 92.68 83.9 92.68 79.71 92.68"/><polygon class="cls-3" points="25.17 92.68 20.98 92.68 20.98 96.89 25.17 96.89 29.37 96.89 29.37 92.68 25.17 92.68"/><rect class="cls-3" x="88.1" y="88.47" width="4.2" height="4.21"/><rect class="cls-3" x="16.78" y="88.47" width="4.2" height="4.21"/><rect class="cls-3" x="92.29" y="84.25" width="4.2" height="4.21"/><rect class="cls-3" x="12.59" y="84.25" width="4.2" height="4.21"/><polygon class="cls-3" points="12.59 75.83 8.39 75.83 8.39 80.04 8.39 84.25 12.59 84.25 12.59 80.04 12.59 75.83"/><polygon class="cls-3" points="96.49 80.04 96.49 84.25 100.69 84.25 100.69 80.04 100.69 75.83 96.49 75.83 96.49 80.04"/><polygon class="cls-3" points="8.39 67.4 8.39 63.19 4.2 63.19 4.2 67.4 4.2 71.62 4.2 75.83 8.39 75.83 8.39 71.62 8.39 67.4"/><polygon class="cls-3" points="100.69 67.4 100.69 71.62 100.69 75.83 104.88 75.83 104.88 71.62 104.88 67.4 104.88 63.19 100.69 63.19 100.69 67.4"/><polygon class="cls-3" points="104.88 46.34 104.88 50.55 104.88 54.77 104.88 58.98 104.88 63.19 109.08 63.19 109.08 58.98 109.08 54.77 109.08 50.55 109.08 46.34 109.08 42.13 104.88 42.13 104.88 46.34"/><polygon class="cls-3" points="4.2 54.77 4.2 50.55 4.2 46.34 4.2 42.13 0 42.13 0 46.34 0 50.55 0 54.77 0 58.98 0 63.19 4.2 63.19 4.2 58.98 4.2 54.77"/><polygon class="cls-3" points="100.69 37.91 100.69 42.13 104.88 42.13 104.88 37.91 104.88 33.7 104.88 29.49 100.69 29.49 100.69 33.7 100.69 37.91"/><polygon class="cls-3" points="8.39 37.91 8.39 33.7 8.39 29.49 4.2 29.49 4.2 33.7 4.2 37.91 4.2 42.13 8.39 42.13 8.39 37.91"/><polygon class="cls-3" points="96.49 29.49 100.69 29.49 100.69 25.28 100.69 21.06 96.49 21.06 96.49 25.28 96.49 29.49"/><polygon class="cls-3" points="12.59 25.28 12.59 21.06 8.39 21.06 8.39 25.28 8.39 29.49 12.59 29.49 12.59 25.28"/><rect class="cls-3" x="92.29" y="16.85" width="4.2" height="4.21"/><rect class="cls-3" x="12.59" y="16.85" width="4.2" height="4.21"/><rect class="cls-3" x="88.1" y="12.64" width="4.2" height="4.21"/><rect class="cls-3" x="16.78" y="12.64" width="4.2" height="4.21"/><rect class="cls-3" x="83.9" y="8.43" width="4.2" height="4.21"/><rect class="cls-3" x="20.98" y="8.43" width="4.2" height="4.21"/><polygon class="cls-3" points="79.71 8.43 83.9 8.43 83.9 4.21 79.71 4.21 75.51 4.21 75.51 8.43 79.71 8.43"/><polygon class="cls-3" points="33.56 8.43 33.56 4.21 29.37 4.21 25.17 4.21 25.17 8.43 29.37 8.43 33.56 8.43"/><polygon class="cls-3" points="41.95 4.21 46.15 4.21 50.34 4.21 54.54 4.21 58.73 4.21 62.93 4.21 67.12 4.21 71.32 4.21 75.51 4.21 75.51 0 71.32 0 67.12 0 62.93 0 58.73 0 54.54 0 50.34 0 46.15 0 41.95 0 37.76 0 33.56 0 33.56 4.21 37.76 4.21 41.95 4.21"/><polygon class="cls-4" points="79.71 46.34 79.71 50.55 83.9 50.55 83.9 46.34 83.9 42.13 79.71 42.13 79.71 46.34"/><polygon class="cls-4" points="25.17 46.34 25.17 50.55 29.37 50.55 29.37 46.34 29.37 42.13 25.17 42.13 25.17 46.34"/><polygon class="cls-4" points="79.71 33.7 75.51 33.7 75.51 29.49 75.51 25.28 71.32 25.28 67.12 25.28 67.12 21.06 62.93 21.06 58.73 21.06 54.54 21.06 50.34 21.06 46.15 21.06 41.95 21.06 41.95 25.28 37.76 25.28 33.56 25.28 33.56 29.49 29.37 29.49 29.37 33.7 29.37 37.91 29.37 42.13 33.56 42.13 33.56 37.91 37.76 37.91 37.76 33.7 41.95 33.7 41.95 29.49 46.15 29.49 50.34 29.49 54.54 29.49 58.73 29.49 62.93 29.49 67.12 29.49 67.12 33.7 71.32 33.7 71.32 37.91 75.51 37.91 75.51 42.13 79.71 42.13 79.71 37.91 79.71 33.7"/><path class="cls-5" d="M79.71,46.34V42.13h-4.2V37.91H71.32V33.7h-4.2V29.49H42V33.7H37.76v4.21h-4.2v4.22H29.37v8.42h-4.2V59h4.2V67.4h4.19v4.22h4.2v4.21h8.39V80H62.93V75.83h8.39V71.62h4.19V67.4h4.2V59H83.9V50.55H79.71Z"/></g></g></g></g></g></g></svg>