<svg xmlns="http://www.w3.org/2000/svg" viewBox="0 0 20.98 12.64"><defs><style>.cls-1{fill:#ea180e;}.cls-2{fill:#fff;}.cls-3{fill:#0d0b16;}</style></defs><g id="Layer_2" data-name="Layer 2"><g id="Icons"><g id="Level_3" data-name="Level 3"><g id="Meso"><g id="Blood_Cells" data-name="Blood Cells"><g id="BloodCells-Face"><g id="Mouth"><polygon class="cls-1" points="12.59 12.64 12.59 8.43 8.39 8.43 4.2 8.43 4.2 12.64 8.39 12.64 12.59 12.64"/><polygon class="cls-2" points="12.59 0 8.39 0 4.2 0 4.2 4.21 8.39 4.21 12.59 4.21 16.78 4.21 20.98 4.21 20.98 0 16.78 0 12.59 0"/><polygon class="cls-3" points="8.39 4.21 4.2 4.21 4.2 0 0 0 0 4.21 0 8.43 4.2 8.43 8.39 8.43 12.59 8.43 16.78 8.43 16.78 4.21 12.59 4.21 8.39 4.21"/></g></g></g></g></g></g></g></svg>