<svg xmlns="http://www.w3.org/2000/svg" viewBox="0 0 138.79 79.91"><defs><style>.cls-1{fill:#e1b8d9;}.cls-2{fill:#ca85bf;}.cls-3{fill:#0d0b16;}.cls-4{fill:#560e82;}</style></defs><g id="Layer_2" data-name="Layer 2"><g id="Icons"><g id="Level_4" data-name="Level 4"><g id="Meso"><g id="Bone"><g id="Bone-Base"><polygon class="cls-1" points="54.68 29.44 50.47 29.44 46.26 29.44 42.06 29.44 37.85 29.44 33.65 29.44 33.65 33.65 37.85 33.65 42.06 33.65 46.26 33.65 50.47 33.65 54.68 33.65 58.88 33.65 63.09 33.65 63.09 29.44 58.88 29.44 54.68 29.44"/><polygon class="cls-1" points="21.03 25.23 16.82 25.23 16.82 29.44 21.03 29.44 25.23 29.44 29.44 29.44 29.44 25.23 25.23 25.23 21.03 25.23"/><polygon class="cls-1" points="84.12 21.03 84.12 25.23 79.91 25.23 75.7 25.23 71.5 25.23 67.29 25.23 63.09 25.23 63.09 29.44 67.29 29.44 71.5 29.44 75.7 29.44 79.91 29.44 84.12 29.44 88.32 29.44 88.32 25.23 92.53 25.23 92.53 21.03 88.32 21.03 84.12 21.03"/><polygon class="cls-1" points="92.53 16.82 92.53 21.03 96.73 21.03 100.94 21.03 100.94 16.82 96.73 16.82 92.53 16.82"/><rect class="cls-1" x="100.94" y="12.62" width="4.21" height="4.21"/><polygon class="cls-1" points="105.14 4.21 105.14 8.41 105.14 12.62 109.35 12.62 109.35 8.41 113.56 8.41 113.56 4.21 109.35 4.21 105.14 4.21"/><polyline class="cls-2" points="46.26 33.65 42.06 33.65 37.85 33.65 33.65 33.65 33.65 29.44 29.44 29.44 25.23 29.44 21.03 29.44 16.82 29.44 12.62 29.44 8.41 29.44 8.41 33.65 8.41 37.85 4.21 37.85 4.21 42.06 8.41 42.06 8.41 46.26 8.41 50.47 12.62 50.47 16.82 50.47 16.82 46.26 21.03 46.26 21.03 50.47 21.03 54.68 21.03 58.88 16.82 58.88 16.82 63.09 16.82 67.29 16.82 71.5 21.03 71.5 25.23 71.5 29.44 71.5 33.65 71.5 33.65 67.29 37.85 67.29 37.85 63.09 42.06 63.09 42.06 58.88 46.26 58.88 46.26 54.68 50.47 54.68 50.47 50.47 54.68 50.47 58.88 50.47 63.09 50.47 67.29 50.47 71.5 50.47 75.7 50.47 75.7 46.26 71.5 46.26 67.29 46.26 63.09 46.26 63.09 42.06 58.54 46.26 79.91 46.26 79.91 33.65 54.68 33.65 50.47 33.65"/><polyline class="cls-2" points="88.32 29.44 84.12 29.44 79.91 29.44 75.7 29.44 71.5 29.44 67.29 29.44 63.09 29.44 63.09 33.65 67.29 33.65 71.5 33.65 75.7 33.65 79.91 33.65 79.91 37.85 79.91 42.06 75.7 42.06 75.7 46.26 79.91 46.26 84.12 46.26 84.12 42.06 88.32 42.06 92.53 42.06 96.73 42.06 96.73 37.85 100.94 37.85 105.14 37.85 109.35 37.85 113.56 37.85 117.76 37.85 121.97 37.85 126.17 37.85 130.38 37.85 134.59 37.85 134.59 33.65 134.59 29.44 134.59 25.23 134.59 21.03 130.38 21.03 130.38 16.82 126.17 16.82 126.17 12.62 126.17 8.41 126.17 4.21 121.97 4.21 117.76 4.21 113.56 4.21 113.56 8.41 109.35 8.41 109.35 12.62 105.14 12.62 105.14 16.82 100.94 16.82 100.94 21.03 96.73 21.03 92.53 21.03 92.53 25.23 88.32 25.23 88.32 29.44"/><polygon class="cls-3" points="8.41 42.06 4.21 42.06 4.21 46.26 4.21 50.47 8.41 50.47 8.41 46.26 8.41 42.06"/><rect class="cls-3" y="37.85" width="4.21" height="4.21"/><polygon class="cls-3" points="29.44 75.7 25.23 75.7 21.03 75.7 21.03 79.91 25.23 79.91 29.44 79.91 33.65 79.91 37.85 79.91 37.85 75.7 33.65 75.7 29.44 75.7"/><rect class="cls-3" x="37.85" y="71.5" width="4.21" height="4.21"/><rect class="cls-3" x="16.82" y="71.5" width="4.21" height="4.21"/><rect class="cls-3" x="42.06" y="67.29" width="4.21" height="4.21"/><rect class="cls-3" x="46.26" y="63.09" width="4.21" height="4.21"/><polygon class="cls-3" points="16.82 63.09 16.82 58.88 16.82 54.68 12.62 54.68 12.62 58.88 12.62 63.09 12.62 67.29 12.62 71.5 16.82 71.5 16.82 67.29 16.82 63.09"/><rect class="cls-3" x="50.47" y="58.88" width="4.21" height="4.21"/><polygon class="cls-3" points="54.68 54.68 54.68 58.88 58.88 58.88 63.09 58.88 63.09 54.68 58.88 54.68 54.68 54.68"/><polygon class="cls-3" points="67.29 50.47 63.09 50.47 63.09 54.68 67.29 54.68 71.5 54.68 75.7 54.68 75.7 50.47 71.5 50.47 67.29 50.47"/><rect class="cls-3" x="8.41" y="50.47" width="4.21" height="4.21"/><polygon class="cls-3" points="75.7 46.26 75.7 50.47 79.91 50.47 84.12 50.47 84.12 46.26 79.91 46.26 75.7 46.26"/><polygon class="cls-3" points="126.17 42.06 121.97 42.06 117.76 42.06 113.56 42.06 109.35 42.06 109.35 46.26 113.56 46.26 117.76 46.26 121.97 46.26 126.17 46.26 130.38 46.26 134.59 46.26 134.59 42.06 130.38 42.06 126.17 42.06"/><polygon class="cls-3" points="88.32 42.06 84.12 42.06 84.12 46.26 88.32 46.26 92.53 46.26 96.73 46.26 96.73 42.06 92.53 42.06 88.32 42.06"/><polygon class="cls-3" points="138.79 37.85 138.79 33.65 138.79 29.44 138.79 25.23 138.79 21.03 134.59 21.03 134.59 25.23 134.59 29.44 134.59 33.65 134.59 37.85 134.59 42.06 138.79 42.06 138.79 37.85"/><polygon class="cls-3" points="105.14 37.85 100.94 37.85 96.73 37.85 96.73 42.06 100.94 42.06 105.14 42.06 109.35 42.06 109.35 37.85 105.14 37.85"/><polygon class="cls-3" points="8.41 33.65 8.41 29.44 4.21 29.44 4.21 33.65 4.21 37.85 8.41 37.85 8.41 33.65"/><polygon class="cls-3" points="33.65 29.44 37.85 29.44 42.06 29.44 46.26 29.44 50.47 29.44 54.68 29.44 58.88 29.44 63.09 29.44 63.09 25.23 58.88 25.23 54.68 25.23 50.47 25.23 46.26 25.23 42.06 25.23 37.85 25.23 33.65 25.23 29.44 25.23 29.44 29.44 33.65 29.44"/><polygon class="cls-3" points="16.82 29.44 16.82 25.23 12.62 25.23 8.41 25.23 8.41 29.44 12.62 29.44 16.82 29.44"/><polygon class="cls-3" points="71.5 25.23 75.7 25.23 79.91 25.23 84.12 25.23 84.12 21.03 79.91 21.03 75.7 21.03 71.5 21.03 67.29 21.03 63.09 21.03 63.09 25.23 67.29 25.23 71.5 25.23"/><polygon class="cls-3" points="25.23 25.23 29.44 25.23 29.44 21.03 25.23 21.03 21.03 21.03 16.82 21.03 16.82 25.23 21.03 25.23 25.23 25.23"/><rect class="cls-3" x="130.38" y="16.82" width="4.21" height="4.21"/><polygon class="cls-3" points="92.53 21.03 92.53 16.82 88.32 16.82 84.12 16.82 84.12 21.03 88.32 21.03 92.53 21.03"/><polygon class="cls-3" points="100.94 16.82 100.94 12.62 96.73 12.62 92.53 12.62 92.53 16.82 96.73 16.82 100.94 16.82"/><polygon class="cls-3" points="126.17 12.62 126.17 16.82 130.38 16.82 130.38 12.62 130.38 8.41 130.38 4.21 126.17 4.21 126.17 8.41 126.17 12.62"/><polygon class="cls-3" points="105.14 8.41 105.14 4.21 100.94 4.21 100.94 8.41 100.94 12.62 105.14 12.62 105.14 8.41"/><polygon class="cls-3" points="113.56 4.21 117.76 4.21 121.97 4.21 126.17 4.21 126.17 0 121.97 0 117.76 0 113.56 0 109.35 0 105.14 0 105.14 4.21 109.35 4.21 113.56 4.21"/><polygon class="cls-4" points="21.03 58.88 21.03 54.68 21.03 50.47 21.03 46.26 16.82 46.26 16.82 50.47 12.62 50.47 12.62 54.68 16.82 54.68 16.82 58.88 21.03 58.88"/><polygon class="cls-4" points="54.68 50.47 50.47 50.47 50.47 54.68 46.26 54.68 46.26 58.88 42.06 58.88 42.06 63.09 37.85 63.09 37.85 67.29 33.65 67.29 33.65 71.5 29.44 71.5 25.23 71.5 21.03 71.5 21.03 75.7 25.23 75.7 29.44 75.7 33.65 75.7 37.85 75.7 37.85 71.5 42.06 71.5 42.06 67.29 46.26 67.29 46.26 63.09 50.47 63.09 50.47 58.88 54.68 58.88 54.68 54.68 58.88 54.68 63.09 54.68 63.09 50.47 58.88 50.47 54.68 50.47"/><polygon class="cls-4" points="126.17 37.85 121.97 37.85 117.76 37.85 113.56 37.85 109.35 37.85 109.35 42.06 113.56 42.06 117.76 42.06 121.97 42.06 126.17 42.06 130.38 42.06 134.59 42.06 134.59 37.85 130.38 37.85 126.17 37.85"/></g></g></g></g></g></g></svg>