<svg xmlns="http://www.w3.org/2000/svg" viewBox="0 0 21.03 12.62"><defs><style>.cls-1{fill:#ea180e;}.cls-2{fill:#fff;}.cls-3{fill:#0d0b16;}</style></defs><g id="Layer_2" data-name="Layer 2"><g id="Icons"><g id="Level_4" data-name="Level 4"><g id="Meso"><g id="Bone"><g id="Bone-Face"><g id="Mouth"><polygon class="cls-1" points="12.62 12.62 12.62 8.41 8.41 8.41 4.21 8.41 4.21 12.62 8.41 12.62 12.62 12.62"/><polygon class="cls-2" points="8.41 0 4.21 0 4.21 4.21 8.41 4.21 12.62 4.21 16.82 4.21 16.82 0 12.62 0 8.41 0"/><polygon class="cls-3" points="21.03 8.41 21.03 4.21 21.03 0 16.82 0 16.82 4.21 12.62 4.21 8.41 4.21 4.21 4.21 4.21 0 0 0 0 4.21 0 8.41 4.21 8.41 8.41 8.41 12.62 8.41 12.62 12.62 16.82 12.62 16.82 8.41 21.03 8.41"/></g></g></g></g></g></g></g></svg>