<svg xmlns="http://www.w3.org/2000/svg" viewBox="0 0 131.19 93.1"><defs><style>.cls-1{fill:#e1b8d9;}.cls-2{fill:#ca85bf;}.cls-3{fill:#0d0b16;}.cls-4{fill:#5f2990;}.cls-5{fill:#560e82;}</style></defs><g id="Layer_2" data-name="Layer 2"><g id="Icons"><g id="Level_3" data-name="Level 3"><g id="Meso"><g id="Bone_Cells" data-name="Bone Cells"><g id="BoneCells-Base"><path class="cls-1" d="M101.57,38.09V33.86H93.1V29.62H88.87V21.16H93.1V16.93H88.87V12.7H80.41v8.46h4.23v4.23H80.41v4.23H59.25V25.39H55V21.16H50.78V12.7H55V8.46H50.78V4.23H46.55V12.7H42.32v8.46h4.23v4.23h4.23v4.23H46.55v4.24H42.32v4.23H33.86v4.23H25.39V38.09H21.16V29.62H8.46v4.24H12.7v4.23H8.46v4.23H4.23v4.23H12.7V42.32h4.23v4.23h4.23v4.23h4.23V55H21.16v8.47H16.93v4.23H4.23v4.23H50.78V67.71H76.17V63.48h12.7V59.25h8.46V55h4.24V46.55h4.23V42.32H110V38.09h-8.46ZM84.64,46.55V55H76.17v4.24H71.94v4.23H46.55V59.25H42.32V46.55h4.23V38.09h4.23V33.86H76.17v4.23h4.24v4.23h4.23Z"/><polygon class="cls-2" points="12.7 80.41 12.7 76.17 16.93 76.17 16.93 71.94 12.7 71.94 8.46 71.94 8.46 76.17 4.23 76.17 4.23 80.41 8.46 80.41 12.7 80.41"/><polygon class="cls-2" points="80.41 63.48 76.17 63.48 76.17 67.71 71.94 67.71 67.71 67.71 63.48 67.71 59.25 67.71 55.02 67.71 50.78 67.71 50.78 71.94 46.55 71.94 42.32 71.94 38.09 71.94 38.09 76.17 42.32 76.17 42.32 80.41 42.32 84.64 38.09 84.64 38.09 88.87 42.32 88.87 46.55 88.87 50.78 88.87 50.78 84.64 46.55 84.64 46.55 80.41 50.78 80.41 50.78 76.17 55.02 76.17 55.02 71.94 59.25 71.94 63.48 71.94 67.71 71.94 67.71 76.17 71.94 76.17 71.94 80.41 71.94 84.64 71.94 88.87 76.17 88.87 76.17 84.64 80.41 84.64 84.64 84.64 84.64 80.41 80.41 80.41 80.41 76.17 76.17 76.17 76.17 71.94 80.41 71.94 80.41 67.71 84.64 67.71 88.87 67.71 88.87 63.48 84.64 63.48 80.41 63.48"/><polygon class="cls-2" points="97.33 59.25 93.1 59.25 88.87 59.25 88.87 63.48 93.1 63.48 93.1 67.71 97.33 67.71 97.33 71.94 97.33 76.17 101.57 76.17 101.57 71.94 105.8 71.94 105.8 67.71 105.8 63.48 101.57 63.48 101.57 59.25 101.57 55.02 97.33 55.02 97.33 59.25"/><polygon class="cls-2" points="101.57 50.78 101.57 55.02 105.8 55.02 105.8 50.78 105.8 46.55 101.57 46.55 101.57 50.78"/><rect class="cls-2" x="105.8" y="42.32" width="4.23" height="4.23"/><polygon class="cls-2" points="118.49 29.62 118.49 33.85 114.26 33.85 114.26 38.09 110.03 38.09 110.03 42.32 114.26 42.32 118.49 42.32 122.72 42.32 122.72 38.09 126.96 38.09 126.96 33.85 126.96 29.62 122.72 29.62 118.49 29.62"/><rect class="cls-3" x="71.94" y="88.87" width="4.23" height="4.23"/><polygon class="cls-3" points="42.32 88.87 38.09 88.87 38.09 93.1 42.32 93.1 46.55 93.1 50.78 93.1 50.78 88.87 46.55 88.87 42.32 88.87"/><polygon class="cls-3" points="76.17 84.64 76.17 88.87 80.41 88.87 84.64 88.87 84.64 84.64 80.41 84.64 76.17 84.64"/><polygon class="cls-3" points="71.94 80.41 71.94 76.17 67.71 76.17 67.71 80.41 67.71 84.64 67.71 88.87 71.94 88.87 71.94 84.64 71.94 80.41"/><rect class="cls-3" x="50.78" y="84.64" width="4.23" height="4.23"/><rect class="cls-3" x="33.86" y="84.64" width="4.23" height="4.23"/><rect class="cls-3" x="84.64" y="80.41" width="4.23" height="4.23"/><rect class="cls-3" x="46.55" y="80.41" width="4.23" height="4.23"/><polygon class="cls-3" points="42.32 80.41 42.32 76.17 38.09 76.17 38.09 80.41 38.09 84.64 42.32 84.64 42.32 80.41"/><polygon class="cls-3" points="4.23 80.41 4.23 84.64 8.46 84.64 12.7 84.64 12.7 80.41 8.46 80.41 4.23 80.41"/><rect class="cls-3" x="97.33" y="76.17" width="4.23" height="4.23"/><rect class="cls-3" x="80.41" y="76.17" width="4.23" height="4.23"/><rect class="cls-3" x="50.78" y="76.17" width="4.23" height="4.23"/><rect class="cls-3" x="12.7" y="76.17" width="4.23" height="4.23"/><rect class="cls-3" y="76.17" width="4.23" height="4.23"/><rect class="cls-3" x="101.57" y="71.94" width="4.23" height="4.23"/><rect class="cls-3" x="76.17" y="71.94" width="4.23" height="4.23"/><polygon class="cls-3" points="63.48 71.94 59.25 71.94 55.02 71.94 55.02 76.17 59.25 76.17 63.48 76.17 67.71 76.17 67.71 71.94 63.48 71.94"/><polygon class="cls-3" points="33.85 71.94 29.62 71.94 25.39 71.94 21.16 71.94 16.93 71.94 16.93 76.17 21.16 76.17 25.39 76.17 29.62 76.17 33.85 76.17 38.09 76.17 38.09 71.94 33.85 71.94"/><rect class="cls-3" x="4.23" y="71.94" width="4.23" height="4.23"/><polygon class="cls-3" points="105.8 71.94 110.03 71.94 110.03 67.71 110.03 63.48 105.8 63.48 105.8 67.71 105.8 71.94"/><polygon class="cls-3" points="97.33 67.71 93.1 67.71 93.1 71.94 93.1 76.17 97.33 76.17 97.33 71.94 97.33 67.71"/><polygon class="cls-3" points="80.41 67.71 80.41 71.94 84.64 71.94 88.87 71.94 88.87 67.71 84.64 67.71 80.41 67.71"/><rect class="cls-3" y="67.71" width="4.23" height="4.23"/><rect class="cls-3" x="88.87" y="63.48" width="4.23" height="4.23"/><polygon class="cls-3" points="101.57 59.25 101.57 63.48 105.8 63.48 105.8 59.25 105.8 55.02 101.57 55.02 101.57 59.25"/><polygon class="cls-3" points="12.7 67.71 16.93 67.71 16.93 63.48 12.7 63.48 8.46 63.48 4.23 63.48 4.23 67.71 8.46 67.71 12.7 67.71"/><polygon class="cls-3" points="21.16 59.25 21.16 55.02 16.93 55.02 16.93 59.25 16.93 63.48 21.16 63.48 21.16 59.25"/><rect class="cls-3" x="21.16" y="50.78" width="4.23" height="4.23"/><polygon class="cls-3" points="105.8 50.78 105.8 55.02 110.03 55.02 110.03 50.78 110.03 46.55 105.8 46.55 105.8 50.78"/><rect class="cls-3" x="16.93" y="46.55" width="4.23" height="4.23"/><polygon class="cls-3" points="4.23 46.55 4.23 50.78 8.46 50.78 12.7 50.78 12.7 46.55 8.46 46.55 4.23 46.55"/><polygon class="cls-3" points="118.49 46.55 122.72 46.55 122.72 42.32 118.49 42.32 114.26 42.32 110.03 42.32 110.03 46.55 114.26 46.55 118.49 46.55"/><rect class="cls-3" x="12.7" y="42.32" width="4.23" height="4.23"/><rect class="cls-3" y="42.32" width="4.23" height="4.23"/><rect class="cls-3" x="122.73" y="38.09" width="4.23" height="4.23"/><polygon class="cls-3" points="29.62 42.32 33.85 42.32 33.85 38.09 29.62 38.09 25.39 38.09 25.39 42.32 29.62 42.32"/><rect class="cls-3" x="4.23" y="38.09" width="4.23" height="4.23"/><polygon class="cls-3" points="126.96 38.09 131.19 38.09 131.19 33.85 131.19 29.62 126.96 29.62 126.96 33.85 126.96 38.09"/><polygon class="cls-3" points="105.8 38.09 110.03 38.09 114.26 38.09 114.26 33.85 110.03 33.85 105.8 33.85 101.57 33.85 101.57 38.09 105.8 38.09"/><polygon class="cls-3" points="42.32 38.09 42.32 33.85 38.09 33.85 33.85 33.85 33.85 38.09 38.09 38.09 42.32 38.09"/><rect class="cls-3" x="8.46" y="33.86" width="4.23" height="4.23"/><rect class="cls-3" x="114.26" y="29.62" width="4.23" height="4.23"/><polygon class="cls-3" points="97.33 33.85 101.57 33.85 101.57 29.62 97.33 29.62 93.1 29.62 93.1 33.85 97.33 33.85"/><rect class="cls-3" x="42.32" y="29.62" width="4.23" height="4.23"/><polygon class="cls-3" points="21.16 38.09 25.39 38.09 25.39 33.85 25.39 29.62 21.16 29.62 21.16 33.85 21.16 38.09"/><rect class="cls-3" x="4.23" y="29.62" width="4.23" height="4.23"/><polygon class="cls-3" points="126.96 29.62 126.96 25.39 122.72 25.39 118.49 25.39 118.49 29.62 122.72 29.62 126.96 29.62"/><polygon class="cls-3" points="63.48 29.62 67.71 29.62 71.94 29.62 76.17 29.62 80.41 29.62 80.41 25.39 76.17 25.39 71.94 25.39 67.71 25.39 63.48 25.39 59.25 25.39 59.25 29.62 63.48 29.62"/><rect class="cls-3" x="46.55" y="25.39" width="4.23" height="4.23"/><polygon class="cls-3" points="16.93 29.62 21.16 29.62 21.16 25.39 16.93 25.39 12.7 25.39 8.46 25.39 8.46 29.62 12.7 29.62 16.93 29.62"/><polygon class="cls-3" points="88.87 25.39 88.87 29.62 93.1 29.62 93.1 25.39 93.1 21.16 88.87 21.16 88.87 25.39"/><rect class="cls-3" x="80.41" y="21.16" width="4.23" height="4.23"/><rect class="cls-3" x="42.32" y="21.16" width="4.23" height="4.23"/><rect class="cls-3" x="93.1" y="16.93" width="4.23" height="4.23"/><rect class="cls-3" x="55.01" y="21.16" width="4.23" height="4.23"/><rect class="cls-3" x="88.87" y="12.7" width="4.23" height="4.23"/><polygon class="cls-3" points="80.41 12.7 76.17 12.7 76.17 16.93 76.17 21.16 80.41 21.16 80.41 16.93 80.41 12.7"/><polygon class="cls-3" points="50.78 16.93 50.78 21.16 55.02 21.16 55.02 16.93 55.02 12.7 50.78 12.7 50.78 16.93"/><polygon class="cls-3" points="42.32 12.7 38.09 12.7 38.09 16.93 38.09 21.16 42.32 21.16 42.32 16.93 42.32 12.7"/><polygon class="cls-3" points="88.87 12.7 88.87 8.46 84.64 8.46 80.41 8.46 80.41 12.7 84.64 12.7 88.87 12.7"/><rect class="cls-3" x="55.01" y="8.46" width="4.23" height="4.23"/><rect class="cls-3" x="50.78" y="4.23" width="4.23" height="4.23"/><polygon class="cls-3" points="46.55 8.46 46.55 4.23 42.32 4.23 42.32 8.46 42.32 12.7 46.55 12.7 46.55 8.46"/><rect class="cls-3" x="46.55" width="4.23" height="4.23"/><polyline class="cls-4" points="76.17 59.25 76.17 50.78 80.41 50.78 84.64 50.78 84.64 46.55 84.64 42.32 80.41 42.32 80.41 38.09 76.17 38.09 76.17 33.85 71.94 33.85 67.71 33.85 63.48 33.85 59.25 33.85 55.02 33.85 50.78 33.85 50.78 38.09 46.55 38.09 46.55 42.32 46.55 46.55 42.32 46.55 42.32 50.78 42.32 55.02 42.32 59.25 46.55 59.25 50.78 59.25 55.02 59.25"/><polygon class="cls-5" points="71.94 59.25 76.17 59.25 76.17 55.02 71.94 55.02 67.71 55.02 63.48 55.02 63.48 59.25 59.25 59.25 55.02 59.25 50.78 59.25 46.55 59.25 46.55 63.48 50.78 63.48 55.02 63.48 59.25 63.48 63.48 63.48 67.71 63.48 71.94 63.48 71.94 59.25"/><polygon class="cls-5" points="84.64 55.02 84.64 50.78 80.41 50.78 76.17 50.78 76.17 55.02 80.41 55.02 84.64 55.02"/></g></g></g></g></g></g></svg>