<?xml version="1.0" encoding="utf-8"?>
<!-- Generator: Adobe Illustrator 25.2.2, SVG Export Plug-In . SVG Version: 6.00 Build 0)  -->
<svg version="1.1" id="Layer_1" xmlns="http://www.w3.org/2000/svg" xmlns:xlink="http://www.w3.org/1999/xlink" x="0px" y="0px"
	 viewBox="0 0 3550 133.2" style="enable-background:new 0 0 3550 133.2;" xml:space="preserve">
<style type="text/css">
	.st0{fill:#79000F;}
	.st1{fill:#F7756F;}
	.st2{fill:#F88C87;}
</style>
<g id="Layer_2_1_">
	<g id="Bottom_Clouds">
		<polygon class="st0" points="3464.8,69.3 3464.8,74.6 3470.1,74.6 3475.4,74.6 3475.4,69.3 3470.1,69.3 		"/>
		<polygon class="st0" points="3475.4,64 3475.4,69.3 3480.8,69.3 3486.1,69.3 3486.1,64 3480.8,64 		"/>
		<rect x="3459.5" y="64" class="st0" width="5.3" height="5.3"/>
		<polygon class="st0" points="3523.4,58.7 3518,58.7 3512.7,58.7 3507.4,58.7 3502.1,58.7 3496.8,58.7 3491.4,58.7 3486.1,58.7 
			3486.1,64 3491.4,64 3496.8,64 3502.1,64 3507.4,64 3512.7,64 3518,64 3523.4,64 3528.7,64 3528.7,58.7 		"/>
		<rect x="3454.1" y="58.7" class="st0" width="5.3" height="5.3"/>
		<polygon class="st0" points="3448.8,53.3 3443.5,53.3 3438.2,53.3 3432.9,53.3 3427.5,53.3 3422.2,53.3 3416.9,53.3 3416.9,58.7 
			3422.2,58.7 3427.5,58.7 3432.9,58.7 3438.2,58.7 3443.5,58.7 3448.8,58.7 3454.2,58.7 3454.2,53.3 		"/>
		<polygon class="st1" points="3528.7,69.3 3528.7,64 3523.4,64 3518,64 3512.7,64 3507.4,64 3502.1,64 3496.8,64 3491.4,64 
			3486.1,64 3486.1,69.3 3480.8,69.3 3475.4,69.3 3475.4,74.6 3470.1,74.6 3464.8,74.6 3464.8,69.3 3459.5,69.3 3459.5,64 
			3454.2,64 3454.2,58.7 3448.8,58.7 3443.5,58.7 3438.2,58.7 3432.9,58.7 3427.5,58.7 3422.2,58.7 3416.9,58.7 3416.9,64 
			3411.6,64 3406.2,64 3406.2,69.3 3400.9,69.3 3395.6,69.3 3395.6,74.6 3395.6,80 3395.6,85.3 3395.6,90.6 3395.6,95.9 
			3395.6,101.2 3395.6,106.6 3395.6,111.9 3395.6,117.2 3395.6,122.6 3395.6,127.9 3395.6,133.2 3406.2,133.2 3411.6,133.2 
			3416.9,133.2 3422.2,133.2 3427.5,133.2 3432.9,133.2 3438.2,133.2 3443.5,133.2 3448.8,133.2 3454.2,133.2 3459.5,133.2 
			3464.8,133.2 3470.1,133.2 3475.4,133.2 3480.8,133.2 3486.1,133.2 3491.4,133.2 3496.8,133.2 3502.1,133.2 3507.4,133.2 
			3512.7,133.2 3518,133.2 3523.4,133.2 3550,133.2 3550,79.9 3544.7,74.6 3539.3,74.6 3539.3,69.3 		"/>
		<polygon class="st0" points="270.4,48.9 270.4,71.9 275.7,71.9 275.7,48.9 275.7,43.5 270.4,43.5 		"/>
		<polygon class="st0" points="116,48.9 116,43.5 116,38.2 116,32.9 110.7,32.9 110.7,38.2 110.7,43.5 110.7,48.9 110.7,71.9 
			116,71.9 		"/>
		<polygon class="st0" points="179.9,32.9 185.2,32.9 185.2,27.5 179.9,27.5 174.6,27.5 174.6,32.9 		"/>
		<rect x="116" y="27.5" class="st0" width="5.3" height="5.3"/>
		<polygon class="st0" points="275.7,32.9 275.7,38.2 275.7,43.5 281,43.5 281,38.2 281,32.9 281,27.5 281,22.2 275.7,22.2 
			275.7,27.5 		"/>
		<rect x="185.2" y="22.2" class="st0" width="5.3" height="5.4"/>
		<rect x="121.3" y="22.2" class="st0" width="5.3" height="5.4"/>
		<rect x="270.4" y="16.8" class="st0" width="5.3" height="5.4"/>
		<polygon class="st0" points="227.8,22.2 233.1,22.2 233.1,16.8 227.8,16.8 222.5,16.8 222.5,22.2 		"/>
		<rect x="190.5" y="16.8" class="st0" width="5.3" height="5.4"/>
		<polygon class="st0" points="169.2,27.5 174.6,27.5 174.6,22.2 174.6,16.8 169.2,16.8 169.2,22.2 		"/>
		<rect x="126.6" y="16.8" class="st0" width="5.3" height="5.4"/>
		<rect x="265.1" y="11.5" class="st0" width="5.3" height="5.4"/>
		<rect x="233.1" y="11.5" class="st0" width="5.3" height="5.4"/>
		<polygon class="st0" points="206.5,16.8 211.8,16.8 217.1,16.8 222.5,16.8 222.5,11.5 217.1,11.5 211.8,11.5 206.5,11.5 
			201.2,11.5 195.9,11.5 195.9,16.8 201.2,16.8 		"/>
		<polygon class="st0" points="142.6,16.8 147.9,16.8 153.3,16.8 158.6,16.8 163.9,16.8 169.2,16.8 169.2,11.5 163.9,11.5 
			158.6,11.5 153.3,11.5 147.9,11.5 142.6,11.5 137.3,11.5 132,11.5 132,16.8 137.3,16.8 		"/>
		<polygon class="st0" points="249.1,11.5 254.4,11.5 259.8,11.5 265.1,11.5 265.1,6.1 259.8,6.1 254.4,6.1 249.1,6.1 243.8,6.1 
			238.4,6.1 238.4,11.5 243.8,11.5 		"/>
		<polygon class="st2" points="126.6,71.9 132,71.9 137.3,71.9 142.6,71.9 147.9,71.9 153.3,71.9 158.6,71.9 163.9,71.9 169.2,71.9 
			174.6,71.9 179.9,71.9 185.2,71.9 190.5,71.9 195.9,71.9 201.2,71.9 206.5,71.9 211.8,71.9 217.1,71.9 222.5,71.9 227.8,71.9 
			233.1,71.9 238.4,71.9 243.8,71.9 249.1,71.9 254.4,71.9 259.8,71.9 265.1,71.9 270.4,71.9 270.4,48.9 270.4,43.5 275.7,43.5 
			275.7,38.2 275.7,32.9 275.7,27.5 275.7,22.2 270.4,22.2 270.4,16.8 265.1,16.8 265.1,11.5 259.8,11.5 254.4,11.5 249.1,11.5 
			243.8,11.5 238.4,11.5 238.4,16.8 233.1,16.8 233.1,22.2 227.8,22.2 222.5,22.2 222.5,16.8 217.1,16.8 211.8,16.8 206.5,16.8 
			201.2,16.8 195.9,16.8 195.9,22.2 190.5,22.2 190.5,27.5 185.2,27.5 185.2,32.9 179.9,32.9 174.6,32.9 174.6,27.5 169.2,27.5 
			169.2,22.2 169.2,16.8 163.9,16.8 158.6,16.8 153.3,16.8 147.9,16.8 142.6,16.8 137.3,16.8 132,16.8 132,22.2 126.6,22.2 
			126.6,27.5 121.3,27.5 121.3,32.9 116,32.9 116,38.2 116,43.5 116,48.9 116,71.9 121.3,71.9 		"/>
		<rect x="696.3" y="37.4" class="st0" width="5.3" height="23"/>
		<polygon class="st0" points="701.7,26.7 701.7,32.1 701.7,37.4 707,37.4 707,32.1 707,26.7 707,21.4 707,16 701.7,16 701.7,21.4 
					"/>
		<rect x="696.3" y="10.7" class="st0" width="5.3" height="5.3"/>
		<polygon class="st0" points="691,10.7 696.3,10.7 696.3,5.3 691,5.3 685.7,5.3 685.7,10.7 		"/>
		<polygon class="st0" points="675,5.3 680.3,5.3 685.7,5.3 685.7,0 680.3,0 675,0 669.7,0 664.4,0 664.4,5.3 669.7,5.3 		"/>
		<rect x="541.9" y="37.4" class="st0" width="5.3" height="23"/>
		<polygon class="st0" points="616.5,21.4 621.8,21.4 621.8,16 616.5,16 611.1,16 611.1,21.4 		"/>
		<polygon class="st0" points="536.6,21.4 536.6,26.7 536.6,32.1 536.6,37.4 541.9,37.4 541.9,32.1 541.9,26.7 541.9,21.4 541.9,16 
			536.6,16 		"/>
		<rect x="653.7" y="10.7" class="st0" width="5.3" height="5.3"/>
		<rect x="621.8" y="10.7" class="st0" width="5.3" height="5.3"/>
		<polygon class="st0" points="605.8,16 611.1,16 611.1,10.7 605.8,10.7 600.5,10.7 600.5,16 		"/>
		<rect x="541.9" y="10.7" class="st0" width="5.3" height="5.3"/>
		<rect x="659" y="5.3" class="st0" width="5.3" height="5.3"/>
		<polygon class="st0" points="637.8,10.7 643.1,10.7 648.4,10.7 653.7,10.7 653.7,5.3 648.4,5.3 643.1,5.3 637.8,5.3 632.4,5.3 
			627.1,5.3 627.1,10.7 632.4,10.7 		"/>
		<polygon class="st0" points="589.8,10.7 595.2,10.7 600.5,10.7 600.5,5.3 595.2,5.3 589.8,5.3 584.5,5.3 584.5,10.7 		"/>
		<polygon class="st0" points="552.6,5.3 547.2,5.3 547.2,10.7 552.6,10.7 557.9,10.7 563.2,10.7 563.2,5.3 557.9,5.3 		"/>
		<polygon class="st0" points="579.2,0 573.9,0 568.5,0 563.2,0 563.2,5.3 568.5,5.3 573.9,5.3 579.2,5.3 584.5,5.3 584.5,0 		"/>
		<polygon class="st2" points="547.2,60.4 552.6,60.4 557.9,60.4 563.2,60.4 568.5,60.4 573.9,60.4 579.2,60.4 584.5,60.4 
			589.8,60.4 595.2,60.4 600.5,60.4 605.8,60.4 611.1,60.4 616.5,60.4 621.8,60.4 627.1,60.4 632.4,60.4 637.8,60.4 643.1,60.4 
			648.4,60.4 653.7,60.4 659,60.4 664.4,60.4 669.7,60.4 675,60.4 680.3,60.4 685.7,60.4 691,60.4 696.3,60.4 696.3,37.4 
			701.7,37.4 701.7,32.1 701.7,26.7 701.7,21.4 701.7,16 696.3,16 696.3,10.7 691,10.7 685.7,10.7 685.7,5.3 680.3,5.3 675,5.3 
			669.7,5.3 664.4,5.3 664.4,10.7 659,10.7 659,16 653.7,16 653.7,10.7 648.4,10.7 643.1,10.7 637.8,10.7 632.4,10.7 627.1,10.7 
			627.1,16 621.8,16 621.8,21.4 616.5,21.4 611.1,21.4 611.1,16 605.8,16 600.5,16 600.5,10.7 595.2,10.7 589.8,10.7 584.5,10.7 
			584.5,5.3 579.2,5.3 573.9,5.3 568.5,5.3 563.2,5.3 563.2,10.7 557.9,10.7 552.6,10.7 547.2,10.7 547.2,16 541.9,16 541.9,21.4 
			541.9,26.7 541.9,32.1 541.9,37.4 547.2,37.4 		"/>
		<polygon class="st0" points="419.5,37.4 419.5,42.7 424.8,42.7 430.1,42.7 430.1,37.4 424.8,37.4 		"/>
		<polygon class="st0" points="339.6,58.7 339.6,64 344.9,64 350.3,64 350.3,58.7 344.9,58.7 		"/>
		<polygon class="st0" points="398.2,53.3 392.9,53.3 387.5,53.3 387.5,58.7 392.9,58.7 398.2,58.7 403.5,58.7 408.8,58.7 
			408.8,53.3 403.5,53.3 		"/>
		<polygon class="st0" points="355.6,53.3 350.3,53.3 350.3,58.7 355.6,58.7 360.9,58.7 366.2,58.7 366.2,53.3 360.9,53.3 		"/>
		<rect x="462.1" y="48" class="st0" width="5.3" height="5.3"/>
		<rect x="408.8" y="48" class="st0" width="5.3" height="5.3"/>
		<polygon class="st0" points="382.2,48 376.9,48 371.5,48 366.2,48 366.2,53.3 371.5,53.3 376.9,53.3 382.2,53.3 387.5,53.3 
			387.5,48 		"/>
		<polygon class="st0" points="339.6,48 334.3,48 334.3,53.3 334.3,58.7 339.6,58.7 339.6,53.3 		"/>
		<polygon class="st0" points="52.1,48 52.1,53.3 57.4,53.3 62.8,53.3 62.8,48 57.4,48 		"/>
		<polygon class="st0" points="467.4,42.7 467.4,48 472.7,48 478,48 478,42.7 472.7,42.7 		"/>
		<rect x="456.7" y="42.7" class="st0" width="5.3" height="5.3"/>
		<rect x="414.1" y="42.7" class="st0" width="5.3" height="5.3"/>
		<rect x="329" y="42.7" class="st0" width="5.3" height="5.3"/>
		<polygon class="st0" points="259.8,42.7 254.4,42.7 254.4,48 259.8,48 265.1,48 270.4,48 270.4,42.7 265.1,42.7 		"/>
		<polygon class="st0" points="185.2,42.7 179.9,42.7 174.6,42.7 169.2,42.7 163.9,42.7 158.6,42.7 153.3,42.7 153.3,48 147.9,48 
			142.6,48 137.3,48 132,48 126.6,48 121.3,48 121.3,53.3 126.6,53.3 132,53.3 137.3,53.3 142.6,53.3 147.9,53.3 153.3,53.3 
			158.6,53.3 158.6,48 163.9,48 169.2,48 174.6,48 179.9,48 185.2,48 190.5,48 195.9,48 195.9,42.7 190.5,42.7 		"/>
		<rect x="116" y="42.7" class="st0" width="5.3" height="5.3"/>
		<polygon class="st0" points="62.8,42.7 62.8,48 68.1,48 73.4,48 73.4,42.7 68.1,42.7 		"/>
		<rect x="46.8" y="42.7" class="st0" width="5.3" height="5.3"/>
		<polygon class="st0" points="478,37.4 478,42.7 483.4,42.7 488.7,42.7 488.7,37.4 483.4,37.4 		"/>
		<polygon class="st0" points="451.4,37.4 446.1,37.4 446.1,42.7 451.4,42.7 456.7,42.7 456.7,37.4 		"/>
		<polygon class="st0" points="323.6,37.4 318.3,37.4 318.3,42.7 323.6,42.7 329,42.7 329,37.4 		"/>
		<polygon class="st0" points="270.4,37.4 270.4,42.7 275.7,42.7 281,42.7 281,37.4 275.7,37.4 		"/>
		<polygon class="st0" points="249.1,37.4 243.8,37.4 243.8,42.7 249.1,42.7 254.4,42.7 254.4,37.4 		"/>
		<polygon class="st0" points="195.9,37.4 195.9,42.7 201.2,42.7 206.5,42.7 206.5,37.4 201.2,37.4 		"/>
		<polygon class="st0" points="110.7,37.4 105.3,37.4 100,37.4 94.7,37.4 89.4,37.4 84.1,37.4 78.7,37.4 73.4,37.4 73.4,42.7 
			78.7,42.7 84.1,42.7 89.4,42.7 94.7,42.7 100,42.7 105.3,42.7 110.7,42.7 116,42.7 116,37.4 		"/>
		<rect x="41.5" y="37.4" class="st0" width="5.3" height="5.3"/>
		<rect y="37.4" class="st0" width="4.2" height="5.3"/>
		<polygon class="st0" points="520.6,32 515.3,32 510,32 504.6,32 499.3,32 494,32 488.7,32 488.7,37.4 494,37.4 499.3,37.4 
			504.6,37.4 510,37.4 515.3,37.4 520.6,37.4 526,37.4 526,32 		"/>
		<polygon class="st0" points="440.8,32 435.4,32 430.1,32 430.1,37.4 435.4,37.4 440.8,37.4 446.1,37.4 446.1,32 		"/>
		<polygon class="st0" points="313,32 307.7,32 302.3,32 297,32 291.7,32 286.4,32 281,32 281,37.4 286.4,37.4 291.7,37.4 297,37.4 
			302.3,37.4 307.7,37.4 313,37.4 318.3,37.4 318.3,32 		"/>
		<polygon class="st0" points="238.4,32 233.1,32 227.8,32 222.5,32 217.1,32 211.8,32 206.5,32 206.5,37.4 211.8,37.4 217.1,37.4 
			222.5,37.4 227.8,37.4 233.1,37.4 238.4,37.4 243.8,37.4 243.8,32 		"/>
		<polygon class="st0" points="36.1,32 30.8,32 25.5,32 20.2,32 14.8,32 9.5,32 4.2,32 4.2,37.4 9.5,37.4 14.8,37.4 20.2,37.4 
			25.5,37.4 30.8,37.4 36.1,37.4 41.5,37.4 41.5,32 		"/>
		<rect x="765.5" y="58.7" class="st0" width="5.3" height="5.3"/>
		<rect x="813.5" y="53.3" class="st0" width="5.3" height="5.3"/>
		<polygon class="st0" points="770.9,53.3 770.9,58.7 776.2,58.7 781.5,58.7 781.5,53.3 776.2,53.3 		"/>
		<rect x="760.2" y="53.3" class="st0" width="5.3" height="5.3"/>
		<polygon class="st0" points="808.1,48 802.8,48 797.5,48 792.2,48 786.8,48 781.5,48 781.5,53.3 786.8,53.3 792.2,53.3 
			797.5,53.3 802.8,53.3 808.1,53.3 813.5,53.3 813.5,48 		"/>
		<polygon class="st0" points="754.9,48 749.6,48 749.6,53.3 754.9,53.3 760.2,53.3 760.2,48 		"/>
		<polygon class="st0" points="893.3,42.7 888,42.7 888,48 893.3,48 898.6,48 898.6,42.7 		"/>
		<polygon class="st0" points="818.8,48 818.8,53.3 824.1,53.3 824.1,48 829.4,48 829.4,42.7 824.1,42.7 824.1,48 		"/>
		<polygon class="st0" points="744.2,42.7 738.9,42.7 733.6,42.7 733.6,48 738.9,48 744.2,48 749.6,48 749.6,42.7 		"/>
		<polygon class="st0" points="680.3,42.7 675,42.7 675,48 685.7,48 685.7,42.7 		"/>
		<polygon class="st0" points="701.7,42.7 696.3,42.7 691,42.7 691,48 701.7,48 707,48 712.3,48 712.3,42.7 707,42.7 		"/>
		<rect x="685.7" y="48" class="st0" width="5.3" height="5.3"/>
		<polygon class="st0" points="882.7,37.4 877.3,37.4 877.3,42.7 882.7,42.7 888,42.7 888,37.4 		"/>
		<rect x="829.4" y="37.4" class="st0" width="5.3" height="5.3"/>
		<polygon class="st0" points="728.3,37.4 722.9,37.4 717.6,37.4 712.3,37.4 712.3,42.7 717.6,42.7 722.9,42.7 728.3,42.7 
			733.6,42.7 733.6,37.4 		"/>
		<polygon class="st0" points="669.7,37.4 664.4,37.4 664.4,42.7 669.7,42.7 675,42.7 675,37.4 		"/>
		<rect x="621.8" y="37.4" class="st0" width="5.3" height="5.3"/>
		<polygon class="st0" points="872,32 866.7,32 861.4,32 856,32 850.7,32 845.4,32 840.1,32 834.8,32 834.8,37.4 840.1,37.4 
			845.4,37.4 850.7,37.4 856,37.4 861.4,37.4 866.7,37.4 872,37.4 877.3,37.4 877.3,32 		"/>
		<polygon class="st0" points="659,32 653.7,32 648.4,32 643.1,32 637.8,32 632.4,32 627.1,32 627.1,37.4 632.4,37.4 637.8,37.4 
			643.1,37.4 648.4,37.4 653.7,37.4 659,37.4 664.4,37.4 664.4,32 		"/>
		<polygon class="st0" points="616.5,32 611.1,32 611.1,37.4 616.5,37.4 621.8,37.4 621.8,32 		"/>
		<polygon class="st0" points="531.3,37.4 526,37.4 526,42.7 531.3,42.7 536.6,42.7 541.9,42.7 541.9,37.4 536.6,37.4 		"/>
		<rect x="541.9" y="32" class="st0" width="5.3" height="5.3"/>
		<polygon class="st0" points="605.8,26.7 600.5,26.7 595.2,26.7 595.2,32 600.5,32 605.8,32 611.1,32 611.1,26.7 		"/>
		<polygon class="st0" points="552.6,26.7 547.2,26.7 547.2,32 552.6,32 557.9,32 563.2,32 563.2,26.7 557.9,26.7 		"/>
		<polygon class="st0" points="589.8,21.4 584.5,21.4 579.2,21.4 573.9,21.4 568.5,21.4 563.2,21.4 563.2,26.7 568.5,26.7 
			573.9,26.7 579.2,26.7 584.5,26.7 589.8,26.7 595.2,26.7 595.2,21.4 		"/>
		<polygon class="st1" points="888,48 888,42.7 877.3,42.7 877.3,37.4 834.8,37.4 834.8,42.7 829.4,42.7 829.4,48 824.1,48 
			824.1,53.3 818.8,53.3 818.8,58.7 813.5,58.7 813.5,53.3 781.5,53.3 781.5,58.7 770.9,58.7 770.9,64 765.5,64 765.5,58.7 
			760.2,58.7 760.2,53.3 749.6,53.3 749.6,48 733.6,48 733.6,42.7 712.3,42.7 712.3,48 691,48 691,53.3 685.7,53.3 685.7,48 675,48 
			675,42.7 664.4,42.7 664.4,37.4 627.1,37.4 627.1,42.7 621.8,42.7 621.8,37.4 611.1,37.4 611.1,32 595.2,32 595.2,26.7 
			563.2,26.7 563.2,32 547.2,32 547.2,37.4 541.9,37.4 541.9,42.7 526,42.7 526,37.4 488.7,37.4 488.7,42.7 478,42.7 478,48 
			467.4,48 467.4,53.3 462.1,53.3 462.1,48 456.7,48 456.7,42.7 446.1,42.7 446.1,37.4 430.1,37.4 430.1,42.7 419.5,42.7 419.5,48 
			414.1,48 414.1,53.3 408.8,53.3 408.8,58.7 387.5,58.7 387.5,53.3 366.2,53.3 366.2,58.7 350.3,58.7 350.3,64 339.6,64 
			339.6,58.7 334.3,58.7 334.3,48 329,48 329,42.7 318.3,42.7 318.3,37.4 281,37.4 281,42.7 270.4,42.7 270.4,48 254.4,48 
			254.4,42.7 243.8,42.7 243.8,37.4 206.5,37.4 206.5,42.7 195.9,42.7 195.9,48 158.6,48 158.6,53.3 121.3,53.3 121.3,48 116,48 
			116,42.7 73.4,42.7 73.4,48 62.8,48 62.8,53.3 52.1,53.3 52.1,48 46.8,48 46.8,42.7 41.5,42.7 41.5,37.4 4.2,37.4 4.2,42.7 
			0,42.7 0,111.9 898.6,111.9 898.6,48 		"/>
		<rect x="1401.5" y="48.9" class="st0" width="5.3" height="23"/>
		<polygon class="st0" points="1406.8,38.2 1406.8,43.6 1406.8,48.9 1412.2,48.9 1412.2,43.6 1412.2,38.2 1412.2,32.9 1412.2,27.5 
			1406.8,27.5 1406.8,32.9 		"/>
		<rect x="1401.5" y="22.2" class="st0" width="5.3" height="5.4"/>
		<polygon class="st0" points="1396.2,22.2 1401.5,22.2 1401.5,16.8 1396.2,16.8 1390.9,16.8 1390.9,22.2 		"/>
		<polygon class="st0" points="1380.2,16.8 1385.5,16.8 1390.9,16.8 1390.9,11.5 1385.5,11.5 1380.2,11.5 1374.9,11.5 1369.6,11.5 
			1369.6,16.8 1374.9,16.8 		"/>
		<rect x="1247.1" y="48.9" class="st0" width="5.3" height="23"/>
		<polygon class="st0" points="1321.7,32.9 1327,32.9 1327,27.5 1321.7,27.5 1316.3,27.5 1316.3,32.9 		"/>
		<polygon class="st0" points="1241.8,32.9 1241.8,38.2 1241.8,43.6 1241.8,48.9 1247.1,48.9 1247.1,43.6 1247.1,38.2 1247.1,32.9 
			1247.1,27.5 1241.8,27.5 		"/>
		<rect x="1358.9" y="22.2" class="st0" width="5.3" height="5.4"/>
		<rect x="1327" y="22.2" class="st0" width="5.3" height="5.4"/>
		<polygon class="st0" points="1311,27.5 1316.3,27.5 1316.3,22.2 1311,22.2 1305.7,22.2 1305.7,27.5 		"/>
		<rect x="1247.1" y="22.2" class="st0" width="5.3" height="5.4"/>
		<rect x="1364.2" y="16.8" class="st0" width="5.3" height="5.4"/>
		<polygon class="st0" points="1342.9,22.2 1348.3,22.2 1353.6,22.2 1358.9,22.2 1358.9,16.8 1353.6,16.8 1348.3,16.8 1342.9,16.8 
			1337.6,16.8 1332.3,16.8 1332.3,22.2 1337.6,22.2 		"/>
		<polygon class="st0" points="1295,22.2 1300.4,22.2 1305.7,22.2 1305.7,16.8 1300.4,16.8 1295,16.8 1289.7,16.8 1289.7,22.2 		"/>
		<polygon class="st0" points="1257.8,16.8 1252.4,16.8 1252.4,22.2 1257.8,22.2 1263.1,22.2 1268.4,22.2 1268.4,16.8 1263.1,16.8 
					"/>
		<polygon class="st0" points="1284.4,11.5 1279.1,11.5 1273.7,11.5 1268.4,11.5 1268.4,16.8 1273.7,16.8 1279.1,16.8 1284.4,16.8 
			1289.7,16.8 1289.7,11.5 		"/>
		<polygon class="st2" points="1252.4,71.9 1257.8,71.9 1263.1,71.9 1268.4,71.9 1273.7,71.9 1279.1,71.9 1284.4,71.9 1289.7,71.9 
			1295,71.9 1300.4,71.9 1305.7,71.9 1311,71.9 1316.3,71.9 1321.7,71.9 1327,71.9 1332.3,71.9 1337.6,71.9 1342.9,71.9 
			1348.3,71.9 1353.6,71.9 1358.9,71.9 1364.2,71.9 1369.6,71.9 1374.9,71.9 1380.2,71.9 1385.5,71.9 1390.9,71.9 1396.2,71.9 
			1401.5,71.9 1401.5,48.9 1406.8,48.9 1406.8,43.6 1406.8,38.2 1406.8,32.9 1406.8,27.5 1401.5,27.5 1401.5,22.2 1396.2,22.2 
			1390.9,22.2 1390.9,16.8 1385.5,16.8 1380.2,16.8 1374.9,16.8 1369.6,16.8 1369.6,22.2 1364.2,22.2 1364.2,27.5 1358.9,27.5 
			1358.9,22.2 1353.6,22.2 1348.3,22.2 1342.9,22.2 1337.6,22.2 1332.3,22.2 1332.3,27.5 1327,27.5 1327,32.9 1321.7,32.9 
			1316.3,32.9 1316.3,27.5 1311,27.5 1305.7,27.5 1305.7,22.2 1300.4,22.2 1295,22.2 1289.7,22.2 1289.7,16.8 1284.4,16.8 
			1279.1,16.8 1273.7,16.8 1268.4,16.8 1268.4,22.2 1263.1,22.2 1257.8,22.2 1252.4,22.2 1252.4,27.5 1247.1,27.5 1247.1,32.9 
			1247.1,38.2 1247.1,43.6 1247.1,48.9 1252.4,48.9 		"/>
		<polygon class="st0" points="1308.6,37.4 1308.6,42.7 1303.3,42.7 1297.9,42.7 1297.9,37.4 1303.3,37.4 		"/>
		<polygon class="st0" points="1388.5,58.7 1388.5,64 1383.1,64 1377.8,64 1377.8,58.7 1383.1,58.7 		"/>
		<polygon class="st0" points="1329.9,53.3 1335.2,53.3 1340.5,53.3 1340.5,58.7 1335.2,58.7 1329.9,58.7 1324.6,58.7 1319.2,58.7 
			1319.2,53.3 1324.6,53.3 		"/>
		<polygon class="st0" points="1372.5,53.3 1377.8,53.3 1377.8,58.7 1372.5,58.7 1367.2,58.7 1361.8,58.7 1361.8,53.3 1367.2,53.3 
					"/>
		<rect x="1260.7" y="48" class="st0" width="5.3" height="5.3"/>
		<rect x="1313.9" y="48" class="st0" width="5.3" height="5.3"/>
		<polygon class="st0" points="1345.9,48 1351.2,48 1356.5,48 1361.8,48 1361.8,53.3 1356.5,53.3 1351.2,53.3 1345.9,53.3 
			1340.5,53.3 1340.5,48 		"/>
		<polygon class="st0" points="1388.5,48 1393.8,48 1393.8,53.3 1393.8,58.7 1388.5,58.7 1388.5,53.3 		"/>
		<polygon class="st0" points="1676,48 1676,53.3 1670.6,53.3 1665.3,53.3 1665.3,48 1670.6,48 		"/>
		<polygon class="st0" points="1260.7,42.7 1260.7,48 1255.4,48 1250,48 1250,42.7 1255.4,42.7 		"/>
		<rect x="1266" y="42.7" class="st0" width="5.3" height="5.3"/>
		<rect x="1308.6" y="42.7" class="st0" width="5.3" height="5.3"/>
		<rect x="1393.8" y="42.7" class="st0" width="5.3" height="5.3"/>
		<polygon class="st0" points="1468.3,42.7 1473.6,42.7 1473.6,48 1468.3,48 1463,48 1457.7,48 1457.7,42.7 1463,42.7 		"/>
		<polygon class="st0" points="1542.9,42.7 1548.2,42.7 1553.5,42.7 1558.8,42.7 1564.2,42.7 1569.5,42.7 1574.8,42.7 1574.8,48 
			1580.1,48 1585.4,48 1590.8,48 1596.1,48 1601.4,48 1606.8,48 1606.8,53.3 1601.4,53.3 1596.1,53.3 1590.8,53.3 1585.4,53.3 
			1580.1,53.3 1574.8,53.3 1569.5,53.3 1569.5,48 1564.2,48 1558.8,48 1553.5,48 1548.2,48 1542.9,48 1537.5,48 1532.2,48 
			1532.2,42.7 1537.5,42.7 		"/>
		<rect x="1606.8" y="42.7" class="st0" width="5.3" height="5.3"/>
		<polygon class="st0" points="1665.3,42.7 1665.3,48 1660,48 1654.7,48 1654.7,42.7 1660,42.7 		"/>
		<rect x="1676" y="42.7" class="st0" width="5.3" height="5.3"/>
		<polygon class="st0" points="1745.2,42.7 1745.2,48 1739.8,48 1734.5,48 1734.5,42.7 1739.8,42.7 		"/>
		<polygon class="st0" points="1250,37.4 1250,42.7 1244.7,42.7 1239.4,42.7 1239.4,37.4 1244.7,37.4 		"/>
		<polygon class="st0" points="1276.7,37.4 1282,37.4 1282,42.7 1276.7,42.7 1271.3,42.7 1271.3,37.4 		"/>
		<polygon class="st0" points="1404.4,37.4 1409.8,37.4 1409.8,42.7 1404.4,42.7 1399.1,42.7 1399.1,37.4 		"/>
		<polygon class="st0" points="1457.7,37.4 1457.7,42.7 1452.3,42.7 1447,42.7 1447,37.4 1452.3,37.4 		"/>
		<polygon class="st0" points="1479,37.4 1484.3,37.4 1484.3,42.7 1479,42.7 1473.6,42.7 1473.6,37.4 		"/>
		<polygon class="st0" points="1532.2,37.4 1532.2,42.7 1526.9,42.7 1521.6,42.7 1521.6,37.4 1526.9,37.4 		"/>
		<polygon class="st0" points="1617.4,37.4 1622.7,37.4 1628,37.4 1633.4,37.4 1638.7,37.4 1644,37.4 1649.3,37.4 1654.7,37.4 
			1654.7,42.7 1649.3,42.7 1644,42.7 1638.7,42.7 1633.4,42.7 1628,42.7 1622.7,42.7 1617.4,42.7 1612.1,42.7 1612.1,37.4 		"/>
		<rect x="1681.3" y="37.4" class="st0" width="5.3" height="5.3"/>
		<polygon class="st0" points="1734.5,37.4 1734.5,42.7 1729.2,42.7 1723.9,42.7 1723.9,37.4 1729.2,37.4 		"/>
		<polygon class="st0" points="1207.4,32 1212.8,32 1218.1,32 1223.4,32 1228.7,32 1234.1,32 1239.4,32 1239.4,37.4 1234.1,37.4 
			1228.7,37.4 1223.4,37.4 1218.1,37.4 1212.8,37.4 1207.4,37.4 1202.1,37.4 1202.1,32 		"/>
		<polygon class="st0" points="1287.3,32 1292.6,32 1297.9,32 1297.9,37.4 1292.6,37.4 1287.3,37.4 1282,37.4 1282,32 		"/>
		<polygon class="st0" points="1415.1,32 1420.4,32 1425.7,32 1431.1,32 1436.4,32 1441.7,32 1447,32 1447,37.4 1441.7,37.4 
			1436.4,37.4 1431.1,37.4 1425.7,37.4 1420.4,37.4 1415.1,37.4 1409.8,37.4 1409.8,32 		"/>
		<polygon class="st0" points="1489.6,32 1494.9,32 1500.3,32 1505.6,32 1510.9,32 1516.2,32 1521.6,32 1521.6,37.4 1516.2,37.4 
			1510.9,37.4 1505.6,37.4 1500.3,37.4 1494.9,37.4 1489.6,37.4 1484.3,37.4 1484.3,32 		"/>
		<polygon class="st0" points="1691.9,32 1697.3,32 1702.6,32 1707.9,32 1713.2,32 1718.6,32 1723.9,32 1723.9,37.4 1718.6,37.4 
			1713.2,37.4 1707.9,37.4 1702.6,37.4 1697.3,37.4 1691.9,37.4 1686.6,37.4 1686.6,32 		"/>
		<rect x="957.2" y="58.7" class="st0" width="5.3" height="5.3"/>
		<rect x="909.3" y="53.3" class="st0" width="5.3" height="5.3"/>
		<polygon class="st0" points="957.2,53.3 957.2,58.7 951.9,58.7 946.6,58.7 946.6,53.3 951.9,53.3 		"/>
		<rect x="962.5" y="53.3" class="st0" width="5.3" height="5.3"/>
		<polygon class="st0" points="919.9,48 925.3,48 930.6,48 935.9,48 941.2,48 946.6,48 946.6,53.3 941.2,53.3 935.9,53.3 
			930.6,53.3 925.3,53.3 919.9,53.3 914.6,53.3 914.6,48 		"/>
		<polygon class="st0" points="973.2,48 978.5,48 978.5,53.3 973.2,53.3 967.8,53.3 967.8,48 		"/>
		<polygon class="st0" points="904,48 909.3,48 909.3,53.3 904,53.3 904,48 898.6,48 898.6,42.7 904,42.7 		"/>
		<polygon class="st0" points="983.8,42.7 989.2,42.7 994.5,42.7 994.5,48 989.2,48 983.8,48 978.5,48 978.5,42.7 		"/>
		<polygon class="st0" points="1047.7,42.7 1053,42.7 1053,48 1042.4,48 1042.4,42.7 		"/>
		<polygon class="st0" points="1026.4,42.7 1031.7,42.7 1037.1,42.7 1037.1,48 1026.4,48 1021.1,48 1015.8,48 1015.8,42.7 
			1021.1,42.7 		"/>
		<rect x="1037.1" y="48" class="st0" width="5.3" height="5.3"/>
		<rect x="893.3" y="37.4" class="st0" width="5.3" height="5.3"/>
		<polygon class="st0" points="999.8,37.4 1005.1,37.4 1010.5,37.4 1015.8,37.4 1015.8,42.7 1010.5,42.7 1005.1,42.7 999.8,42.7 
			994.5,42.7 994.5,37.4 		"/>
		<polygon class="st0" points="1058.4,37.4 1063.7,37.4 1063.7,42.7 1058.4,42.7 1053,42.7 1053,37.4 		"/>
		<rect x="1101" y="37.4" class="st0" width="5.3" height="5.3"/>
		<polygon class="st0" points="856,32 861.4,32 866.7,32 872,32 877.3,32 882.7,32 888,32 893.3,32 893.3,37.4 888,37.4 882.7,37.4 
			877.3,37.4 872,37.4 866.7,37.4 861.4,37.4 856,37.4 850.7,37.4 850.7,32 		"/>
		<polygon class="st0" points="1069,32 1074.3,32 1079.7,32 1085,32 1090.3,32 1095.6,32 1100.9,32 1100.9,37.4 1095.6,37.4 
			1090.3,37.4 1085,37.4 1079.7,37.4 1074.3,37.4 1069,37.4 1063.7,37.4 1063.7,32 		"/>
		<polygon class="st0" points="1111.6,32 1116.9,32 1116.9,37.4 1111.6,37.4 1106.3,37.4 1106.3,32 		"/>
		<polygon class="st0" points="1196.8,37.4 1202.1,37.4 1202.1,42.7 1196.8,42.7 1191.5,42.7 1186.1,42.7 1186.1,37.4 1191.5,37.4 
					"/>
		<rect x="1180.8" y="32" class="st0" width="5.3" height="5.3"/>
		<polygon class="st0" points="1122.2,26.7 1127.6,26.7 1132.9,26.7 1132.9,32 1127.6,32 1122.2,32 1116.9,32 1116.9,26.7 		"/>
		<polygon class="st0" points="1175.5,26.7 1180.8,26.7 1180.8,32 1175.5,32 1170.2,32 1164.8,32 1164.8,26.7 1170.2,26.7 		"/>
		<polygon class="st0" points="1138.2,21.4 1143.6,21.4 1148.9,21.4 1154.2,21.4 1159.5,21.4 1164.8,21.4 1164.8,26.7 1159.5,26.7 
			1154.2,26.7 1148.9,26.7 1143.6,26.7 1138.2,26.7 1132.9,26.7 1132.9,21.4 		"/>
		<polygon class="st1" points="834.8,48 840.1,48 840.1,42.7 845.4,42.7 850.7,42.7 850.7,37.4 856,37.4 861.4,37.4 866.7,37.4 
			872,37.4 877.3,37.4 882.7,37.4 888,37.4 893.3,37.4 893.3,42.7 898.6,42.7 898.6,48 904,48 904,53.3 909.3,53.3 909.3,58.7 
			914.6,58.7 914.6,53.3 919.9,53.3 925.3,53.3 930.6,53.3 935.9,53.3 941.2,53.3 946.6,53.3 946.6,58.7 951.9,58.7 957.2,58.7 
			957.2,64 962.5,64 962.5,58.7 967.8,58.7 967.8,53.3 973.2,53.3 978.5,53.3 978.5,48 983.8,48 989.2,48 994.5,48 994.5,42.7 
			999.8,42.7 1005.1,42.7 1010.5,42.7 1015.8,42.7 1015.8,48 1021.1,48 1026.4,48 1037.1,48 1037.1,53.3 1042.4,53.3 1042.4,48 
			1053,48 1053,42.7 1058.4,42.7 1063.7,42.7 1063.7,37.4 1069,37.4 1074.3,37.4 1079.7,37.4 1085,37.4 1090.3,37.4 1095.6,37.4 
			1100.9,37.4 1100.9,42.7 1106.3,42.7 1106.3,37.4 1111.6,37.4 1116.9,37.4 1116.9,32 1122.2,32 1127.6,32 1132.9,32 1132.9,26.7 
			1138.2,26.7 1143.6,26.7 1148.9,26.7 1154.2,26.7 1159.5,26.7 1164.8,26.7 1164.8,32 1170.2,32 1175.5,32 1180.8,32 1180.8,37.4 
			1186.1,37.4 1186.1,42.7 1191.5,42.7 1196.8,42.7 1202.1,42.7 1202.1,37.4 1207.4,37.4 1212.8,37.4 1218.1,37.4 1223.4,37.4 
			1228.7,37.4 1234.1,37.4 1239.4,37.4 1239.4,42.7 1244.7,42.7 1250,42.7 1250,48 1255.4,48 1260.7,48 1260.7,53.3 1266,53.3 
			1266,48 1271.3,48 1271.3,42.7 1276.7,42.7 1282,42.7 1282,37.4 1287.3,37.4 1292.6,37.4 1297.9,37.4 1297.9,42.7 1303.3,42.7 
			1308.6,42.7 1308.6,48 1313.9,48 1313.9,53.3 1319.2,53.3 1319.2,58.7 1324.6,58.7 1329.9,58.7 1335.2,58.7 1340.5,58.7 
			1340.5,53.3 1345.9,53.3 1351.2,53.3 1356.5,53.3 1361.8,53.3 1361.8,58.7 1367.2,58.7 1372.5,58.7 1377.8,58.7 1377.8,64 
			1383.1,64 1388.5,64 1388.5,58.7 1393.8,58.7 1393.8,53.3 1393.8,48 1399.1,48 1399.1,42.7 1404.4,42.7 1409.8,42.7 1409.8,37.4 
			1415.1,37.4 1420.4,37.4 1425.7,37.4 1431.1,37.4 1436.4,37.4 1441.7,37.4 1447,37.4 1447,42.7 1452.3,42.7 1457.7,42.7 
			1457.7,48 1463,48 1468.3,48 1473.6,48 1473.6,42.7 1479,42.7 1484.3,42.7 1484.3,37.4 1489.6,37.4 1494.9,37.4 1500.3,37.4 
			1505.6,37.4 1510.9,37.4 1516.2,37.4 1521.6,37.4 1521.6,42.7 1526.9,42.7 1532.2,42.7 1532.2,48 1537.5,48 1542.9,48 1548.2,48 
			1553.5,48 1558.8,48 1564.2,48 1569.5,48 1569.5,53.3 1574.8,53.3 1580.1,53.3 1585.4,53.3 1590.8,53.3 1596.1,53.3 1601.4,53.3 
			1606.8,53.3 1606.8,48 1612.1,48 1612.1,42.7 1617.4,42.7 1622.7,42.7 1628,42.7 1633.4,42.7 1638.7,42.7 1644,42.7 1649.3,42.7 
			1654.7,42.7 1654.7,48 1660,48 1665.3,48 1665.3,53.3 1670.6,53.3 1676,53.3 1676,48 1681.3,48 1681.3,42.7 1686.6,42.7 
			1686.6,37.4 1691.9,37.4 1697.3,37.4 1702.6,37.4 1707.9,37.4 1713.2,37.4 1718.6,37.4 1723.9,37.4 1723.9,42.7 1729.2,42.7 
			1734.5,42.7 1734.5,48 1739.8,48 1745.2,48 1745.2,53.3 1745.2,58.7 1745.2,64 1745.2,69.3 1745.2,74.6 1745.2,74.6 1745.2,80 
			1745.2,85.3 1745.2,90.6 1745.2,95.9 1745.2,101.3 1745.2,106.6 1745.2,111.9 1734.5,111.9 1729.2,111.9 1723.9,111.9 
			1718.6,111.9 1713.2,111.9 1707.9,111.9 1702.6,111.9 1697.3,111.9 1691.9,111.9 1686.6,111.9 1681.3,111.9 1676,111.9 
			1670.6,111.9 1665.3,111.9 1660,111.9 1654.7,111.9 1649.3,111.9 1644,111.9 1638.7,111.9 1633.4,111.9 1628,111.9 1622.7,111.9 
			1617.4,111.9 1612.1,111.9 1606.8,111.9 1601.4,111.9 1596.1,111.9 1590.8,111.9 1585.4,111.9 1580.1,111.9 1574.8,111.9 
			1569.5,111.9 1564.2,111.9 1558.8,111.9 1553.5,111.9 1548.2,111.9 1542.9,111.9 1537.5,111.9 1532.2,111.9 1526.9,111.9 
			1521.6,111.9 1516.2,111.9 1510.9,111.9 1505.6,111.9 1500.3,111.9 1494.9,111.9 1489.6,111.9 1484.3,111.9 1479,111.9 
			1473.6,111.9 1468.3,111.9 1463,111.9 1457.7,111.9 1452.3,111.9 1447,111.9 1441.7,111.9 1436.4,111.9 1431.1,111.9 
			1425.7,111.9 1420.4,111.9 1415.1,111.9 1409.8,111.9 1404.4,111.9 1399.1,111.9 1393.8,111.9 1388.5,111.9 1383.1,111.9 
			1377.8,111.9 1372.5,111.9 1367.2,111.9 1361.8,111.9 1356.5,111.9 1351.2,111.9 1345.9,111.9 1340.5,111.9 1335.2,111.9 
			1329.9,111.9 1324.6,111.9 1319.2,111.9 1313.9,111.9 1308.6,111.9 1303.3,111.9 1297.9,111.9 1292.6,111.9 1287.3,111.9 
			1282,111.9 1276.7,111.9 1271.3,111.9 1266,111.9 1260.7,111.9 1255.4,111.9 1250,111.9 1244.7,111.9 1239.4,111.9 1234.1,111.9 
			1228.7,111.9 1223.4,111.9 1218.1,111.9 1212.8,111.9 1207.4,111.9 1202.1,111.9 1196.8,111.9 1191.5,111.9 1186.1,111.9 
			1180.8,111.9 1175.5,111.9 1170.2,111.9 1164.8,111.9 1159.5,111.9 1154.2,111.9 1148.9,111.9 1143.6,111.9 1138.2,111.9 
			1132.9,111.9 1127.6,111.9 1122.2,111.9 1116.9,111.9 1111.6,111.9 1106.3,111.9 1100.9,111.9 1095.6,111.9 1090.3,111.9 
			1085,111.9 1079.7,111.9 1074.3,111.9 1069,111.9 1063.7,111.9 1058.4,111.9 1053,111.9 1047.7,111.9 1042.4,111.9 1037.1,111.9 
			1031.7,111.9 1026.4,111.9 1021.1,111.9 1015.8,111.9 1010.5,111.9 1005.1,111.9 999.8,111.9 994.5,111.9 989.2,111.9 
			983.8,111.9 978.5,111.9 973.2,111.9 967.8,111.9 962.5,111.9 957.2,111.9 951.9,111.9 946.6,111.9 941.2,111.9 935.9,111.9 
			930.6,111.9 925.3,111.9 919.9,111.9 914.6,111.9 909.3,111.9 904,111.9 898.6,111.9 893.3,111.9 888,111.9 882.7,111.9 
			877.3,111.9 872,111.9 866.7,111.9 861.4,111.9 856,111.9 850.7,111.9 829.4,111.9 829.4,106.6 829.4,101.3 829.4,95.9 
			829.4,90.6 829.4,85.3 829.4,80 829.4,74.6 829.4,69.3 829.4,64 829.4,58.7 829.4,53.3 829.4,48 		"/>
		<polygon class="st0" points="2011.4,59.6 2011.4,82.6 2016.7,82.6 2016.7,59.6 2016.7,54.2 2011.4,54.2 		"/>
		<polygon class="st0" points="1857,59.6 1857,54.2 1857,48.9 1857,43.5 1851.7,43.5 1851.7,48.9 1851.7,54.2 1851.7,59.6 
			1851.7,82.6 1857,82.6 		"/>
		<polygon class="st0" points="1920.9,43.5 1926.2,43.5 1926.2,38.2 1920.9,38.2 1915.5,38.2 1915.5,43.5 		"/>
		<rect x="1857" y="38.2" class="st0" width="5.3" height="5.3"/>
		<polygon class="st0" points="2016.7,43.5 2016.7,48.9 2016.7,54.2 2022,54.2 2022,48.9 2022,43.5 2022,38.2 2022,32.8 
			2016.7,32.8 2016.7,38.2 		"/>
		<rect x="1926.2" y="32.8" class="st0" width="5.3" height="5.3"/>
		<rect x="1862.3" y="32.8" class="st0" width="5.3" height="5.3"/>
		<rect x="2011.4" y="27.5" class="st0" width="5.3" height="5.3"/>
		<polygon class="st0" points="1968.8,32.8 1974.1,32.8 1974.1,27.5 1968.8,27.5 1963.5,27.5 1963.5,32.8 		"/>
		<rect x="1931.5" y="27.5" class="st0" width="5.3" height="5.3"/>
		<polygon class="st0" points="1910.2,38.2 1915.5,38.2 1915.5,32.8 1915.5,27.5 1910.2,27.5 1910.2,32.8 		"/>
		<rect x="1867.6" y="27.5" class="st0" width="5.3" height="5.3"/>
		<rect x="2006.1" y="22.1" class="st0" width="5.3" height="5.4"/>
		<rect x="1974.1" y="22.1" class="st0" width="5.3" height="5.4"/>
		<polygon class="st0" points="1947.5,27.5 1952.8,27.5 1958.1,27.5 1963.5,27.5 1963.5,22.1 1958.1,22.1 1952.8,22.1 1947.5,22.1 
			1942.2,22.1 1936.8,22.1 1936.8,27.5 1942.2,27.5 		"/>
		<polygon class="st0" points="1883.6,27.5 1888.9,27.5 1894.2,27.5 1899.6,27.5 1904.9,27.5 1910.2,27.5 1910.2,22.1 1904.9,22.1 
			1899.6,22.1 1894.2,22.1 1888.9,22.1 1883.6,22.1 1878.3,22.1 1872.9,22.1 1872.9,27.5 1878.3,27.5 		"/>
		<polygon class="st0" points="1990.1,22.1 1995.4,22.1 2000.7,22.1 2006.1,22.1 2006.1,16.8 2000.7,16.8 1995.4,16.8 1990.1,16.8 
			1984.8,16.8 1979.4,16.8 1979.4,22.1 1984.8,22.1 		"/>
		<polygon class="st2" points="1867.6,82.6 1872.9,82.6 1878.3,82.6 1883.6,82.6 1888.9,82.6 1894.2,82.6 1899.6,82.6 1904.9,82.6 
			1910.2,82.6 1915.5,82.6 1920.9,82.6 1926.2,82.6 1931.5,82.6 1936.8,82.6 1942.2,82.6 1947.5,82.6 1952.8,82.6 1958.1,82.6 
			1963.5,82.6 1968.8,82.6 1974.1,82.6 1979.4,82.6 1984.8,82.6 1990.1,82.6 1995.4,82.6 2000.7,82.6 2006.1,82.6 2011.4,82.6 
			2011.4,59.6 2011.4,54.2 2016.7,54.2 2016.7,48.9 2016.7,43.5 2016.7,38.2 2016.7,32.8 2011.4,32.8 2011.4,27.5 2006.1,27.5 
			2006.1,22.1 2000.7,22.1 1995.4,22.1 1990.1,22.1 1984.8,22.1 1979.4,22.1 1979.4,27.5 1974.1,27.5 1974.1,32.8 1968.8,32.8 
			1963.5,32.8 1963.5,27.5 1958.1,27.5 1952.8,27.5 1947.5,27.5 1942.2,27.5 1936.8,27.5 1936.8,32.8 1931.5,32.8 1931.5,38.2 
			1926.2,38.2 1926.2,43.5 1920.9,43.5 1915.5,43.5 1915.5,38.2 1910.2,38.2 1910.2,32.8 1910.2,27.5 1904.9,27.5 1899.6,27.5 
			1894.2,27.5 1888.9,27.5 1883.6,27.5 1878.3,27.5 1872.9,27.5 1872.9,32.8 1867.6,32.8 1867.6,38.2 1862.3,38.2 1862.3,43.5 
			1857,43.5 1857,48.9 1857,54.2 1857,59.6 1857,82.6 1862.3,82.6 		"/>
		<polygon class="st0" points="2160.4,48 2160.4,53.3 2165.8,53.3 2171.1,53.3 2171.1,48 2165.8,48 		"/>
		<polygon class="st0" points="2080.6,69.3 2080.6,74.7 2085.9,74.7 2091.2,74.7 2091.2,69.3 2085.9,69.3 		"/>
		<polygon class="st0" points="2139.2,64 2133.8,64 2128.5,64 2128.5,69.3 2133.8,69.3 2139.2,69.3 2144.5,69.3 2149.8,69.3 
			2149.8,64 2144.5,64 		"/>
		<polygon class="st0" points="2096.6,64 2091.2,64 2091.2,69.3 2096.6,69.3 2101.9,69.3 2107.2,69.3 2107.2,64 2101.9,64 		"/>
		<rect x="2203.1" y="58.7" class="st0" width="5.3" height="5.3"/>
		<rect x="2149.8" y="58.7" class="st0" width="5.3" height="5.3"/>
		<polygon class="st0" points="2123.2,58.7 2117.9,58.7 2112.5,58.7 2107.2,58.7 2107.2,64 2112.5,64 2117.9,64 2123.2,64 
			2128.5,64 2128.5,58.7 		"/>
		<polygon class="st0" points="2080.6,58.7 2075.3,58.7 2075.3,64 2075.3,69.3 2080.6,69.3 2080.6,64 		"/>
		<polygon class="st0" points="1793.1,58.7 1793.1,64 1798.4,64 1803.7,64 1803.7,58.7 1798.4,58.7 		"/>
		<polygon class="st0" points="2208.4,53.3 2208.4,58.7 2213.7,58.7 2219,58.7 2219,53.3 2213.7,53.3 		"/>
		<rect x="2197.7" y="53.3" class="st0" width="5.3" height="5.3"/>
		<rect x="2155.1" y="53.3" class="st0" width="5.3" height="5.3"/>
		<rect x="2069.9" y="53.3" class="st0" width="5.3" height="5.3"/>
		<polygon class="st0" points="2000.7,53.3 1995.4,53.3 1995.4,58.7 2000.7,58.7 2006.1,58.7 2011.4,58.7 2011.4,53.3 2006.1,53.3 
					"/>
		<polygon class="st0" points="1926.2,53.3 1920.9,53.3 1915.5,53.3 1910.2,53.3 1904.9,53.3 1899.6,53.3 1894.2,53.3 1894.2,58.7 
			1888.9,58.7 1883.6,58.7 1878.3,58.7 1872.9,58.7 1867.6,58.7 1862.3,58.7 1862.3,64 1867.6,64 1872.9,64 1878.3,64 1883.6,64 
			1888.9,64 1894.2,64 1899.6,64 1899.6,58.7 1904.9,58.7 1910.2,58.7 1915.5,58.7 1920.9,58.7 1926.2,58.7 1931.5,58.7 
			1936.8,58.7 1936.8,53.3 1931.5,53.3 		"/>
		<rect x="1857" y="53.3" class="st0" width="5.3" height="5.3"/>
		<polygon class="st0" points="1803.7,53.3 1803.7,58.7 1809.1,58.7 1814.4,58.7 1814.4,53.3 1809.1,53.3 		"/>
		<rect x="1787.8" y="53.3" class="st0" width="5.3" height="5.3"/>
		<polygon class="st0" points="2219,48 2219,53.3 2224.3,53.3 2229.7,53.3 2229.7,48 2224.3,48 		"/>
		<polygon class="st0" points="2192.4,48 2187.1,48 2187.1,53.3 2192.4,53.3 2197.7,53.3 2197.7,48 		"/>
		<polygon class="st0" points="2064.6,48 2059.3,48 2059.3,53.3 2064.6,53.3 2069.9,53.3 2069.9,48 		"/>
		<polygon class="st0" points="2011.4,48 2011.4,53.3 2016.7,53.3 2022,53.3 2022,48 2016.7,48 		"/>
		<polygon class="st0" points="1990.1,48 1984.8,48 1984.8,53.3 1990.1,53.3 1995.4,53.3 1995.4,48 		"/>
		<polygon class="st0" points="1936.8,48 1936.8,53.3 1942.2,53.3 1947.5,53.3 1947.5,48 1942.2,48 		"/>
		<polygon class="st0" points="1851.7,48 1846.3,48 1841,48 1835.7,48 1830.4,48 1825,48 1819.7,48 1814.4,48 1814.4,53.3 
			1819.7,53.3 1825,53.3 1830.4,53.3 1835.7,53.3 1841,53.3 1846.3,53.3 1851.7,53.3 1857,53.3 1857,48 		"/>
		<rect x="1782.4" y="48" class="st0" width="5.3" height="5.3"/>
		<polygon class="st0" points="2261.6,42.7 2256.3,42.7 2251,42.7 2245.6,42.7 2240.3,42.7 2235,42.7 2229.7,42.7 2229.7,48 
			2235,48 2240.3,48 2245.6,48 2251,48 2256.3,48 2261.6,48 2266.9,48 2266.9,42.7 		"/>
		<polygon class="st0" points="2181.8,42.7 2176.4,42.7 2171.1,42.7 2171.1,48 2176.4,48 2181.8,48 2187.1,48 2187.1,42.7 		"/>
		<polygon class="st0" points="2054,42.7 2048.6,42.7 2043.3,42.7 2038,42.7 2032.7,42.7 2027.3,42.7 2022,42.7 2022,48 2027.3,48 
			2032.7,48 2038,48 2043.3,48 2048.6,48 2054,48 2059.3,48 2059.3,42.7 		"/>
		<polygon class="st0" points="1979.4,42.7 1974.1,42.7 1968.8,42.7 1963.5,42.7 1958.1,42.7 1952.8,42.7 1947.5,42.7 1947.5,48 
			1952.8,48 1958.1,48 1963.5,48 1968.8,48 1974.1,48 1979.4,48 1984.8,48 1984.8,42.7 		"/>
		<polygon class="st0" points="1777.1,42.7 1771.8,42.7 1766.5,42.7 1761.1,42.7 1755.8,42.7 1750.5,42.7 1745.2,42.7 1745.2,48 
			1750.5,48 1755.8,48 1761.1,48 1766.5,48 1771.8,48 1777.1,48 1782.4,48 1782.4,42.7 		"/>
		<rect x="2506.5" y="69.3" class="st0" width="5.3" height="5.3"/>
		<rect x="2554.4" y="64" class="st0" width="5.3" height="5.3"/>
		<polygon class="st0" points="2511.8,64 2511.8,69.3 2517.2,69.3 2522.5,69.3 2522.5,64 2517.2,64 		"/>
		<rect x="2501.2" y="64" class="st0" width="5.3" height="5.3"/>
		<polygon class="st0" points="2549.1,58.7 2543.8,58.7 2538.5,58.7 2533.1,58.7 2527.8,58.7 2522.5,58.7 2522.5,64 2527.8,64 
			2533.1,64 2538.5,64 2543.8,64 2549.1,64 2554.4,64 2554.4,58.7 		"/>
		<polygon class="st0" points="2495.9,58.7 2490.6,58.7 2490.6,64 2495.9,64 2501.2,64 2501.2,58.7 		"/>
		<polygon class="st0" points="2634.3,53.3 2629,53.3 2629,58.7 2634.3,58.7 2639.6,58.7 2639.6,53.3 		"/>
		<polygon class="st0" points="2559.8,53.3 2559.8,58.7 2559.8,64 2565.1,64 2565.1,58.7 2570.4,58.7 2570.4,53.3 2565.1,53.3 		"/>
		<polygon class="st0" points="2485.2,53.3 2479.9,53.3 2474.6,53.3 2474.6,58.7 2479.9,58.7 2485.2,58.7 2490.6,58.7 2490.6,53.3 
					"/>
		<polygon class="st0" points="2421.3,53.3 2416,53.3 2416,58.7 2426.7,58.7 2426.7,53.3 		"/>
		<polygon class="st0" points="2442.6,53.3 2437.3,53.3 2432,53.3 2432,58.7 2442.6,58.7 2447.9,58.7 2453.3,58.7 2453.3,53.3 
			2447.9,53.3 		"/>
		<rect x="2426.7" y="58.7" class="st0" width="5.3" height="5.3"/>
		<polygon class="st0" points="2623.6,48 2618.3,48 2618.3,53.3 2623.6,53.3 2629,53.3 2629,48 		"/>
		<rect x="2570.4" y="48" class="st0" width="5.3" height="5.3"/>
		<polygon class="st0" points="2469.2,48 2463.9,48 2458.6,48 2453.3,48 2453.3,53.3 2458.6,53.3 2463.9,53.3 2469.2,53.3 
			2474.6,53.3 2474.6,48 		"/>
		<polygon class="st0" points="2410.7,48 2405.4,48 2405.4,53.3 2410.7,53.3 2416,53.3 2416,48 		"/>
		<rect x="2362.8" y="48" class="st0" width="5.3" height="5.3"/>
		<polygon class="st0" points="2613,42.7 2607.7,42.7 2602.4,42.7 2597,42.7 2591.7,42.7 2586.4,42.7 2581.1,42.7 2575.7,42.7 
			2575.7,48 2581.1,48 2586.4,48 2591.7,48 2597,48 2602.4,48 2607.7,48 2613,48 2618.3,48 2618.3,42.7 		"/>
		<polygon class="st0" points="2400,42.7 2394.7,42.7 2389.4,42.7 2384.1,42.7 2378.7,42.7 2373.4,42.7 2368.1,42.7 2368.1,48 
			2373.4,48 2378.7,48 2384.1,48 2389.4,48 2394.7,48 2400,48 2405.4,48 2405.4,42.7 		"/>
		<polygon class="st0" points="2357.4,42.7 2352.1,42.7 2352.1,48 2357.4,48 2362.8,48 2362.8,42.7 		"/>
		<polygon class="st0" points="2272.3,48 2266.9,48 2266.9,53.3 2272.3,53.3 2277.6,53.3 2282.9,53.3 2282.9,48 2277.6,48 		"/>
		<rect x="2282.9" y="42.7" class="st0" width="5.3" height="5.3"/>
		<polygon class="st0" points="2346.8,37.4 2341.5,37.4 2336.1,37.4 2336.1,42.7 2341.5,42.7 2346.8,42.7 2352.1,42.7 2352.1,37.4 
					"/>
		<polygon class="st0" points="2293.6,37.4 2288.2,37.4 2288.2,42.7 2293.6,42.7 2298.9,42.7 2304.2,42.7 2304.2,37.4 2298.9,37.4 
					"/>
		<polygon class="st0" points="2330.8,32 2325.5,32 2320.2,32 2314.9,32 2309.5,32 2304.2,32 2304.2,37.4 2309.5,37.4 2314.9,37.4 
			2320.2,37.4 2325.5,37.4 2330.8,37.4 2336.1,37.4 2336.1,32 		"/>
		<polygon class="st1" points="2634.3,58.7 2629,58.7 2629,53.3 2623.6,53.3 2618.3,53.3 2618.3,48 2613,48 2607.7,48 2602.4,48 
			2597,48 2591.7,48 2586.4,48 2581.1,48 2575.7,48 2575.7,53.3 2570.4,53.3 2570.4,58.7 2565.1,58.7 2565.1,64 2559.8,64 
			2559.8,69.3 2554.4,69.3 2554.4,64 2549.1,64 2543.8,64 2538.5,64 2533.1,64 2527.8,64 2522.5,64 2522.5,69.3 2517.2,69.3 
			2511.8,69.3 2511.8,74.7 2506.5,74.7 2506.5,69.3 2501.2,69.3 2501.2,64 2495.9,64 2490.6,64 2490.6,58.7 2485.2,58.7 
			2479.9,58.7 2474.6,58.7 2474.6,53.3 2469.2,53.3 2463.9,53.3 2458.6,53.3 2453.3,53.3 2453.3,58.7 2447.9,58.7 2442.6,58.7 
			2432,58.7 2432,64 2426.7,64 2426.7,58.7 2416,58.7 2416,53.3 2410.7,53.3 2405.4,53.3 2405.4,48 2400,48 2394.7,48 2389.4,48 
			2384.1,48 2378.7,48 2373.4,48 2368.1,48 2368.1,53.3 2362.8,53.3 2362.8,48 2357.4,48 2352.1,48 2352.1,42.7 2346.8,42.7 
			2341.5,42.7 2336.1,42.7 2336.1,37.4 2330.8,37.4 2325.5,37.4 2320.2,37.4 2314.9,37.4 2309.5,37.4 2304.2,37.4 2304.2,42.7 
			2298.9,42.7 2293.6,42.7 2288.2,42.7 2288.2,48 2282.9,48 2282.9,53.3 2277.6,53.3 2272.3,53.3 2266.9,53.3 2266.9,48 2261.6,48 
			2256.3,48 2251,48 2245.6,48 2240.3,48 2235,48 2229.7,48 2229.7,53.3 2224.3,53.3 2219,53.3 2219,58.7 2213.7,58.7 2208.4,58.7 
			2208.4,64 2203.1,64 2203.1,58.7 2197.7,58.7 2197.7,53.3 2192.4,53.3 2187.1,53.3 2187.1,48 2181.8,48 2176.4,48 2171.1,48 
			2171.1,53.3 2165.8,53.3 2160.4,53.3 2160.4,58.7 2155.1,58.7 2155.1,64 2149.8,64 2149.8,69.3 2144.5,69.3 2139.2,69.3 
			2133.8,69.3 2128.5,69.3 2128.5,64 2123.2,64 2117.9,64 2112.5,64 2107.2,64 2107.2,69.3 2101.9,69.3 2096.6,69.3 2091.2,69.3 
			2091.2,74.7 2085.9,74.7 2080.6,74.7 2080.6,69.3 2075.3,69.3 2075.3,64 2075.3,58.7 2069.9,58.7 2069.9,53.3 2064.6,53.3 
			2059.3,53.3 2059.3,48 2054,48 2048.6,48 2043.3,48 2038,48 2032.7,48 2027.3,48 2022,48 2022,53.3 2016.7,53.3 2011.4,53.3 
			2011.4,58.7 2006.1,58.7 2000.7,58.7 1995.4,58.7 1995.4,53.3 1990.1,53.3 1984.8,53.3 1984.8,48 1979.4,48 1974.1,48 1968.8,48 
			1963.5,48 1958.1,48 1952.8,48 1947.5,48 1947.5,53.3 1942.2,53.3 1936.8,53.3 1936.8,58.7 1931.5,58.7 1926.2,58.7 1920.9,58.7 
			1915.5,58.7 1910.2,58.7 1904.9,58.7 1899.6,58.7 1899.6,64 1894.2,64 1888.9,64 1883.6,64 1878.3,64 1872.9,64 1867.6,64 
			1862.3,64 1862.3,58.7 1857,58.7 1857,53.3 1851.7,53.3 1846.3,53.3 1841,53.3 1835.7,53.3 1830.4,53.3 1825,53.3 1819.7,53.3 
			1814.4,53.3 1814.4,58.7 1809.1,58.7 1803.7,58.7 1803.7,64 1798.4,64 1793.1,64 1793.1,58.7 1787.8,58.7 1787.8,53.3 
			1782.4,53.3 1782.4,48 1777.1,48 1771.8,48 1766.5,48 1761.1,48 1755.8,48 1750.5,48 1745.2,48 1745.2,53.3 1739.8,53.3 
			1734.5,53.3 1734.5,58.7 1729.2,58.7 1723.9,58.7 1723.9,64 1723.9,69.3 1723.9,74.7 1723.9,80 1723.9,85.3 1723.9,85.3 
			1723.9,90.6 1723.9,95.9 1723.9,101.3 1723.9,106.6 1723.9,111.9 1723.9,117.2 1723.9,122.6 1734.5,122.6 1739.8,122.6 
			1745.2,122.6 1750.5,122.6 1755.8,122.6 1761.1,122.6 1766.5,122.6 1771.8,122.6 1777.1,122.6 1782.4,122.6 1787.8,122.6 
			1793.1,122.6 1798.4,122.6 1803.7,122.6 1809.1,122.6 1814.4,122.6 1819.7,122.6 1825,122.6 1830.4,122.6 1835.7,122.6 
			1841,122.6 1846.3,122.6 1851.7,122.6 1857,122.6 1862.3,122.6 1867.6,122.6 1872.9,122.6 1878.3,122.6 1883.6,122.6 
			1888.9,122.6 1894.2,122.6 1899.6,122.6 1904.9,122.6 1910.2,122.6 1915.5,122.6 1920.9,122.6 1926.2,122.6 1931.5,122.6 
			1936.8,122.6 1942.2,122.6 1947.5,122.6 1952.8,122.6 1958.1,122.6 1963.5,122.6 1968.8,122.6 1974.1,122.6 1979.4,122.6 
			1984.8,122.6 1990.1,122.6 1995.4,122.6 2000.7,122.6 2006.1,122.6 2011.4,122.6 2016.7,122.6 2022,122.6 2027.3,122.6 
			2032.7,122.6 2038,122.6 2043.3,122.6 2048.6,122.6 2054,122.6 2059.3,122.6 2064.6,122.6 2069.9,122.6 2075.3,122.6 
			2080.6,122.6 2085.9,122.6 2091.2,122.6 2096.6,122.6 2101.9,122.6 2107.2,122.6 2112.5,122.6 2117.9,122.6 2123.2,122.6 
			2128.5,122.6 2133.8,122.6 2139.2,122.6 2144.5,122.6 2149.8,122.6 2155.1,122.6 2160.4,122.6 2165.8,122.6 2171.1,122.6 
			2176.4,122.6 2181.8,122.6 2187.1,122.6 2192.4,122.6 2197.7,122.6 2203.1,122.6 2208.4,122.6 2213.7,122.6 2219,122.6 
			2224.3,122.6 2229.7,122.6 2235,122.6 2240.3,122.6 2245.6,122.6 2251,122.6 2256.3,122.6 2261.6,122.6 2266.9,122.6 
			2272.3,122.6 2277.6,122.6 2282.9,122.6 2288.2,122.6 2293.6,122.6 2298.9,122.6 2304.2,122.6 2309.5,122.6 2314.9,122.6 
			2320.2,122.6 2325.5,122.6 2330.8,122.6 2336.1,122.6 2341.5,122.6 2346.8,122.6 2352.1,122.6 2357.4,122.6 2362.8,122.6 
			2368.1,122.6 2373.4,122.6 2378.7,122.6 2384.1,122.6 2389.4,122.6 2394.7,122.6 2400,122.6 2405.4,122.6 2410.7,122.6 
			2416,122.6 2421.3,122.6 2426.7,122.6 2432,122.6 2437.3,122.6 2442.6,122.6 2447.9,122.6 2453.3,122.6 2458.6,122.6 
			2463.9,122.6 2469.2,122.6 2474.6,122.6 2479.9,122.6 2485.2,122.6 2490.6,122.6 2495.9,122.6 2501.2,122.6 2506.5,122.6 
			2511.8,122.6 2517.2,122.6 2522.5,122.6 2527.8,122.6 2533.1,122.6 2538.5,122.6 2543.8,122.6 2549.1,122.6 2554.4,122.6 
			2559.8,122.6 2565.1,122.6 2570.4,122.6 2575.7,122.6 2581.1,122.6 2586.4,122.6 2591.7,122.6 2597,122.6 2602.4,122.6 
			2607.7,122.6 2613,122.6 2618.3,122.6 2639.6,122.6 2639.6,117.2 2639.6,111.9 2639.6,106.6 2639.6,101.3 2639.6,95.9 
			2639.6,90.6 2639.6,85.3 2639.6,80 2639.6,74.7 2639.6,69.3 2639.6,64 2639.6,58.7 		"/>
		<polygon class="st0" points="3273.2,64 3273.2,87 3278.5,87 3278.5,64 3278.5,58.6 3273.2,58.6 		"/>
		<polygon class="st0" points="3118.8,64 3118.8,58.6 3118.8,53.3 3118.8,47.9 3113.5,47.9 3113.5,53.3 3113.5,58.6 3113.5,64 
			3113.5,87 3118.8,87 		"/>
		<polygon class="st0" points="3182.7,47.9 3188,47.9 3188,42.6 3182.7,42.6 3177.4,42.6 3177.4,47.9 		"/>
		<rect x="3118.8" y="42.6" class="st0" width="5.3" height="5.3"/>
		<polygon class="st0" points="3278.5,47.9 3278.5,53.3 3278.5,58.6 3283.8,58.6 3283.8,53.3 3283.8,47.9 3283.8,42.6 3283.8,37.2 
			3278.5,37.2 3278.5,42.6 		"/>
		<rect x="3188" y="37.2" class="st0" width="5.3" height="5.3"/>
		<rect x="3124.1" y="37.2" class="st0" width="5.3" height="5.3"/>
		<rect x="3273.2" y="31.9" class="st0" width="5.3" height="5.4"/>
		<polygon class="st0" points="3230.6,37.2 3235.9,37.2 3235.9,31.9 3230.6,31.9 3225.3,31.9 3225.3,37.2 		"/>
		<rect x="3193.3" y="31.9" class="st0" width="5.3" height="5.4"/>
		<polygon class="st0" points="3172,42.6 3177.4,42.6 3177.4,37.2 3177.4,31.9 3172,31.9 3172,37.2 		"/>
		<rect x="3129.4" y="31.9" class="st0" width="5.3" height="5.4"/>
		<rect x="3267.9" y="26.5" class="st0" width="5.3" height="5.4"/>
		<rect x="3235.9" y="26.5" class="st0" width="5.3" height="5.4"/>
		<polygon class="st0" points="3209.3,31.9 3214.6,31.9 3219.9,31.9 3225.3,31.9 3225.3,26.5 3219.9,26.5 3214.6,26.5 3209.3,26.5 
			3204,26.5 3198.6,26.5 3198.6,31.9 3204,31.9 		"/>
		<polygon class="st0" points="3145.4,31.9 3150.7,31.9 3156.1,31.9 3161.4,31.9 3166.7,31.9 3172,31.9 3172,26.5 3166.7,26.5 
			3161.4,26.5 3156.1,26.5 3150.7,26.5 3145.4,26.5 3140.1,26.5 3134.8,26.5 3134.8,31.9 3140.1,31.9 		"/>
		<polygon class="st0" points="3251.9,26.5 3257.2,26.5 3262.5,26.5 3267.9,26.5 3267.9,21.2 3262.5,21.2 3257.2,21.2 3251.9,21.2 
			3246.6,21.2 3241.2,21.2 3241.2,26.5 3246.6,26.5 		"/>
		<polygon class="st2" points="3129.4,87 3134.8,87 3140.1,87 3145.4,87 3150.7,87 3156.1,87 3161.4,87 3166.7,87 3172,87 
			3177.4,87 3182.7,87 3188,87 3193.3,87 3198.6,87 3204,87 3209.3,87 3214.6,87 3219.9,87 3225.3,87 3230.6,87 3235.9,87 
			3241.2,87 3246.6,87 3251.9,87 3257.2,87 3262.5,87 3267.9,87 3273.2,87 3273.2,64 3273.2,58.6 3278.5,58.6 3278.5,53.3 
			3278.5,47.9 3278.5,42.6 3278.5,37.2 3273.2,37.2 3273.2,31.9 3267.9,31.9 3267.9,26.5 3262.5,26.5 3257.2,26.5 3251.9,26.5 
			3246.6,26.5 3241.2,26.5 3241.2,31.9 3235.9,31.9 3235.9,37.2 3230.6,37.2 3225.3,37.2 3225.3,31.9 3219.9,31.9 3214.6,31.9 
			3209.3,31.9 3204,31.9 3198.6,31.9 3198.6,37.2 3193.3,37.2 3193.3,42.6 3188,42.6 3188,47.9 3182.7,47.9 3177.4,47.9 
			3177.4,42.6 3172,42.6 3172,37.2 3172,31.9 3166.7,31.9 3161.4,31.9 3156.1,31.9 3150.7,31.9 3145.4,31.9 3140.1,31.9 
			3134.8,31.9 3134.8,37.2 3129.4,37.2 3129.4,42.6 3124.1,42.6 3124.1,47.9 3118.8,47.9 3118.8,53.3 3118.8,58.6 3118.8,64 
			3118.8,87 3124.1,87 		"/>
		<rect x="2868.6" y="59.6" class="st0" width="5.3" height="23"/>
		<polygon class="st0" points="2873.9,48.9 2873.9,54.2 2873.9,59.6 2879.2,59.6 2879.2,54.2 2879.2,48.9 2879.2,43.5 2879.2,38.2 
			2873.9,38.2 2873.9,43.5 		"/>
		<rect x="2868.6" y="32.8" class="st0" width="5.3" height="5.3"/>
		<polygon class="st0" points="2863.2,32.8 2868.6,32.8 2868.6,27.5 2863.2,27.5 2857.9,27.5 2857.9,32.8 		"/>
		<polygon class="st0" points="2847.3,27.5 2852.6,27.5 2857.9,27.5 2857.9,22.1 2852.6,22.1 2847.3,22.1 2841.9,22.1 2836.6,22.1 
			2836.6,27.5 2841.9,27.5 		"/>
		<rect x="2714.2" y="59.6" class="st0" width="5.3" height="23"/>
		<polygon class="st0" points="2788.7,43.5 2794,43.5 2794,38.2 2788.7,38.2 2783.4,38.2 2783.4,43.5 		"/>
		<polygon class="st0" points="2708.8,43.5 2708.8,48.9 2708.8,54.2 2708.8,59.6 2714.2,59.6 2714.2,54.2 2714.2,48.9 2714.2,43.5 
			2714.2,38.2 2708.8,38.2 		"/>
		<rect x="2826" y="32.8" class="st0" width="5.3" height="5.3"/>
		<rect x="2794" y="32.8" class="st0" width="5.3" height="5.3"/>
		<polygon class="st0" points="2778.1,38.2 2783.4,38.2 2783.4,32.8 2778.1,32.8 2772.7,32.8 2772.7,38.2 		"/>
		<rect x="2714.2" y="32.8" class="st0" width="5.3" height="5.3"/>
		<rect x="2831.3" y="27.5" class="st0" width="5.3" height="5.4"/>
		<polygon class="st0" points="2810,32.8 2815.3,32.8 2820.6,32.8 2826,32.8 2826,27.5 2820.6,27.5 2815.3,27.5 2810,27.5 
			2804.7,27.5 2799.4,27.5 2799.4,32.8 2804.7,32.8 		"/>
		<polygon class="st0" points="2762.1,32.8 2767.4,32.8 2772.7,32.8 2772.7,27.5 2767.4,27.5 2762.1,27.5 2756.8,27.5 2756.8,32.8 
					"/>
		<polygon class="st0" points="2724.8,27.5 2719.5,27.5 2719.5,32.8 2724.8,32.8 2730.1,32.8 2735.5,32.8 2735.5,27.5 2730.1,27.5 
					"/>
		<polygon class="st0" points="2751.4,22.1 2746.1,22.1 2740.8,22.1 2735.5,22.1 2735.5,27.5 2740.8,27.5 2746.1,27.5 2751.4,27.5 
			2756.8,27.5 2756.8,22.1 		"/>
		<polygon class="st2" points="2719.5,82.6 2724.8,82.6 2730.1,82.6 2735.5,82.6 2740.8,82.6 2746.1,82.6 2751.4,82.6 2756.8,82.6 
			2762.1,82.6 2767.4,82.6 2772.7,82.6 2778.1,82.6 2783.4,82.6 2788.7,82.6 2794,82.6 2799.4,82.6 2804.7,82.6 2810,82.6 
			2815.3,82.6 2820.6,82.6 2826,82.6 2831.3,82.6 2836.6,82.6 2841.9,82.6 2847.3,82.6 2852.6,82.6 2857.9,82.6 2863.2,82.6 
			2868.6,82.6 2868.6,59.6 2873.9,59.6 2873.9,54.2 2873.9,48.9 2873.9,43.5 2873.9,38.2 2868.6,38.2 2868.6,32.8 2863.2,32.8 
			2857.9,32.8 2857.9,27.5 2852.6,27.5 2847.3,27.5 2841.9,27.5 2836.6,27.5 2836.6,32.8 2831.3,32.8 2831.3,38.2 2826,38.2 
			2826,32.8 2820.6,32.8 2815.3,32.8 2810,32.8 2804.7,32.8 2799.4,32.8 2799.4,38.2 2794,38.2 2794,43.5 2788.7,43.5 2783.4,43.5 
			2783.4,38.2 2778.1,38.2 2772.7,38.2 2772.7,32.8 2767.4,32.8 2762.1,32.8 2756.8,32.8 2756.8,27.5 2751.4,27.5 2746.1,27.5 
			2740.8,27.5 2735.5,27.5 2735.5,32.8 2730.1,32.8 2724.8,32.8 2719.5,32.8 2719.5,38.2 2714.2,38.2 2714.2,43.5 2714.2,48.9 
			2714.2,54.2 2714.2,59.6 2719.5,59.6 		"/>
		<polygon class="st0" points="3049.6,48 3049.6,53.3 3044.3,53.3 3038.9,53.3 3038.9,48 3044.3,48 		"/>
		<polygon class="st0" points="3129.4,69.3 3129.4,74.7 3124.1,74.7 3118.8,74.7 3118.8,69.3 3124.1,69.3 		"/>
		<polygon class="st0" points="3070.9,64 3076.2,64 3081.5,64 3081.5,69.3 3076.2,69.3 3070.9,69.3 3065.6,69.3 3060.2,69.3 
			3060.2,64 3065.6,64 		"/>
		<polygon class="st0" points="3113.5,64 3118.8,64 3118.8,69.3 3113.5,69.3 3108.1,69.3 3102.8,69.3 3102.8,64 3108.1,64 		"/>
		<rect x="3001.7" y="58.7" class="st0" width="5.3" height="5.3"/>
		<rect x="3054.9" y="58.7" class="st0" width="5.3" height="5.3"/>
		<polygon class="st0" points="3086.9,58.7 3092.2,58.7 3097.5,58.7 3102.8,58.7 3102.8,64 3097.5,64 3092.2,64 3086.9,64 
			3081.5,64 3081.5,58.7 		"/>
		<polygon class="st0" points="3129.4,58.7 3134.8,58.7 3134.8,64 3134.8,69.3 3129.4,69.3 3129.4,64 		"/>
		<polygon class="st0" points="3416.9,58.7 3416.9,64 3411.6,64 3406.3,64 3406.3,58.7 3411.6,58.7 		"/>
		<polygon class="st0" points="3001.7,53.3 3001.7,58.7 2996.3,58.7 2991,58.7 2991,53.3 2996.3,53.3 		"/>
		<rect x="3007" y="53.3" class="st0" width="5.3" height="5.3"/>
		<rect x="3049.6" y="53.3" class="st0" width="5.3" height="5.3"/>
		<rect x="3134.8" y="53.3" class="st0" width="5.3" height="5.3"/>
		<polygon class="st0" points="3209.3,53.3 3214.6,53.3 3214.6,58.7 3209.3,58.7 3204,58.7 3198.6,58.7 3198.6,53.3 3204,53.3 		"/>
		<polygon class="st0" points="3283.8,53.3 3289.2,53.3 3294.5,53.3 3299.8,53.3 3305.1,53.3 3310.5,53.3 3315.8,53.3 3315.8,58.7 
			3321.1,58.7 3326.4,58.7 3331.8,58.7 3337.1,58.7 3342.4,58.7 3347.7,58.7 3347.7,64 3342.4,64 3337.1,64 3331.8,64 3326.4,64 
			3321.1,64 3315.8,64 3310.5,64 3310.5,58.7 3305.1,58.7 3299.8,58.7 3294.5,58.7 3289.2,58.7 3283.8,58.7 3278.5,58.7 
			3273.2,58.7 3273.2,53.3 3278.5,53.3 		"/>
		<rect x="3347.7" y="53.3" class="st0" width="5.3" height="5.3"/>
		<polygon class="st0" points="3406.3,53.3 3406.3,58.7 3401,58.7 3395.6,58.7 3395.6,53.3 3401,53.3 		"/>
		<rect x="3416.9" y="53.3" class="st0" width="5.3" height="5.3"/>
		<polygon class="st0" points="3486.2,53.3 3486.2,58.7 3480.8,58.7 3475.5,58.7 3475.5,53.3 3480.8,53.3 		"/>
		<polygon class="st0" points="3539.3,64 3539.3,69.3 3534,69.3 3528.7,69.3 3528.7,64 3534,64 		"/>
		<polygon class="st0" points="3550,69.3 3550,74.6 3544.7,74.6 3539.3,74.6 3539.3,69.3 3544.7,69.3 		"/>
		<polygon class="st0" points="2991,48 2991,53.3 2985.7,53.3 2980.4,53.3 2980.4,48 2985.7,48 		"/>
		<polygon class="st0" points="3017.6,48 3023,48 3023,53.3 3017.6,53.3 3012.3,53.3 3012.3,48 		"/>
		<polygon class="st0" points="3145.4,48 3150.7,48 3150.7,53.3 3145.4,53.3 3140.1,53.3 3140.1,48 		"/>
		<polygon class="st0" points="3198.6,48 3198.6,53.3 3193.3,53.3 3188,53.3 3188,48 3193.3,48 		"/>
		<polygon class="st0" points="3219.9,48 3225.3,48 3225.3,53.3 3219.9,53.3 3214.6,53.3 3214.6,48 		"/>
		<polygon class="st0" points="3273.2,48 3273.2,53.3 3267.9,53.3 3262.5,53.3 3262.5,48 3267.9,48 		"/>
		<polygon class="st0" points="3358.4,48 3363.7,48 3369,48 3374.4,48 3379.7,48 3385,48 3390.3,48 3395.6,48 3395.6,53.3 
			3390.3,53.3 3385,53.3 3379.7,53.3 3374.4,53.3 3369,53.3 3363.7,53.3 3358.4,53.3 3353.1,53.3 3353.1,48 		"/>
		<rect x="3422.3" y="48" class="st0" width="5.3" height="5.3"/>
		<rect x="3544.7" y="74.6" class="st0" width="5.3" height="5.3"/>
		<polygon class="st0" points="3475.5,48 3475.5,53.3 3470.2,53.3 3464.9,53.3 3464.9,48 3470.2,48 		"/>
		<polygon class="st0" points="2948.4,42.7 2953.7,42.7 2959.1,42.7 2964.4,42.7 2969.7,42.7 2975,42.7 2980.4,42.7 2980.4,48 
			2975,48 2969.7,48 2964.4,48 2959.1,48 2953.7,48 2948.4,48 2943.1,48 2943.1,42.7 		"/>
		<polygon class="st0" points="3028.3,42.7 3033.6,42.7 3038.9,42.7 3038.9,48 3033.6,48 3028.3,48 3023,48 3023,42.7 		"/>
		<polygon class="st0" points="3156.1,42.7 3161.4,42.7 3166.7,42.7 3172,42.7 3177.4,42.7 3182.7,42.7 3188,42.7 3188,48 
			3182.7,48 3177.4,48 3172,48 3166.7,48 3161.4,48 3156.1,48 3150.7,48 3150.7,42.7 		"/>
		<polygon class="st0" points="3230.6,42.7 3235.9,42.7 3241.2,42.7 3246.6,42.7 3251.9,42.7 3257.2,42.7 3262.5,42.7 3262.5,48 
			3257.2,48 3251.9,48 3246.6,48 3241.2,48 3235.9,48 3230.6,48 3225.3,48 3225.3,42.7 		"/>
		<polygon class="st0" points="3432.9,42.7 3438.2,42.7 3443.6,42.7 3448.9,42.7 3454.2,42.7 3459.5,42.7 3464.9,42.7 3464.9,48 
			3459.5,48 3454.2,48 3448.9,48 3443.6,48 3438.2,48 3432.9,48 3427.6,48 3427.6,42.7 		"/>
		<rect x="2698.2" y="69.3" class="st0" width="5.3" height="5.3"/>
		<rect x="2650.3" y="64" class="st0" width="5.3" height="5.3"/>
		<polygon class="st0" points="2698.2,64 2698.2,69.3 2692.9,69.3 2687.5,69.3 2687.5,64 2692.9,64 		"/>
		<rect x="2703.5" y="64" class="st0" width="5.3" height="5.3"/>
		<polygon class="st0" points="2660.9,58.7 2666.2,58.7 2671.6,58.7 2676.9,58.7 2682.2,58.7 2687.5,58.7 2687.5,64 2682.2,64 
			2676.9,64 2671.6,64 2666.2,64 2660.9,64 2655.6,64 2655.6,58.7 		"/>
		<polygon class="st0" points="2714.2,58.7 2719.5,58.7 2719.5,64 2714.2,64 2708.8,64 2708.8,58.7 		"/>
		<polygon class="st0" points="2650.3,53.3 2650.3,58.7 2650.3,64 2644.9,64 2644.9,58.7 2639.6,58.7 2639.6,53.3 2644.9,53.3 		"/>
		<polygon class="st0" points="2724.8,53.3 2730.1,53.3 2735.5,53.3 2735.5,58.7 2730.1,58.7 2724.8,58.7 2719.5,58.7 2719.5,53.3 
					"/>
		<polygon class="st0" points="2788.7,53.3 2794,53.3 2794,58.7 2783.4,58.7 2783.4,53.3 		"/>
		<polygon class="st0" points="2767.4,53.3 2772.7,53.3 2778.1,53.3 2778.1,58.7 2767.4,58.7 2762.1,58.7 2756.8,58.7 2756.8,53.3 
			2762.1,53.3 		"/>
		<rect x="2778.1" y="58.7" class="st0" width="5.3" height="5.3"/>
		<rect x="2634.3" y="48" class="st0" width="5.3" height="5.3"/>
		<polygon class="st0" points="2740.8,48 2746.1,48 2751.4,48 2756.8,48 2756.8,53.3 2751.4,53.3 2746.1,53.3 2740.8,53.3 
			2735.5,53.3 2735.5,48 		"/>
		<polygon class="st0" points="2799.4,48 2804.7,48 2804.7,53.3 2799.4,53.3 2794,53.3 2794,48 		"/>
		<rect x="2841.9" y="48" class="st0" width="5.3" height="5.3"/>
		<polygon class="st0" points="2597,42.7 2602.4,42.7 2607.7,42.7 2613,42.7 2618.3,42.7 2623.6,42.7 2629,42.7 2634.3,42.7 
			2634.3,48 2629,48 2623.6,48 2618.3,48 2613,48 2607.7,48 2602.4,48 2597,48 2591.7,48 2591.7,42.7 		"/>
		<polygon class="st0" points="2810,42.7 2815.3,42.7 2820.6,42.7 2826,42.7 2831.3,42.7 2836.6,42.7 2841.9,42.7 2841.9,48 
			2836.6,48 2831.3,48 2826,48 2820.6,48 2815.3,48 2810,48 2804.7,48 2804.7,42.7 		"/>
		<polygon class="st0" points="2852.6,42.7 2857.9,42.7 2857.9,48 2852.6,48 2847.3,48 2847.3,42.7 		"/>
		<polygon class="st0" points="2937.8,48 2943.1,48 2943.1,53.3 2937.8,53.3 2932.4,53.3 2927.1,53.3 2927.1,48 2932.4,48 		"/>
		<rect x="2921.8" y="42.7" class="st0" width="5.3" height="5.3"/>
		<polygon class="st0" points="2863.2,37.4 2868.6,37.4 2873.9,37.4 2873.9,42.7 2868.6,42.7 2863.2,42.7 2857.9,42.7 2857.9,37.4 
					"/>
		<polygon class="st0" points="2916.5,37.4 2921.8,37.4 2921.8,42.7 2916.5,42.7 2911.1,42.7 2905.8,42.7 2905.8,37.4 2911.1,37.4 
					"/>
		<polygon class="st0" points="2879.2,32 2884.5,32 2889.9,32 2895.2,32 2900.5,32 2905.8,32 2905.8,37.4 2900.5,37.4 2895.2,37.4 
			2889.9,37.4 2884.5,37.4 2879.2,37.4 2873.9,37.4 2873.9,32 		"/>
		<polygon class="st1" points="2575.7,58.7 2581.1,58.7 2581.1,53.3 2586.4,53.3 2591.7,53.3 2591.7,48 2597,48 2602.4,48 
			2607.7,48 2613,48 2618.3,48 2623.6,48 2629,48 2634.3,48 2634.3,53.3 2639.6,53.3 2639.6,58.7 2644.9,58.7 2644.9,64 2650.3,64 
			2650.3,69.3 2655.6,69.3 2655.6,64 2660.9,64 2666.2,64 2671.6,64 2676.9,64 2682.2,64 2687.5,64 2687.5,69.3 2692.9,69.3 
			2698.2,69.3 2698.2,74.7 2703.5,74.7 2703.5,69.3 2708.8,69.3 2708.8,64 2714.2,64 2719.5,64 2719.5,58.7 2724.8,58.7 
			2730.1,58.7 2735.5,58.7 2735.5,53.3 2740.8,53.3 2746.1,53.3 2751.4,53.3 2756.8,53.3 2756.8,58.7 2762.1,58.7 2767.4,58.7 
			2778.1,58.7 2778.1,64 2783.4,64 2783.4,58.7 2794,58.7 2794,53.3 2799.4,53.3 2804.7,53.3 2804.7,48 2810,48 2815.3,48 
			2820.6,48 2826,48 2831.3,48 2836.6,48 2841.9,48 2841.9,53.3 2847.3,53.3 2847.3,48 2852.6,48 2857.9,48 2857.9,42.7 
			2863.2,42.7 2868.6,42.7 2873.9,42.7 2873.9,37.4 2879.2,37.4 2884.5,37.4 2889.9,37.4 2895.2,37.4 2900.5,37.4 2905.8,37.4 
			2905.8,42.7 2911.1,42.7 2916.5,42.7 2921.8,42.7 2921.8,48 2927.1,48 2927.1,53.3 2932.4,53.3 2937.8,53.3 2943.1,53.3 
			2943.1,48 2948.4,48 2953.7,48 2959.1,48 2964.4,48 2969.7,48 2975,48 2980.4,48 2980.4,53.3 2985.7,53.3 2991,53.3 2991,58.7 
			2996.3,58.7 3001.7,58.7 3001.7,64 3007,64 3007,58.7 3012.3,58.7 3012.3,53.3 3017.6,53.3 3023,53.3 3023,48 3028.3,48 
			3033.6,48 3038.9,48 3038.9,53.3 3044.3,53.3 3049.6,53.3 3049.6,58.7 3054.9,58.7 3054.9,64 3060.2,64 3060.2,69.3 3065.6,69.3 
			3070.9,69.3 3076.2,69.3 3081.5,69.3 3081.5,64 3086.9,64 3092.2,64 3097.5,64 3102.8,64 3102.8,69.3 3108.1,69.3 3113.5,69.3 
			3118.8,69.3 3118.8,74.7 3124.1,74.7 3129.4,74.7 3129.4,69.3 3134.8,69.3 3134.8,64 3134.8,58.7 3140.1,58.7 3140.1,53.3 
			3145.4,53.3 3150.7,53.3 3150.7,48 3156.1,48 3161.4,48 3166.7,48 3172,48 3177.4,48 3182.7,48 3188,48 3188,53.3 3193.3,53.3 
			3198.6,53.3 3198.6,58.7 3204,58.7 3209.3,58.7 3214.6,58.7 3214.6,53.3 3219.9,53.3 3225.3,53.3 3225.3,48 3230.6,48 3235.9,48 
			3241.2,48 3246.6,48 3251.9,48 3257.2,48 3262.5,48 3262.5,53.3 3267.9,53.3 3273.2,53.3 3273.2,58.7 3278.5,58.7 3283.8,58.7 
			3289.2,58.7 3294.5,58.7 3299.8,58.7 3305.1,58.7 3310.5,58.7 3310.5,64 3315.8,64 3321.1,64 3326.4,64 3331.8,64 3337.1,64 
			3342.4,64 3347.7,64 3347.7,58.7 3353.1,58.7 3353.1,53.3 3358.4,53.3 3363.7,53.3 3369,53.3 3374.4,53.3 3379.7,53.3 3385,53.3 
			3390.3,53.3 3395.6,53.3 3395.6,58.7 3401,58.7 3406.3,58.7 3406.3,64 3411.6,64 3416.9,64 3416.9,58.7 3422.3,58.7 3422.3,53.3 
			3427.6,53.3 3427.6,48 3432.9,48 3438.2,48 3443.6,48 3448.9,48 3454.2,48 3459.5,48 3464.9,48 3464.9,53.3 3470.2,53.3 
			3475.5,53.3 3475.5,58.7 3480.8,58.7 3486.2,58.7 3486.2,64 3486.2,69.3 3486.2,74.7 3486.2,80 3486.2,85.3 3486.2,85.3 
			3486.2,90.6 3486.2,95.9 3486.2,101.3 3486.2,106.6 3486.2,111.9 3486.2,117.2 3486.2,122.6 3475.5,122.6 3470.2,122.6 
			3464.9,122.6 3459.5,122.6 3454.2,122.6 3448.9,122.6 3443.6,122.6 3438.2,122.6 3432.9,122.6 3427.6,122.6 3422.3,122.6 
			3416.9,122.6 3411.6,122.6 3406.3,122.6 3401,122.6 3395.6,122.6 3390.3,122.6 3385,122.6 3379.7,122.6 3374.4,122.6 3369,122.6 
			3363.7,122.6 3358.4,122.6 3353.1,122.6 3347.7,122.6 3342.4,122.6 3337.1,122.6 3331.8,122.6 3326.4,122.6 3321.1,122.6 
			3315.8,122.6 3310.5,122.6 3305.1,122.6 3299.8,122.6 3294.5,122.6 3289.2,122.6 3283.8,122.6 3278.5,122.6 3273.2,122.6 
			3267.9,122.6 3262.5,122.6 3257.2,122.6 3251.9,122.6 3246.6,122.6 3241.2,122.6 3235.9,122.6 3230.6,122.6 3225.3,122.6 
			3219.9,122.6 3214.6,122.6 3209.3,122.6 3204,122.6 3198.6,122.6 3193.3,122.6 3188,122.6 3182.7,122.6 3177.4,122.6 3172,122.6 
			3166.7,122.6 3161.4,122.6 3156.1,122.6 3150.7,122.6 3145.4,122.6 3140.1,122.6 3134.8,122.6 3129.4,122.6 3124.1,122.6 
			3118.8,122.6 3113.5,122.6 3108.1,122.6 3102.8,122.6 3097.5,122.6 3092.2,122.6 3086.9,122.6 3081.5,122.6 3076.2,122.6 
			3070.9,122.6 3065.6,122.6 3060.2,122.6 3054.9,122.6 3049.6,122.6 3044.3,122.6 3038.9,122.6 3033.6,122.6 3028.3,122.6 
			3023,122.6 3017.6,122.6 3012.3,122.6 3007,122.6 3001.7,122.6 2996.3,122.6 2991,122.6 2985.7,122.6 2980.4,122.6 2975,122.6 
			2969.7,122.6 2964.4,122.6 2959.1,122.6 2953.7,122.6 2948.4,122.6 2943.1,122.6 2937.8,122.6 2932.4,122.6 2927.1,122.6 
			2921.8,122.6 2916.5,122.6 2911.1,122.6 2905.8,122.6 2900.5,122.6 2895.2,122.6 2889.9,122.6 2884.5,122.6 2879.2,122.6 
			2873.9,122.6 2868.6,122.6 2863.2,122.6 2857.9,122.6 2852.6,122.6 2847.3,122.6 2841.9,122.6 2836.6,122.6 2831.3,122.6 
			2826,122.6 2820.6,122.6 2815.3,122.6 2810,122.6 2804.7,122.6 2799.4,122.6 2794,122.6 2788.7,122.6 2783.4,122.6 2778.1,122.6 
			2772.7,122.6 2767.4,122.6 2762.1,122.6 2756.8,122.6 2751.4,122.6 2746.1,122.6 2740.8,122.6 2735.5,122.6 2730.1,122.6 
			2724.8,122.6 2719.5,122.6 2714.2,122.6 2708.8,122.6 2703.5,122.6 2698.2,122.6 2692.9,122.6 2687.5,122.6 2682.2,122.6 
			2676.9,122.6 2671.6,122.6 2666.2,122.6 2660.9,122.6 2655.6,122.6 2650.3,122.6 2644.9,122.6 2639.6,122.6 2634.3,122.6 
			2629,122.6 2623.6,122.6 2618.3,122.6 2613,122.6 2607.7,122.6 2602.4,122.6 2597,122.6 2591.7,122.6 2570.4,122.6 2570.4,117.2 
			2570.4,111.9 2570.4,106.6 2570.4,101.3 2570.4,95.9 2570.4,90.6 2570.4,85.3 2570.4,80 2570.4,74.7 2570.4,69.3 2570.4,64 
			2570.4,58.7 		"/>
	</g>
</g>
<polygon class="st1" points="3550.1,42.7 3550,42.7 3550,48 3539.3,48 3539.3,53.4 3528.7,53.4 3528.7,117.2 3550.1,117.2 "/>
<polygon class="st0" points="3539.4,47.9 3539.4,53.3 3536.6,53.3 3534,53.3 3534,47.9 3536.6,47.9 "/>
<polygon class="st0" points="3550,42.7 3550,48.1 3544.6,48.1 3539.3,48.1 3539.3,42.7 3544.6,42.7 "/>
<rect x="3528.7" y="53.3" class="st0" width="5.3" height="5.3"/>
</svg>
