<svg xmlns="http://www.w3.org/2000/svg" viewBox="0 0 109.69 101.26"><defs><style>.cls-1{fill:#4cb9b3;}.cls-2{fill:#8dd2bd;}.cls-3{fill:#ceecdb;}.cls-4{fill:#0d0b16;}.cls-5{fill:#317c80;}</style></defs><g id="Layer_2" data-name="Layer 2"><g id="Icons"><g id="Level_4" data-name="Level 4"><g id="Ecto"><g id="Brain"><g id="Brain-Base"><polygon class="cls-1" points="80.16 50.63 80.16 46.41 75.94 46.41 75.94 50.63 71.72 50.63 71.72 54.85 67.5 54.85 63.28 54.85 59.07 54.85 54.85 54.85 50.63 54.85 46.41 54.85 42.19 54.85 37.97 54.85 37.97 50.63 33.75 50.63 33.75 46.41 29.53 46.41 25.31 46.41 25.31 50.63 21.09 50.63 21.09 54.85 16.88 54.85 16.88 59.07 16.88 63.28 21.09 63.28 21.09 67.5 25.31 67.5 25.31 71.72 25.31 75.94 29.53 75.94 33.75 75.94 37.97 75.94 42.19 75.94 46.41 75.94 50.63 75.94 54.85 75.94 54.85 71.72 59.07 71.72 59.07 67.5 63.28 67.5 63.28 63.28 67.5 63.28 71.72 63.28 75.94 63.28 80.16 63.28 80.16 59.07 84.38 59.07 84.38 54.85 80.16 54.85 80.16 50.63"/><polygon class="cls-2" points="33.75 37.97 29.53 37.97 25.31 37.97 21.09 37.97 16.88 37.97 12.66 37.97 12.66 42.19 8.44 42.19 4.22 42.19 4.22 46.41 4.22 50.63 4.22 54.85 4.22 59.07 4.22 63.28 8.44 63.28 8.44 67.5 12.66 67.5 12.66 71.72 16.88 71.72 21.09 71.72 25.31 71.72 25.31 67.5 21.09 67.5 21.09 63.28 16.88 63.28 16.88 59.07 16.88 54.85 21.09 54.85 21.09 50.63 25.31 50.63 25.31 46.41 29.53 46.41 33.75 46.41 33.75 42.19 33.75 37.97"/><polyline class="cls-2" points="63.28 54.85 67.5 54.85 71.72 54.85 71.72 50.63 75.94 50.63 75.94 46.41 80.16 46.41 80.16 42.19 84.38 42.19 84.38 37.97 88.6 37.97 92.82 37.97 92.82 42.19 97.04 42.19 97.04 46.41 101.25 46.41 101.25 50.63 105.47 50.63 105.47 46.41 105.47 42.19 105.47 37.97 105.47 33.75 105.47 29.53 105.47 25.31 101.25 25.31 101.25 21.09 97.04 21.09 97.04 16.88 92.82 16.88 92.82 12.66 88.6 12.66 84.38 12.66 84.38 8.44 80.16 8.44 80.16 4.22 75.94 4.22 71.72 4.22 67.5 4.22 63.28 4.22 63.28 8.44 67.5 8.44 67.5 12.66 67.5 16.88 63.28 16.88 63.28 21.09 59.07 21.09 59.07 25.31 54.85 25.31 50.63 25.31 50.63 29.53 46.41 29.53 46.41 33.75 46.41 37.97 42.19 37.97 42.19 42.19 37.97 42.19 37.97 46.41 33.75 46.41 33.75 50.63 37.97 50.63 37.97 54.85 42.19 54.85 46.41 54.85 50.63 54.85"/><polygon class="cls-3" points="63.28 4.22 59.07 4.22 54.85 4.22 50.63 4.22 46.41 4.22 42.19 4.22 37.97 4.22 37.97 8.44 33.75 8.44 29.53 8.44 25.31 8.44 25.31 12.66 21.09 12.66 16.88 12.66 16.88 16.88 16.88 21.09 12.66 21.09 12.66 25.31 8.44 25.31 8.44 29.53 4.22 29.53 4.22 33.75 4.22 37.97 4.22 42.19 8.44 42.19 12.66 42.19 12.66 37.97 16.88 37.97 21.09 37.97 25.31 37.97 29.53 37.97 33.75 37.97 33.75 42.19 33.75 46.41 37.97 46.41 37.97 42.19 42.19 42.19 42.19 37.97 46.41 37.97 46.41 33.75 46.41 29.53 50.63 29.53 50.63 25.31 54.85 25.31 59.07 25.31 59.07 21.09 63.28 21.09 63.28 16.88 67.5 16.88 67.5 12.66 67.5 8.44 63.28 8.44 63.28 4.22"/><polygon class="cls-4" points="84.38 97.04 80.16 97.04 75.94 97.04 71.72 97.04 71.72 101.25 75.94 101.25 80.16 101.25 84.38 101.25 88.6 101.25 92.82 101.25 92.82 97.04 88.6 97.04 84.38 97.04"/><polygon class="cls-4" points="71.72 88.6 67.5 88.6 67.5 92.82 67.5 97.04 71.72 97.04 71.72 92.82 71.72 88.6"/><polygon class="cls-4" points="67.5 80.16 63.28 80.16 59.07 80.16 54.85 80.16 54.85 84.38 59.07 84.38 63.28 84.38 63.28 88.6 67.5 88.6 67.5 84.38 67.5 80.16"/><polygon class="cls-4" points="92.82 80.16 92.82 84.38 92.82 88.6 92.82 92.82 92.82 97.04 97.04 97.04 97.04 92.82 97.04 88.6 97.04 84.38 97.04 80.16 97.04 75.94 92.82 75.94 92.82 80.16"/><rect class="cls-4" x="97.04" y="71.72" width="4.22" height="4.22"/><polygon class="cls-4" points="50.63 75.94 46.41 75.94 42.19 75.94 37.97 75.94 33.75 75.94 29.53 75.94 25.31 75.94 25.31 80.16 29.53 80.16 33.75 80.16 37.97 80.16 42.19 80.16 46.41 80.16 50.63 80.16 54.85 80.16 54.85 75.94 50.63 75.94"/><polygon class="cls-4" points="25.31 75.94 25.31 71.72 21.09 71.72 16.88 71.72 12.66 71.72 12.66 75.94 16.88 75.94 21.09 75.94 25.31 75.94"/><polygon class="cls-4" points="8.44 67.5 8.44 63.28 4.22 63.28 4.22 67.5 4.22 71.72 8.44 71.72 12.66 71.72 12.66 67.5 8.44 67.5"/><polygon class="cls-4" points="101.25 67.5 101.25 71.72 105.47 71.72 105.47 67.5 105.47 63.28 101.25 63.28 101.25 67.5"/><polygon class="cls-4" points="4.22 54.85 4.22 50.63 4.22 46.41 4.22 42.19 4.22 37.97 4.22 33.75 4.22 29.53 0 29.53 0 33.75 0 37.97 0 42.19 0 46.41 0 50.63 0 54.85 0 59.07 0 63.28 4.22 63.28 4.22 59.07 4.22 54.85"/><polygon class="cls-4" points="105.47 33.75 105.47 37.97 105.47 42.19 105.47 46.41 105.47 50.63 105.47 54.85 105.47 59.07 105.47 63.28 109.69 63.28 109.69 59.07 109.69 54.85 109.69 50.63 109.69 46.41 109.69 42.19 109.69 37.97 109.69 33.75 109.69 29.53 109.69 25.31 105.47 25.31 105.47 29.53 105.47 33.75"/><rect class="cls-4" x="4.22" y="25.31" width="4.22" height="4.22"/><rect class="cls-4" x="101.26" y="21.09" width="4.22" height="4.22"/><rect class="cls-4" x="8.44" y="21.09" width="4.22" height="4.22"/><rect class="cls-4" x="97.04" y="16.88" width="4.22" height="4.22"/><polygon class="cls-4" points="16.88 16.88 16.88 12.66 12.66 12.66 12.66 16.88 12.66 21.09 16.88 21.09 16.88 16.88"/><rect class="cls-4" x="92.82" y="12.66" width="4.22" height="4.22"/><polygon class="cls-4" points="88.6 12.66 92.82 12.66 92.82 8.44 88.6 8.44 84.38 8.44 84.38 12.66 88.6 12.66"/><polygon class="cls-4" points="25.31 12.66 25.31 8.44 21.09 8.44 16.88 8.44 16.88 12.66 21.09 12.66 25.31 12.66"/><rect class="cls-4" x="80.16" y="4.22" width="4.22" height="4.22"/><polygon class="cls-4" points="33.75 8.44 37.97 8.44 37.97 4.22 33.75 4.22 29.53 4.22 25.31 4.22 25.31 8.44 29.53 8.44 33.75 8.44"/><polygon class="cls-4" points="46.41 4.22 50.63 4.22 54.85 4.22 59.07 4.22 63.28 4.22 67.5 4.22 71.72 4.22 75.94 4.22 80.16 4.22 80.16 0 75.94 0 71.72 0 67.5 0 63.28 0 59.07 0 54.85 0 50.63 0 46.41 0 42.19 0 37.97 0 37.97 4.22 42.19 4.22 46.41 4.22"/><polygon class="cls-5" points="101.25 46.41 97.04 46.41 97.04 42.19 92.82 42.19 92.82 37.97 88.6 37.97 84.38 37.97 84.38 42.19 80.16 42.19 80.16 46.41 80.16 50.63 80.16 54.85 84.38 54.85 84.38 59.07 80.16 59.07 80.16 63.28 75.94 63.28 71.72 63.28 67.5 63.28 63.28 63.28 63.28 67.5 59.07 67.5 59.07 71.72 54.85 71.72 54.85 75.94 54.85 80.16 59.07 80.16 63.28 80.16 67.5 80.16 67.5 84.38 67.5 88.6 71.72 88.6 71.72 92.82 71.72 97.04 75.94 97.04 80.16 97.04 84.38 97.04 88.6 97.04 92.82 97.04 92.82 92.82 92.82 88.6 92.82 84.38 92.82 80.16 92.82 75.94 97.04 75.94 97.04 71.72 101.25 71.72 101.25 67.5 101.25 63.28 105.47 63.28 105.47 59.07 105.47 54.85 105.47 50.63 101.25 50.63 101.25 46.41"/></g></g></g></g></g></g></svg>