<svg xmlns="http://www.w3.org/2000/svg" viewBox="0 0 136.93 107.89"><defs><style>.cls-1{fill:#100e1a;}.cls-2{fill:#4cb9b3;}.cls-3{fill:#8dd2bd;}.cls-4{fill:#ceecdb;}.cls-5{fill:#0d0b16;}.cls-6{fill:#317c80;}</style></defs><g id="Layer_2" data-name="Layer 2"><g id="Icons"><g id="Level_2" data-name="Level 2"><g id="Ecotderm"><g id="Ecotderm-Base"><rect class="cls-1" x="91.29" y="4.15" width="4.15" height="4.15"/><path class="cls-2" d="M95.44,16.6h-8.3V12.45H49.79V16.6H45.64v4.15H37.35V24.9H33.2V45.64h4.15v8.3h4.14v4.15h4.15v4.15h4.15v4.15h8.3v4.15h16.6V66.39H87.14V62.24h4.15V58.09h4.15V53.94h4.15V20.75H95.44Z"/><polygon class="cls-3" points="128.63 41.49 128.63 45.64 128.63 49.79 128.63 53.94 124.48 53.94 124.48 58.09 124.48 62.24 120.33 62.24 120.33 66.39 120.33 70.54 116.19 70.54 116.19 74.69 112.03 74.69 112.03 78.84 107.89 78.84 107.89 82.99 103.74 82.99 99.59 82.99 99.59 87.14 95.44 87.14 91.29 87.14 91.29 91.29 87.14 91.29 82.99 91.29 78.84 91.29 74.69 91.29 70.54 91.29 66.39 91.29 62.24 91.29 58.09 91.29 53.94 91.29 49.79 91.29 45.64 91.29 45.64 87.14 41.49 87.14 37.34 87.14 37.34 82.99 33.2 82.99 29.05 82.99 29.05 78.84 24.9 78.84 24.9 74.69 20.75 74.69 20.75 70.54 16.6 70.54 16.6 66.39 16.6 62.24 12.45 62.24 12.45 58.09 12.45 53.94 8.3 53.94 8.3 49.79 8.3 45.64 8.3 41.49 4.15 41.49 4.15 45.64 4.15 49.79 4.15 53.94 4.15 58.09 4.15 62.24 4.15 66.39 8.3 66.39 8.3 70.54 8.3 74.69 12.45 74.69 12.45 78.84 12.45 82.99 16.6 82.99 16.6 87.14 20.75 87.14 20.75 91.29 24.9 91.29 29.05 91.29 29.05 95.44 33.2 95.44 37.34 95.44 37.34 99.59 41.49 99.59 45.64 99.59 49.79 99.59 49.79 103.74 53.94 103.74 58.09 103.74 62.24 103.74 66.39 103.74 70.54 103.74 74.69 103.74 78.84 103.74 82.99 103.74 87.14 103.74 87.14 99.59 91.29 99.59 95.44 99.59 99.59 99.59 99.59 95.44 103.74 95.44 107.89 95.44 107.89 91.29 112.03 91.29 112.03 87.14 116.19 87.14 120.33 87.14 120.33 82.99 120.33 78.84 124.48 78.84 124.48 74.69 128.63 74.69 128.63 70.54 132.78 70.54 132.78 66.39 132.78 62.24 132.78 58.09 132.78 53.94 132.78 49.79 132.78 45.64 132.78 41.49 132.78 37.34 128.63 37.34 128.63 41.49"/><path class="cls-4" d="M124.48,24.9h-4.15V20.75h-4.15V16.6H112V12.45h-8.3V8.3H91.29V4.15H49.79V8.3H37.35v4.15h-8.3V16.6h-8.3v4.15H16.6V24.9H12.45v8.3H8.3V53.94h4.15v8.3H16.6v8.3h4.15v4.15H24.9v4.15h4.15V83h8.3v4.15h8.29v4.15H91.29V87.14h8.3V83h8.3V78.84H112V74.69h4.14V70.54h4.15v-8.3h4.15v-8.3h4.15V29.05h-4.15ZM107.89,37.35V58.09h-4.15v8.3H99.59v4.15H95.44v4.15h-8.3v4.15H49.79V74.69h-8.3V70.54H37.35V66.39H33.2V62.24H29.05v-29H33.2V24.9h4.15V20.75h8.29V16.6h4.15V12.45H87.14V16.6h8.3v4.15h4.15V24.9h4.15v8.3h4.15Z"/><polygon class="cls-5" points="78.84 103.74 74.69 103.74 70.54 103.74 66.39 103.74 62.24 103.74 58.09 103.74 53.94 103.74 49.79 103.74 49.79 107.89 53.94 107.89 58.09 107.89 62.24 107.89 66.39 107.89 70.54 107.89 74.69 107.89 78.84 107.89 82.99 107.89 87.14 107.89 87.14 103.74 82.99 103.74 78.84 103.74"/><polygon class="cls-5" points="91.29 99.59 87.14 99.59 87.14 103.74 91.29 103.74 95.44 103.74 99.59 103.74 99.59 99.59 95.44 99.59 91.29 99.59"/><polygon class="cls-5" points="45.64 99.59 41.49 99.59 37.34 99.59 37.34 103.74 41.49 103.74 45.64 103.74 49.79 103.74 49.79 99.59 45.64 99.59"/><polygon class="cls-5" points="99.59 95.44 99.59 99.59 103.74 99.59 107.89 99.59 107.89 95.44 103.74 95.44 99.59 95.44"/><polygon class="cls-5" points="33.2 95.44 29.05 95.44 29.05 99.59 33.2 99.59 37.34 99.59 37.34 95.44 33.2 95.44"/><polygon class="cls-5" points="24.9 91.29 20.75 91.29 20.75 95.44 24.9 95.44 29.05 95.44 29.05 91.29 24.9 91.29"/><rect class="cls-5" x="16.6" y="87.14" width="4.15" height="4.15"/><polygon class="cls-5" points="112.03 87.14 112.03 91.29 107.89 91.29 107.89 95.44 112.03 95.44 116.19 95.44 116.19 91.29 120.33 91.29 120.33 87.14 116.19 87.14 112.03 87.14"/><rect class="cls-5" x="12.45" y="82.99" width="4.15" height="4.15"/><polygon class="cls-5" points="124.48 78.84 120.33 78.84 120.33 82.99 120.33 87.14 124.48 87.14 124.48 82.99 128.63 82.99 128.63 78.84 128.63 74.69 124.48 74.69 124.48 78.84"/><polygon class="cls-5" points="12.45 74.69 8.3 74.69 8.3 78.84 8.3 82.99 12.45 82.99 12.45 78.84 12.45 74.69"/><rect class="cls-5" x="128.63" y="70.54" width="4.15" height="4.15"/><polygon class="cls-5" points="8.3 66.39 4.15 66.39 4.15 70.54 4.15 74.69 8.3 74.69 8.3 70.54 8.3 66.39"/><polygon class="cls-5" points="4.15 58.09 4.15 53.94 4.15 49.79 4.15 45.64 4.15 41.49 0 41.49 0 45.64 0 49.79 0 53.94 0 58.09 0 62.24 0 66.39 4.15 66.39 4.15 62.24 4.15 58.09"/><polygon class="cls-5" points="132.78 41.49 132.78 45.64 132.78 49.79 132.78 53.94 132.78 58.09 132.78 62.24 132.78 66.39 132.78 70.54 136.93 70.54 136.93 66.39 136.93 62.24 136.93 58.09 136.93 53.94 136.93 49.79 136.93 45.64 136.93 41.49 136.93 37.34 132.78 37.34 132.78 41.49"/><polygon class="cls-5" points="8.3 37.34 8.3 33.2 4.15 33.2 4.15 37.34 4.15 41.49 8.3 41.49 8.3 37.34"/><polygon class="cls-5" points="132.78 29.05 128.63 29.05 128.63 33.2 128.63 37.34 132.78 37.34 132.78 33.2 132.78 29.05"/><polygon class="cls-5" points="12.45 29.05 12.45 24.9 8.3 24.9 8.3 29.05 8.3 33.2 12.45 33.2 12.45 29.05"/><rect class="cls-5" x="124.48" y="24.9" width="4.15" height="4.15"/><rect class="cls-5" x="120.33" y="20.75" width="4.15" height="4.15"/><rect class="cls-5" x="12.45" y="20.75" width="4.15" height="4.15"/><rect class="cls-5" x="116.18" y="16.6" width="4.15" height="4.15"/><rect class="cls-5" x="16.6" y="16.6" width="4.15" height="4.15"/><rect class="cls-5" x="112.04" y="12.45" width="4.15" height="4.15"/><polygon class="cls-5" points="29.05 16.6 29.05 12.45 24.9 12.45 20.75 12.45 20.75 16.6 24.9 16.6 29.05 16.6"/><polygon class="cls-5" points="107.89 8.3 103.74 8.3 103.74 12.45 107.89 12.45 112.03 12.45 112.03 8.3 107.89 8.3"/><polygon class="cls-5" points="37.34 12.45 37.34 8.3 33.2 8.3 29.05 8.3 29.05 12.45 33.2 12.45 37.34 12.45"/><polygon class="cls-5" points="99.59 4.15 95.44 4.15 95.44 8.3 99.59 8.3 103.74 8.3 103.74 4.15 99.59 4.15"/><polygon class="cls-5" points="45.64 8.3 49.79 8.3 49.79 4.15 45.64 4.15 41.49 4.15 37.34 4.15 37.34 8.3 41.49 8.3 45.64 8.3"/><polygon class="cls-5" points="58.09 4.15 62.24 4.15 66.39 4.15 70.54 4.15 74.69 4.15 78.84 4.15 82.99 4.15 87.14 4.15 91.29 4.15 91.29 0 87.14 0 82.99 0 78.84 0 74.69 0 70.54 0 66.39 0 62.24 0 58.09 0 53.94 0 49.79 0 49.79 4.15 53.94 4.15 58.09 4.15"/><polygon class="cls-6" points="103.74 29.05 103.74 24.9 99.59 24.9 99.59 29.05 99.59 33.2 99.59 37.34 99.59 41.49 99.59 45.64 99.59 49.79 99.59 53.94 95.44 53.94 95.44 58.09 91.29 58.09 91.29 62.24 87.14 62.24 87.14 66.39 82.99 66.39 78.84 66.39 74.69 66.39 74.69 70.54 70.54 70.54 66.39 70.54 62.24 70.54 58.09 70.54 58.09 66.39 53.94 66.39 49.79 66.39 49.79 62.24 45.64 62.24 45.64 58.09 41.49 58.09 41.49 53.94 37.34 53.94 37.34 49.79 37.34 45.64 33.2 45.64 33.2 41.49 33.2 37.34 33.2 33.2 29.05 33.2 29.05 37.34 29.05 41.49 29.05 45.64 29.05 49.79 29.05 53.94 29.05 58.09 29.05 62.24 33.2 62.24 33.2 66.39 37.34 66.39 37.34 70.54 41.49 70.54 41.49 74.69 45.64 74.69 49.79 74.69 49.79 78.84 53.94 78.84 58.09 78.84 62.24 78.84 66.39 78.84 70.54 78.84 74.69 78.84 78.84 78.84 82.99 78.84 87.14 78.84 87.14 74.69 91.29 74.69 95.44 74.69 95.44 70.54 99.59 70.54 99.59 66.39 103.74 66.39 103.74 62.24 103.74 58.09 107.89 58.09 107.89 53.94 107.89 49.79 107.89 45.64 107.89 41.49 107.89 37.34 107.89 33.2 103.74 33.2 103.74 29.05"/></g></g></g></g></g></svg>