<svg xmlns="http://www.w3.org/2000/svg" viewBox="0 0 135.67 114.47"><defs><style>.cls-1{fill:#0f0d19;}.cls-2{fill:#100e19;}.cls-3{fill:#a6da89;}.cls-4{fill:#288428;}.cls-5{fill:#cceaad;}.cls-6{fill:#0d0b16;}.cls-7{fill:#4cad38;}</style></defs><g id="Layer_2" data-name="Layer 2"><g id="Icons"><g id="Level_2" data-name="Level 2"><g id="Endoderm"><g id="Endoderm-Base"><rect class="cls-1" x="89.04" y="106" width="4.24" height="4.24"/><rect class="cls-2" x="106" y="12.72" width="4.24" height="4.24"/><polygon class="cls-3" points="127.19 42.4 127.19 38.16 127.19 33.92 122.95 33.92 122.95 38.16 122.95 42.4 122.95 46.64 122.95 50.88 122.95 55.12 122.95 59.36 118.72 59.36 118.72 63.6 118.72 67.84 114.47 67.84 114.47 72.08 114.47 76.32 110.23 76.32 110.23 80.56 106 80.56 106 84.8 101.75 84.8 101.75 89.04 97.52 89.04 93.28 89.04 93.28 93.28 89.04 93.28 84.8 93.28 84.8 97.52 80.56 97.52 76.32 97.52 72.08 97.52 67.84 97.52 63.6 97.52 59.36 97.52 55.12 97.52 50.88 97.52 46.64 97.52 46.64 93.28 42.4 93.28 38.16 93.28 33.92 93.28 33.92 89.04 29.68 89.04 29.68 84.8 25.44 84.8 21.2 84.8 21.2 80.56 21.2 76.32 16.96 76.32 16.96 72.08 12.72 72.08 12.72 67.84 12.72 63.6 8.48 63.6 8.48 59.36 8.48 55.12 8.48 50.88 8.48 46.64 4.24 46.64 4.24 50.88 4.24 55.12 4.24 59.36 4.24 63.6 4.24 67.84 4.24 72.08 8.48 72.08 8.48 76.32 8.48 80.56 8.48 84.8 12.72 84.8 12.72 89.04 16.96 89.04 16.96 93.28 21.2 93.28 21.2 97.52 25.44 97.52 25.44 101.75 29.68 101.75 33.92 101.75 33.92 106 38.16 106 42.4 106 46.64 106 50.88 106 50.88 110.23 55.12 110.23 59.36 110.23 63.6 110.23 67.84 110.23 72.08 110.23 76.32 110.23 76.32 106 80.56 106 84.8 106 89.04 106 93.28 106 93.28 101.75 97.52 101.75 101.75 101.75 101.75 97.52 106 97.52 106 93.28 110.23 93.28 114.47 93.28 114.47 89.04 118.72 89.04 118.72 84.8 118.72 80.56 122.95 80.56 122.95 76.32 127.19 76.32 127.19 72.08 127.19 67.84 127.19 63.6 131.43 63.6 131.43 59.36 131.43 55.12 131.43 50.88 131.43 46.64 127.19 46.64 127.19 42.4"/><polygon class="cls-4" points="106 38.16 106 33.92 101.75 33.92 101.75 38.16 101.75 42.4 101.75 46.64 101.75 50.88 101.75 55.12 97.52 55.12 97.52 59.36 93.28 59.36 93.28 63.6 89.04 63.6 89.04 67.84 84.8 67.84 84.8 72.08 80.56 72.08 76.32 72.08 72.08 72.08 72.08 76.32 67.84 76.32 63.6 76.32 59.36 76.32 55.12 76.32 55.12 72.08 50.88 72.08 46.64 72.08 46.64 67.84 42.4 67.84 38.16 67.84 38.16 63.6 33.92 63.6 33.92 59.36 33.92 55.12 29.68 55.12 29.68 50.88 29.68 46.64 29.68 42.4 29.68 38.16 25.44 38.16 25.44 42.4 25.44 46.64 25.44 50.88 25.44 55.12 25.44 59.36 25.44 63.6 25.44 67.84 29.68 67.84 29.68 72.08 33.92 72.08 33.92 76.32 38.16 76.32 38.16 80.56 42.4 80.56 46.64 80.56 46.64 84.8 50.88 84.8 55.12 84.8 59.36 84.8 63.6 84.8 67.84 84.8 72.08 84.8 76.32 84.8 80.56 84.8 84.8 84.8 84.8 80.56 89.04 80.56 93.28 80.56 93.28 76.32 97.52 76.32 97.52 72.08 101.75 72.08 101.75 67.84 106 67.84 106 63.6 106 59.36 110.23 59.36 110.23 55.12 110.23 50.88 110.23 46.64 110.23 42.4 106 42.4 106 38.16"/><path class="cls-5" d="M118.71,21.2h-8.48V17H106V12.72H97.52V8.48h-17V4.24h-17V8.48H42.4v4.24H33.92V17H25.44V21.2H21.2v4.24H17v4.24H12.72v8.48H8.48V63.6h4.24v8.48H17v4.24H21.2V84.8h8.48V89h4.24v4.24H46.64v4.24H84.8V93.28h8.48V89h8.48V84.8H106V80.56h4.23V76.32h4.24V67.84h4.24V59.36H123V25.44h-4.24Zm-8.48,25.44V59.36H106v8.48h-4.24v4.24H97.52v4.24H93.28v4.24H84.8V84.8H46.64V80.56H38.16V76.32H33.92V72.08H29.68V67.84H25.44V38.16h4.24V33.92h4.24V29.68h4.24V25.44H42.4V21.2H55.12V17h21.2V21.2H89v4.24h8.48v4.24h4.24v4.24H106V42.4h4.23Z"/><polygon class="cls-6" points="33.92 16.96 33.92 12.72 29.68 12.72 25.44 12.72 25.44 16.96 29.68 16.96 33.92 16.96"/><polygon class="cls-6" points="127.19 67.84 127.19 72.08 127.19 76.32 131.43 76.32 131.43 72.08 131.43 67.84 131.43 63.6 127.19 63.6 127.19 67.84"/><polygon class="cls-6" points="55.12 114.47 59.36 114.47 63.6 114.47 67.84 114.47 72.08 114.47 76.32 114.47 76.32 110.23 72.08 110.23 67.84 110.23 63.6 110.23 59.36 110.23 55.12 110.23 50.88 110.23 50.88 114.47 55.12 114.47"/><polygon class="cls-6" points="84.8 110.23 89.04 110.23 89.04 106 84.8 106 80.56 106 76.32 106 76.32 110.23 80.56 110.23 84.8 110.23"/><polygon class="cls-6" points="38.16 110.23 42.4 110.23 46.64 110.23 50.88 110.23 50.88 106 46.64 106 42.4 106 38.16 106 33.92 106 33.92 110.23 38.16 110.23"/><polygon class="cls-6" points="93.28 101.75 93.28 106 97.52 106 101.75 106 101.75 101.75 97.52 101.75 93.28 101.75"/><polygon class="cls-6" points="29.68 106 33.92 106 33.92 101.75 29.68 101.75 25.44 101.75 25.44 106 29.68 106"/><rect class="cls-6" x="21.2" y="97.52" width="4.24" height="4.24"/><polygon class="cls-6" points="106 93.28 106 97.52 101.75 97.52 101.75 101.75 106 101.75 110.23 101.75 110.23 97.52 114.47 97.52 114.47 93.28 110.23 93.28 106 93.28"/><rect class="cls-6" x="16.96" y="93.28" width="4.24" height="4.24"/><rect class="cls-6" x="114.47" y="89.04" width="4.24" height="4.24"/><rect class="cls-6" x="12.72" y="89.04" width="4.24" height="4.24"/><rect class="cls-6" x="8.48" y="84.8" width="4.24" height="4.24"/><polygon class="cls-6" points="8.48 76.32 8.48 72.08 4.24 72.08 4.24 76.32 4.24 80.56 4.24 84.8 8.48 84.8 8.48 80.56 8.48 76.32"/><polygon class="cls-6" points="122.95 80.56 118.72 80.56 118.72 84.8 118.72 89.04 122.95 89.04 122.95 84.8 127.19 84.8 127.19 80.56 127.19 76.32 122.95 76.32 122.95 80.56"/><polygon class="cls-6" points="4.24 63.6 4.24 59.36 4.24 55.12 4.24 50.88 4.24 46.64 0 46.64 0 50.88 0 55.12 0 59.36 0 63.6 0 67.84 0 72.08 4.24 72.08 4.24 67.84 4.24 63.6"/><polygon class="cls-6" points="131.43 50.88 131.43 55.12 131.43 59.36 131.43 63.6 135.67 63.6 135.67 59.36 135.67 55.12 135.67 50.88 135.67 46.64 131.43 46.64 131.43 50.88"/><polygon class="cls-6" points="8.48 42.4 8.48 38.16 4.24 38.16 4.24 42.4 4.24 46.64 8.48 46.64 8.48 42.4"/><polygon class="cls-6" points="131.43 38.16 131.43 33.92 127.19 33.92 127.19 38.16 127.19 42.4 127.19 46.64 131.43 46.64 131.43 42.4 131.43 38.16"/><polygon class="cls-6" points="12.72 33.92 12.72 29.68 8.48 29.68 8.48 33.92 8.48 38.16 12.72 38.16 12.72 33.92"/><polygon class="cls-6" points="127.19 25.44 122.95 25.44 122.95 29.68 122.95 33.92 127.19 33.92 127.19 29.68 127.19 25.44"/><rect class="cls-6" x="12.72" y="25.44" width="4.24" height="4.24"/><rect class="cls-6" x="118.71" y="21.2" width="4.24" height="4.24"/><rect class="cls-6" x="16.96" y="21.2" width="4.24" height="4.24"/><polygon class="cls-6" points="114.47 16.96 110.23 16.96 110.23 21.2 114.47 21.2 118.72 21.2 118.72 16.96 114.47 16.96"/><rect class="cls-6" x="21.2" y="16.96" width="4.24" height="4.24"/><polygon class="cls-6" points="101.75 12.72 106 12.72 106 8.48 101.75 8.48 97.52 8.48 97.52 12.72 101.75 12.72"/><polygon class="cls-6" points="42.4 12.72 42.4 8.48 38.16 8.48 33.92 8.48 33.92 12.72 38.16 12.72 42.4 12.72"/><polygon class="cls-6" points="84.8 8.48 89.04 8.48 93.28 8.48 97.52 8.48 97.52 4.24 93.28 4.24 89.04 4.24 84.8 4.24 80.56 4.24 80.56 8.48 84.8 8.48"/><polygon class="cls-6" points="50.88 8.48 55.12 8.48 59.36 8.48 63.6 8.48 63.6 4.24 59.36 4.24 55.12 4.24 50.88 4.24 46.64 4.24 42.4 4.24 42.4 8.48 46.64 8.48 50.88 8.48"/><polygon class="cls-6" points="72.08 4.24 76.32 4.24 80.56 4.24 80.56 0 76.32 0 72.08 0 67.84 0 63.6 0 63.6 4.24 67.84 4.24 72.08 4.24"/><path class="cls-7" d="M97.52,25.44H89V21.2H76.32V17H55.12V21.2H42.4v4.24H38.16v4.24H33.92v4.24H29.68v21.2h4.24V63.6h4.24v4.24h8.48v4.24h8.48v4.24h17V72.08H84.8V67.84H89V63.6h4.24V59.36h4.24V55.12h4.24V29.68H97.52Z"/></g></g></g></g></g></svg>