<svg xmlns="http://www.w3.org/2000/svg" viewBox="0 0 135.29 82.92"><defs><style>.cls-1{fill:#fff;}.cls-2{fill:#a6da89;}.cls-3{fill:#288428;}.cls-4{fill:#cceaad;}.cls-5{fill:#0d0b16;}.cls-6{fill:#4cad38;}</style></defs><g id="Layer_2" data-name="Layer 2"><g id="Icons"><g id="Level_4" data-name="Level 4"><g id="Endo"><g id="Liver"><g id="Liver-Base"><polygon class="cls-1" points="104.74 26.18 100.38 26.18 96.01 26.18 96.01 30.55 91.65 30.55 91.65 34.91 96.01 34.91 100.38 34.91 104.74 34.91 109.11 34.91 109.11 30.55 104.74 30.55 104.74 26.18"/><polygon class="cls-1" points="52.37 8.73 48.01 8.73 43.64 8.73 39.28 8.73 34.91 8.73 34.91 13.09 30.55 13.09 26.18 13.09 21.82 13.09 21.82 17.46 17.46 17.46 17.46 21.82 17.46 26.18 21.82 26.18 26.18 26.18 26.18 21.82 30.55 21.82 34.91 21.82 39.28 21.82 43.64 21.82 48.01 21.82 52.37 21.82 56.73 21.82 56.73 17.46 56.73 13.09 52.37 13.09 52.37 8.73"/><polygon class="cls-2" points="69.83 43.64 65.46 43.64 65.46 48.01 61.1 48.01 56.73 48.01 56.73 52.37 52.37 52.37 48.01 52.37 43.64 52.37 39.28 52.37 34.91 52.37 30.55 52.37 26.18 52.37 21.82 52.37 21.82 48.01 17.46 48.01 13.09 48.01 13.09 43.64 8.73 43.64 8.73 48.01 8.73 52.37 8.73 56.73 8.73 61.1 4.36 61.1 4.36 65.46 4.36 69.83 4.36 74.19 4.36 78.56 8.73 78.56 13.09 78.56 17.46 78.56 17.46 74.19 21.82 74.19 26.18 74.19 26.18 69.83 30.55 69.83 34.91 69.83 39.28 69.83 43.64 69.83 43.64 65.46 48.01 65.46 52.37 65.46 56.73 65.46 61.1 65.46 61.1 61.1 65.46 61.1 69.83 61.1 69.83 56.73 74.19 56.73 74.19 52.37 74.19 48.01 74.19 43.64 74.19 39.28 69.83 39.28 69.83 43.64"/><polygon class="cls-2" points="126.56 30.55 122.2 30.55 122.2 34.91 117.83 34.91 117.83 39.28 113.47 39.28 109.11 39.28 109.11 43.64 104.74 43.64 100.38 43.64 96.01 43.64 96.01 48.01 91.65 48.01 87.28 48.01 87.28 43.64 82.92 43.64 82.92 48.01 82.92 52.37 82.92 56.73 87.28 56.73 91.65 56.73 96.01 56.73 100.38 56.73 100.38 52.37 104.74 52.37 109.11 52.37 109.11 48.01 113.47 48.01 117.83 48.01 117.83 43.64 122.2 43.64 126.56 43.64 126.56 39.28 130.93 39.28 130.93 34.91 126.56 34.91 126.56 30.55"/><polygon class="cls-3" points="78.56 34.91 74.19 34.91 74.19 39.28 74.19 43.64 74.19 48.01 74.19 52.37 74.19 56.73 78.56 56.73 82.92 56.73 82.92 52.37 82.92 48.01 82.92 43.64 82.92 39.28 78.56 39.28 78.56 34.91"/><polygon class="cls-4" points="117.83 30.55 117.83 26.18 113.47 26.18 109.11 26.18 104.74 26.18 104.74 30.55 109.11 30.55 109.11 34.91 104.74 34.91 100.38 34.91 96.01 34.91 91.65 34.91 91.65 30.55 96.01 30.55 96.01 26.18 91.65 26.18 87.28 26.18 87.28 30.55 87.28 34.91 87.28 39.28 82.92 39.28 82.92 43.64 87.28 43.64 87.28 48.01 91.65 48.01 96.01 48.01 96.01 43.64 100.38 43.64 104.74 43.64 109.11 43.64 109.11 39.28 113.47 39.28 117.83 39.28 117.83 34.91 122.2 34.91 122.2 30.55 117.83 30.55"/><path class="cls-4" d="M74.19,17.46H69.83V13.09H61.1V8.73H56.73V4.36H26.19V8.73H17.46v4.36H13.09v4.37H8.73V43.64h4.36V48h8.73v4.36H56.73V48h8.73V43.64h4.37V39.28h4.36V34.91h4.37V21.82H74.19Zm-17.46,0v4.36H26.19v4.37H17.46V17.46h4.36V13.09H34.91V8.73H52.37v4.36h4.36Z"/><polygon class="cls-5" points="8.73 78.56 4.36 78.56 4.36 82.92 8.73 82.92 13.09 82.92 17.46 82.92 17.46 78.56 13.09 78.56 8.73 78.56"/><polygon class="cls-5" points="17.46 74.19 17.46 78.56 21.82 78.56 26.18 78.56 26.18 74.19 21.82 74.19 17.46 74.19"/><polygon class="cls-5" points="34.91 69.83 30.55 69.83 26.18 69.83 26.18 74.19 30.55 74.19 34.91 74.19 39.28 74.19 43.64 74.19 43.64 69.83 39.28 69.83 34.91 69.83"/><polygon class="cls-5" points="4.36 69.83 4.36 65.46 4.36 61.1 0 61.1 0 65.46 0 69.83 0 74.19 0 78.56 4.36 78.56 4.36 74.19 4.36 69.83"/><polygon class="cls-5" points="52.37 65.46 48.01 65.46 43.64 65.46 43.64 69.83 48.01 69.83 52.37 69.83 56.73 69.83 61.1 69.83 61.1 65.46 56.73 65.46 52.37 65.46"/><polygon class="cls-5" points="61.1 61.1 61.1 65.46 65.46 65.46 69.83 65.46 69.83 61.1 65.46 61.1 61.1 61.1"/><polygon class="cls-5" points="91.65 56.73 87.28 56.73 82.92 56.73 78.56 56.73 74.19 56.73 69.83 56.73 69.83 61.1 74.19 61.1 78.56 61.1 82.92 61.1 87.28 61.1 91.65 61.1 96.01 61.1 100.38 61.1 100.38 56.73 96.01 56.73 91.65 56.73"/><polygon class="cls-5" points="8.73 56.73 8.73 52.37 8.73 48.01 8.73 43.64 8.73 39.28 8.73 34.91 8.73 30.55 8.73 26.18 8.73 21.82 8.73 17.46 4.36 17.46 4.36 21.82 4.36 26.18 4.36 30.55 4.36 34.91 4.36 39.28 4.36 43.64 4.36 48.01 4.36 52.37 4.36 56.73 4.36 61.1 8.73 61.1 8.73 56.73"/><polygon class="cls-5" points="100.38 52.37 100.38 56.73 104.74 56.73 109.11 56.73 109.11 52.37 104.74 52.37 100.38 52.37"/><polygon class="cls-5" points="109.11 48.01 109.11 52.37 113.47 52.37 117.83 52.37 117.83 48.01 113.47 48.01 109.11 48.01"/><polygon class="cls-5" points="126.56 43.64 122.2 43.64 117.83 43.64 117.83 48.01 122.2 48.01 126.56 48.01 126.56 43.64"/><rect class="cls-5" x="126.56" y="39.28" width="4.36" height="4.36"/><rect class="cls-5" x="130.93" y="34.91" width="4.36" height="4.36"/><rect class="cls-5" x="126.56" y="30.55" width="4.36" height="4.36"/><polygon class="cls-5" points="122.2 30.55 126.56 30.55 126.56 26.18 122.2 26.18 117.83 26.18 117.83 30.55 122.2 30.55"/><polygon class="cls-5" points="87.28 26.18 91.65 26.18 96.01 26.18 100.38 26.18 104.74 26.18 109.11 26.18 113.47 26.18 117.83 26.18 117.83 21.82 113.47 21.82 109.11 21.82 104.74 21.82 100.38 21.82 96.01 21.82 91.65 21.82 87.28 21.82 82.92 21.82 82.92 26.18 87.28 26.18"/><polygon class="cls-5" points="78.56 21.82 82.92 21.82 82.92 17.46 78.56 17.46 74.19 17.46 74.19 21.82 78.56 21.82"/><rect class="cls-5" x="69.83" y="13.09" width="4.36" height="4.36"/><rect class="cls-5" x="8.73" y="13.09" width="4.36" height="4.36"/><polygon class="cls-5" points="65.46 13.09 69.83 13.09 69.83 8.73 65.46 8.73 61.1 8.73 61.1 13.09 65.46 13.09"/><rect class="cls-5" x="13.09" y="8.73" width="4.36" height="4.36"/><rect class="cls-5" x="56.73" y="4.36" width="4.36" height="4.36"/><polygon class="cls-5" points="26.18 8.73 26.18 4.36 21.82 4.36 17.46 4.36 17.46 8.73 21.82 8.73 26.18 8.73"/><polygon class="cls-5" points="34.91 4.36 39.28 4.36 43.64 4.36 48.01 4.36 52.37 4.36 56.73 4.36 56.73 0 52.37 0 48.01 0 43.64 0 39.28 0 34.91 0 30.55 0 26.18 0 26.18 4.36 30.55 4.36 34.91 4.36"/><polygon class="cls-6" points="82.92 21.82 78.56 21.82 78.56 26.18 78.56 30.55 78.56 34.91 78.56 39.28 82.92 39.28 87.28 39.28 87.28 34.91 87.28 30.55 87.28 26.18 82.92 26.18 82.92 21.82"/></g></g></g></g></g></g></svg>