<svg xmlns="http://www.w3.org/2000/svg" viewBox="0 0 111.23 106.95"><defs><style>.cls-1{fill:#a6da89;}.cls-2{fill:#288428;}.cls-3{fill:#cceaad;}.cls-4{fill:#0d0b16;}.cls-5{fill:#4cad38;}</style></defs><g id="Layer_2" data-name="Layer 2"><g id="Icons"><g id="Level_3" data-name="Level 3"><g id="Endo"><g id="Liver_Cells" data-name="Liver Cells"><g id="LiverCells-Base"><polygon class="cls-1" points="102.67 34.23 102.67 38.5 102.67 42.78 102.67 47.06 102.67 51.34 102.67 55.62 102.67 59.89 98.4 59.89 98.4 64.17 98.4 68.45 94.12 68.45 94.12 72.73 89.84 72.73 89.84 77.01 85.56 77.01 85.56 81.28 81.28 81.28 81.28 85.56 77.01 85.56 72.73 85.56 72.73 89.84 68.45 89.84 64.17 89.84 59.89 89.84 55.62 89.84 51.34 89.84 47.06 89.84 42.78 89.84 38.5 89.84 34.23 89.84 34.23 85.56 29.95 85.56 25.67 85.56 25.67 81.28 21.39 81.28 21.39 77.01 17.11 77.01 17.11 72.73 12.83 72.73 12.83 68.45 8.56 68.45 8.56 64.17 8.56 59.89 8.56 55.62 4.28 55.62 4.28 59.89 4.28 64.17 4.28 68.45 4.28 72.73 4.28 77.01 8.56 77.01 8.56 81.28 12.83 81.28 12.83 85.56 12.83 89.84 17.11 89.84 21.39 89.84 21.39 94.12 25.67 94.12 25.67 98.4 29.95 98.4 34.23 98.4 38.5 98.4 38.5 102.67 42.78 102.67 47.06 102.67 51.34 102.67 55.62 102.67 59.89 102.67 64.17 102.67 68.45 102.67 68.45 98.4 72.73 98.4 77.01 98.4 81.28 98.4 81.28 94.12 85.56 94.12 85.56 89.84 89.84 89.84 94.12 89.84 94.12 85.56 98.4 85.56 98.4 81.28 98.4 77.01 102.67 77.01 102.67 72.73 102.67 68.45 106.95 68.45 106.95 64.17 106.95 59.89 106.95 55.62 106.95 51.34 106.95 47.06 106.95 42.78 106.95 38.5 106.95 34.23 106.95 29.95 102.67 29.95 102.67 34.23"/><polygon class="cls-2" points="85.56 29.95 85.56 25.67 81.28 25.67 81.28 29.95 81.28 34.23 81.28 38.5 81.28 42.78 81.28 47.06 81.28 51.34 81.28 55.62 77.01 55.62 77.01 59.89 72.73 59.89 72.73 64.17 68.45 64.17 68.45 68.45 64.17 68.45 59.89 68.45 55.62 68.45 51.34 68.45 47.06 68.45 42.78 68.45 38.5 68.45 38.5 64.17 34.23 64.17 34.23 59.89 29.95 59.89 29.95 55.62 25.67 55.62 25.67 51.34 25.67 47.06 21.39 47.06 21.39 42.78 17.11 42.78 17.11 47.06 17.11 51.34 17.11 55.62 21.39 55.62 21.39 59.89 21.39 64.17 25.67 64.17 25.67 68.45 25.67 72.73 29.95 72.73 34.23 72.73 34.23 77.01 38.5 77.01 42.78 77.01 42.78 81.28 47.06 81.28 51.34 81.28 55.62 81.28 59.89 81.28 64.17 81.28 64.17 77.01 68.45 77.01 72.73 77.01 72.73 72.73 77.01 72.73 81.28 72.73 81.28 68.45 85.56 68.45 85.56 64.17 85.56 59.89 89.84 59.89 89.84 55.62 89.84 51.34 89.84 47.06 89.84 42.78 89.84 38.5 89.84 34.23 85.56 34.23 85.56 29.95"/><path class="cls-3" d="M98.4,17.11H94.12V12.83H85.56V8.56H77V4.28H42.78V8.56H30v4.27H25.67v4.28H17.11v4.28H12.83V30H8.56v4.27H4.28v21.4H8.56V68.45h4.27v4.28h4.28V77h4.28v4.27h4.28v4.28h8.55v4.28H72.73V85.56h8.55V81.28h4.28V77h4.28V72.73h4.28V68.45H98.4V59.89h4.27V21.39H98.4ZM89.84,38.5V59.89H85.56v8.56H81.28v4.28H72.73V77H64.17v4.27H42.78V77H34.22V72.73H25.67V64.17H21.39V55.62H17.11V42.78h4.28V34.22h4.28V25.67h8.55V21.39H38.5V17.11H72.73v4.28h8.55v4.28h4.28v8.55h4.28Z"/><polygon class="cls-4" points="17.11 89.84 12.83 89.84 12.83 94.12 17.11 94.12 21.39 94.12 21.39 89.84 17.11 89.84"/><polygon class="cls-4" points="12.83 25.67 12.83 21.39 8.56 21.39 8.56 25.67 8.56 29.95 12.83 29.95 12.83 25.67"/><rect class="cls-4" x="12.83" y="17.11" width="4.28" height="4.28"/><polygon class="cls-4" points="25.67 17.11 25.67 12.83 21.39 12.83 17.11 12.83 17.11 17.11 21.39 17.11 25.67 17.11"/><rect class="cls-4" x="25.67" y="8.56" width="4.28" height="4.28"/><polygon class="cls-4" points="38.5 8.56 42.78 8.56 42.78 4.28 38.5 4.28 34.23 4.28 29.95 4.28 29.95 8.56 34.23 8.56 38.5 8.56"/><polygon class="cls-4" points="51.34 4.28 55.62 4.28 59.89 4.28 64.17 4.28 68.45 4.28 72.73 4.28 77.01 4.28 77.01 0 72.73 0 68.45 0 64.17 0 59.89 0 55.62 0 51.34 0 47.06 0 42.78 0 42.78 4.28 47.06 4.28 51.34 4.28"/><polygon class="cls-4" points="59.89 102.67 55.62 102.67 51.34 102.67 47.06 102.67 42.78 102.67 38.5 102.67 38.5 106.95 42.78 106.95 47.06 106.95 51.34 106.95 55.62 106.95 59.89 106.95 64.17 106.95 68.45 106.95 68.45 102.67 64.17 102.67 59.89 102.67"/><polygon class="cls-4" points="72.73 98.4 68.45 98.4 68.45 102.67 72.73 102.67 77.01 102.67 81.28 102.67 81.28 98.4 77.01 98.4 72.73 98.4"/><polygon class="cls-4" points="34.23 98.4 29.95 98.4 25.67 98.4 25.67 102.67 29.95 102.67 34.23 102.67 38.5 102.67 38.5 98.4 34.23 98.4"/><rect class="cls-4" x="81.28" y="94.12" width="4.28" height="4.28"/><rect class="cls-4" x="21.39" y="94.12" width="4.28" height="4.28"/><polygon class="cls-4" points="85.56 89.84 85.56 94.12 89.84 94.12 94.12 94.12 94.12 89.84 89.84 89.84 85.56 89.84"/><rect class="cls-4" x="94.12" y="85.56" width="4.28" height="4.28"/><polygon class="cls-4" points="98.4 81.28 98.4 85.56 102.67 85.56 102.67 81.28 102.67 77.01 98.4 77.01 98.4 81.28"/><rect class="cls-4" x="4.28" y="77.01" width="4.28" height="4.28"/><polygon class="cls-4" points="12.83 81.28 8.56 81.28 8.56 85.56 8.56 89.84 12.83 89.84 12.83 85.56 12.83 81.28"/><polygon class="cls-4" points="102.67 72.73 102.67 77.01 106.95 77.01 106.95 72.73 106.95 68.45 102.67 68.45 102.67 72.73"/><polygon class="cls-4" points="4.28 72.73 4.28 68.45 4.28 64.17 4.28 59.89 4.28 55.62 4.28 51.34 4.28 47.06 4.28 42.78 4.28 38.5 4.28 34.23 0 34.23 0 38.5 0 42.78 0 47.06 0 51.34 0 55.62 0 59.89 0 64.17 0 68.45 0 72.73 0 77.01 4.28 77.01 4.28 72.73"/><polygon class="cls-4" points="106.95 38.5 106.95 42.78 106.95 47.06 106.95 51.34 106.95 55.62 106.95 59.89 106.95 64.17 106.95 68.45 111.23 68.45 111.23 64.17 111.23 59.89 111.23 55.62 111.23 51.34 111.23 47.06 111.23 42.78 111.23 38.5 111.23 34.23 111.23 29.95 106.95 29.95 106.95 34.23 106.95 38.5"/><rect class="cls-4" x="4.28" y="29.95" width="4.28" height="4.28"/><polygon class="cls-4" points="102.67 29.95 106.95 29.95 106.95 25.67 106.95 21.39 102.67 21.39 102.67 25.67 102.67 29.95"/><rect class="cls-4" x="98.4" y="17.11" width="4.28" height="4.28"/><rect class="cls-4" x="94.12" y="12.83" width="4.28" height="4.28"/><polygon class="cls-4" points="89.84 12.83 94.12 12.83 94.12 8.56 89.84 8.56 85.56 8.56 85.56 12.83 89.84 12.83"/><polygon class="cls-4" points="81.28 8.56 85.56 8.56 85.56 4.28 81.28 4.28 77.01 4.28 77.01 8.56 81.28 8.56"/><path class="cls-5" d="M72.73,21.39V17.11H38.5v4.28H34.22v4.28H25.67v8.55H21.39V47.06h4.28v8.56H30v4.27h4.27v4.28H38.5v4.28h30V64.17h4.28V59.89H77V55.62h4.27V21.39H72.73Z"/></g></g></g></g></g></g></svg>