<svg xmlns="http://www.w3.org/2000/svg" viewBox="0 0 117.64 122"><defs><style>.cls-1{fill:#f8fcf2;}.cls-2{fill:#ebe8e6;}.cls-3{fill:#fff;}.cls-4{fill:#a6da89;}.cls-5{fill:#288428;}.cls-6{fill:#cceaad;}.cls-7{fill:#0d0b16;}.cls-8{fill:#4cad38;}</style></defs><g id="Layer_2" data-name="Layer 2"><g id="Icons"><g id="Level_4" data-name="Level 4"><g id="Endo"><g id="Lung"><g id="Lung-Base"><rect class="cls-1" x="21.79" y="47.93" width="4.36" height="4.36"/><polygon class="cls-2" points="8.71 69.72 8.71 74.07 13.07 74.07 13.07 69.72 13.07 65.36 8.71 65.36 8.71 69.72"/><polygon class="cls-3" points="13.07 61 13.07 65.36 17.43 65.36 17.43 61 17.43 56.64 13.07 56.64 13.07 61"/><polygon class="cls-3" points="17.43 52.29 17.43 56.64 21.79 56.64 21.79 52.29 21.79 47.93 17.43 47.93 17.43 52.29"/><polygon class="cls-3" points="30.5 34.86 26.14 34.86 26.14 39.22 21.79 39.22 21.79 43.57 21.79 47.93 26.14 47.93 26.14 43.57 30.5 43.57 30.5 39.22 34.86 39.22 34.86 34.86 34.86 30.5 30.5 30.5 30.5 34.86"/><rect class="cls-3" x="34.86" y="26.14" width="4.36" height="4.36"/><polygon class="cls-4" points="74.07 30.5 69.72 30.5 69.72 34.86 65.36 34.86 65.36 39.22 65.36 43.57 65.36 47.93 65.36 52.29 69.72 52.29 69.72 47.93 69.72 43.57 74.07 43.57 74.07 39.22 78.43 39.22 78.43 34.86 78.43 30.5 78.43 26.14 74.07 26.14 74.07 30.5"/><polygon class="cls-4" points="47.93 30.5 43.57 30.5 43.57 34.86 43.57 39.22 43.57 43.57 47.93 43.57 47.93 47.93 52.29 47.93 52.29 43.57 52.29 39.22 52.29 34.86 47.93 34.86 47.93 30.5"/><polygon class="cls-5" points="52.29 95.86 47.93 95.86 43.57 95.86 43.57 100.22 39.22 100.22 34.86 100.22 34.86 104.57 30.5 104.57 26.14 104.57 21.79 104.57 17.43 104.57 17.43 108.93 13.07 108.93 8.71 108.93 8.71 113.29 8.71 117.64 13.07 117.64 17.43 117.64 21.79 117.64 26.14 117.64 30.5 117.64 34.86 117.64 39.22 117.64 39.22 113.29 43.57 113.29 43.57 108.93 47.93 108.93 47.93 104.57 52.29 104.57 52.29 100.22 56.64 100.22 56.64 95.86 56.64 91.5 52.29 91.5 52.29 95.86"/><polygon class="cls-5" points="108.93 78.43 108.93 82.79 108.93 87.14 104.57 87.14 104.57 91.5 100.22 91.5 100.22 95.86 100.22 100.22 95.86 100.22 95.86 104.57 91.5 104.57 91.5 108.93 87.14 108.93 82.79 108.93 78.43 108.93 74.07 108.93 74.07 113.29 78.43 113.29 82.79 113.29 82.79 117.64 87.14 117.64 91.5 117.64 95.86 117.64 100.22 117.64 104.57 117.64 108.93 117.64 108.93 113.29 113.29 113.29 113.29 108.93 113.29 104.57 113.29 100.22 113.29 95.86 113.29 91.5 113.29 87.14 113.29 82.79 113.29 78.43 113.29 74.07 108.93 74.07 108.93 78.43"/><path class="cls-6" d="M104.57,56.64V52.29h-4.35V43.57H95.86V39.21H91.5V34.86H87.14V30.5H82.79V26.14H78.43V39.21H74.07v4.36H69.72v8.72H61v4.35H56.64V52.29H52.29V47.93H47.93V43.57H43.57V26.14H39.21V30.5H34.86v8.71H30.5v4.36H26.14v8.72H21.79v4.35H17.43v8.72H13.07v8.71H8.71V91.5H4.36v13.07H8.71v4.36h8.72v-4.36H34.86v-4.35h8.71V95.86h8.72V91.5h4.35V87.14H61v13.08h4.36v4.35h4.36v4.36H91.5v-4.36h4.36v-4.35h4.36V91.5h4.35V87.14h4.36V61h-4.36Z"/><polygon class="cls-7" points="87.14 122 91.5 122 95.86 122 100.22 122 104.57 122 108.93 122 108.93 117.64 104.57 117.64 100.22 117.64 95.86 117.64 91.5 117.64 87.14 117.64 82.79 117.64 82.79 122 87.14 122"/><polygon class="cls-7" points="13.07 122 17.43 122 21.79 122 26.14 122 30.5 122 34.86 122 39.22 122 39.22 117.64 34.86 117.64 30.5 117.64 26.14 117.64 21.79 117.64 17.43 117.64 13.07 117.64 8.71 117.64 8.71 122 13.07 122"/><rect class="cls-7" x="108.93" y="113.29" width="4.36" height="4.36"/><polygon class="cls-7" points="78.43 117.64 82.79 117.64 82.79 113.29 78.43 113.29 74.07 113.29 74.07 117.64 78.43 117.64"/><rect class="cls-7" x="39.21" y="113.29" width="4.36" height="4.36"/><rect class="cls-7" x="69.72" y="108.93" width="4.36" height="4.36"/><rect class="cls-7" x="43.57" y="108.93" width="4.36" height="4.36"/><polygon class="cls-7" points="4.36 113.29 4.36 117.64 8.71 117.64 8.71 113.29 8.71 108.93 8.71 104.57 4.36 104.57 4.36 108.93 4.36 113.29"/><rect class="cls-7" x="65.36" y="104.57" width="4.36" height="4.36"/><rect class="cls-7" x="47.93" y="104.57" width="4.36" height="4.36"/><rect class="cls-7" x="61" y="100.22" width="4.36" height="4.36"/><rect class="cls-7" x="52.29" y="100.22" width="4.36" height="4.36"/><polygon class="cls-7" points="61 95.86 61 91.5 61 87.14 56.64 87.14 56.64 91.5 56.64 95.86 56.64 100.22 61 100.22 61 95.86"/><polygon class="cls-7" points="0 95.86 0 100.22 0 104.57 4.36 104.57 4.36 100.22 4.36 95.86 4.36 91.5 0 91.5 0 95.86"/><polygon class="cls-7" points="113.29 78.43 113.29 82.79 113.29 87.14 113.29 91.5 113.29 95.86 113.29 100.22 113.29 104.57 113.29 108.4 113.29 108.93 113.29 113.29 117.64 113.29 117.64 108.93 117.64 108.4 117.64 104.57 117.64 100.22 117.64 95.86 117.64 91.5 117.64 87.14 117.64 82.79 117.64 78.43 117.64 74.07 113.29 74.07 113.29 78.43"/><polygon class="cls-7" points="113.29 65.36 113.29 61 108.93 61 108.93 65.36 108.93 69.72 108.93 74.07 113.29 74.07 113.29 69.72 113.29 65.36"/><polygon class="cls-7" points="4.36 69.72 4.36 74.07 4.36 78.43 4.36 82.79 4.36 87.14 4.36 91.5 8.71 91.5 8.71 87.14 8.71 82.79 8.71 78.43 8.71 74.07 8.71 69.72 8.71 65.36 4.36 65.36 4.36 69.72"/><polygon class="cls-7" points="8.71 61 8.71 65.36 13.07 65.36 13.07 61 13.07 56.64 8.71 56.64 8.71 61"/><polygon class="cls-7" points="108.93 52.29 104.57 52.29 104.57 56.64 104.57 61 108.93 61 108.93 56.64 108.93 52.29"/><rect class="cls-7" x="56.64" y="52.29" width="4.36" height="4.36"/><polygon class="cls-7" points="13.07 52.29 13.07 56.64 17.43 56.64 17.43 52.29 17.43 47.93 13.07 47.93 13.07 52.29"/><polygon class="cls-7" points="104.57 43.57 100.22 43.57 100.22 47.93 100.22 52.29 104.57 52.29 104.57 47.93 104.57 43.57"/><polygon class="cls-7" points="56.64 43.57 56.64 39.22 56.64 34.86 56.64 30.5 56.64 26.14 56.64 21.79 56.64 17.43 56.64 13.07 56.64 8.71 56.64 4.36 52.29 4.36 52.29 8.71 52.29 13.07 52.29 17.43 52.29 21.79 52.29 26.14 52.29 30.5 47.93 30.5 47.93 34.86 52.29 34.86 52.29 39.22 52.29 43.57 52.29 47.93 52.29 52.29 56.64 52.29 56.64 47.93 56.64 43.57"/><rect class="cls-7" x="95.86" y="39.21" width="4.36" height="4.36"/><polygon class="cls-7" points="17.43 43.57 17.43 47.93 21.79 47.93 21.79 43.57 21.79 39.22 17.43 39.22 17.43 43.57"/><rect class="cls-7" x="91.5" y="34.86" width="4.36" height="4.36"/><rect class="cls-7" x="21.79" y="34.86" width="4.36" height="4.36"/><rect class="cls-7" x="87.14" y="30.5" width="4.36" height="4.36"/><rect class="cls-7" x="26.14" y="30.5" width="4.36" height="4.36"/><rect class="cls-7" x="82.79" y="26.14" width="4.36" height="4.36"/><rect class="cls-7" x="69.72" y="26.14" width="4.36" height="4.36"/><polygon class="cls-7" points="65.36 26.14 65.36 21.79 65.36 17.43 65.36 13.07 65.36 8.71 65.36 4.36 61 4.36 61 8.71 61 13.07 61 17.43 61 21.79 61 26.14 61 30.5 61 34.86 61 39.22 61 43.57 61 47.93 61 52.29 65.36 52.29 65.36 47.93 65.36 43.57 65.36 39.22 65.36 34.86 69.72 34.86 69.72 30.5 65.36 30.5 65.36 26.14"/><rect class="cls-7" x="43.57" y="26.14" width="4.36" height="4.36"/><rect class="cls-7" x="30.5" y="26.14" width="4.36" height="4.36"/><polygon class="cls-7" points="78.43 21.79 74.07 21.79 74.07 26.14 78.43 26.14 82.79 26.14 82.79 21.79 78.43 21.79"/><polygon class="cls-7" points="39.22 21.79 34.86 21.79 34.86 26.14 39.22 26.14 43.57 26.14 43.57 21.79 39.22 21.79"/><rect class="cls-7" x="56.64" width="4.36" height="4.36"/><polygon class="cls-8" points="56.64 8.71 56.64 13.07 56.64 17.43 56.64 21.79 56.64 26.14 56.64 30.5 56.64 34.86 56.64 39.22 56.64 43.57 56.64 47.93 56.64 52.29 61 52.29 61 47.93 61 43.57 61 39.22 61 34.86 61 30.5 61 26.14 61 21.79 61 17.43 61 13.07 61 8.71 61 4.36 56.64 4.36 56.64 8.71"/></g></g></g></g></g></g></svg>