<svg xmlns="http://www.w3.org/2000/svg" viewBox="0 0 81.02 132.19"><defs><style>.cls-1{fill:#a6da89;}.cls-2{fill:#288428;}.cls-3{fill:#cceaad;}.cls-4{fill:#0d0b16;}.cls-5{fill:#4cad38;}</style></defs><g id="Layer_2" data-name="Layer 2"><g id="Icons"><g id="Level_3" data-name="Level 3"><g id="Endo"><g id="Lung_Cells" data-name="Lung Cells"><g id="LungCells-Base"><polygon class="cls-1" points="29.85 119.4 34.11 119.4 38.38 119.4 42.64 119.4 46.91 119.4 51.17 119.4 55.44 119.4 59.7 119.4 63.96 119.4 68.23 119.4 72.49 119.4 72.49 115.14 76.76 115.14 76.76 110.87 76.76 106.61 76.76 102.34 76.76 98.08 76.76 93.81 72.49 93.81 72.49 98.08 68.23 98.08 68.23 102.34 63.96 102.34 59.7 102.34 59.7 106.61 55.44 106.61 51.17 106.61 46.91 106.61 46.91 110.87 42.64 110.87 38.38 110.87 34.11 110.87 29.85 110.87 29.85 115.14 25.59 115.14 21.32 115.14 21.32 119.4 25.59 119.4 29.85 119.4"/><polygon class="cls-2" points="63.96 119.4 59.7 119.4 55.44 119.4 51.17 119.4 46.91 119.4 42.64 119.4 38.38 119.4 34.11 119.4 29.85 119.4 25.59 119.4 25.59 123.66 25.59 127.93 29.85 127.93 34.11 127.93 38.38 127.93 42.64 127.93 46.91 127.93 51.17 127.93 55.44 127.93 59.7 127.93 63.96 127.93 68.23 127.93 68.23 123.66 72.49 123.66 72.49 119.4 68.23 119.4 63.96 119.4"/><rect class="cls-2" x="68.23" y="34.11" width="4.26" height="4.26"/><polygon class="cls-2" points="21.32 38.38 25.59 38.38 25.59 34.11 25.59 29.85 21.32 29.85 21.32 34.11 21.32 38.38"/><polygon class="cls-2" points="59.7 34.11 59.7 38.38 63.96 38.38 63.96 34.11 63.96 29.85 63.96 25.59 59.7 25.59 59.7 21.32 55.44 21.32 55.44 25.59 55.44 29.85 59.7 29.85 59.7 34.11"/><polygon class="cls-2" points="21.32 21.32 17.06 21.32 17.06 17.06 12.79 17.06 12.79 12.79 12.79 8.53 8.53 8.53 8.53 4.26 4.26 4.26 4.26 8.53 4.26 12.79 4.26 17.06 8.53 17.06 8.53 21.32 8.53 25.59 12.79 25.59 17.06 25.59 17.06 29.85 21.32 29.85 21.32 25.59 21.32 21.32"/><polygon class="cls-2" points="42.64 17.06 42.64 21.32 46.91 21.32 46.91 25.59 46.91 29.85 46.91 34.11 46.91 38.38 51.17 38.38 55.44 38.38 55.44 34.11 55.44 29.85 51.17 29.85 51.17 25.59 51.17 21.32 51.17 17.06 51.17 12.79 46.91 12.79 46.91 8.53 46.91 4.26 42.64 4.26 38.38 4.26 38.38 8.53 38.38 12.79 42.64 12.79 42.64 17.06"/><polygon class="cls-2" points="29.85 17.06 34.11 17.06 34.11 21.32 34.11 25.59 38.38 25.59 38.38 29.85 38.38 34.11 38.38 38.38 42.64 38.38 42.64 34.11 42.64 29.85 42.64 25.59 42.64 21.32 38.38 21.32 38.38 17.06 38.38 12.79 34.11 12.79 34.11 8.53 34.11 4.26 29.85 4.26 25.59 4.26 25.59 8.53 25.59 12.79 29.85 12.79 29.85 17.06"/><polygon class="cls-2" points="17.06 12.79 17.06 17.06 21.32 17.06 21.32 21.32 25.59 21.32 25.59 25.59 25.59 29.85 29.85 29.85 29.85 34.11 29.85 38.38 34.11 38.38 34.11 34.11 34.11 29.85 34.11 25.59 29.85 25.59 29.85 21.32 29.85 17.06 25.59 17.06 25.59 12.79 21.32 12.79 21.32 8.53 21.32 4.26 17.06 4.26 12.79 4.26 12.79 8.53 17.06 8.53 17.06 12.79"/><path class="cls-3" d="M29.85,115.14v-4.27H46.91v-4.26H59.7v-4.27h8.53V98.08h4.26V93.81h4.27V42.64H72.49V38.38H21.32v76.76h8.53Zm4.26-42.65v-17h12.8V59.7h8.53V55.44H68.23V81H64v4.27H42.64V81H38.38V76.76H34.11Z"/><rect class="cls-4" x="68.23" y="123.66" width="4.26" height="4.26"/><polygon class="cls-4" points="59.7 127.93 55.44 127.93 51.17 127.93 46.91 127.93 42.64 127.93 38.38 127.93 34.11 127.93 29.85 127.93 25.59 127.93 25.59 132.19 29.85 132.19 34.11 132.19 38.38 132.19 42.64 132.19 46.91 132.19 51.17 132.19 55.44 132.19 59.7 132.19 63.96 132.19 68.23 132.19 68.23 127.93 63.96 127.93 59.7 127.93"/><polygon class="cls-4" points="25.59 119.4 21.32 119.4 21.32 123.66 21.32 127.93 25.59 127.93 25.59 123.66 25.59 119.4"/><polygon class="cls-4" points="72.49 119.4 72.49 123.66 76.76 123.66 76.76 119.4 76.76 115.14 72.49 115.14 72.49 119.4"/><polygon class="cls-4" points="76.76 51.17 76.76 55.44 76.76 59.7 76.76 63.96 76.76 68.23 76.76 72.49 76.76 76.76 76.76 81.02 76.76 85.29 76.76 89.55 76.76 93.81 76.76 98.08 76.76 102.34 76.76 106.61 76.76 110.87 76.76 115.14 81.02 115.14 81.02 110.87 81.02 106.61 81.02 102.34 81.02 98.08 81.02 93.81 81.02 89.55 81.02 85.29 81.02 81.02 81.02 76.76 81.02 72.49 81.02 68.23 81.02 63.96 81.02 59.7 81.02 55.44 81.02 51.17 81.02 46.91 81.02 42.64 76.76 42.64 76.76 46.91 76.76 51.17"/><polygon class="cls-4" points="72.49 42.64 76.76 42.64 76.76 38.38 76.76 34.11 72.49 34.11 72.49 38.38 72.49 42.64"/><polygon class="cls-4" points="55.44 38.38 59.7 38.38 59.7 34.11 59.7 29.85 55.44 29.85 55.44 34.11 55.44 38.38"/><polygon class="cls-4" points="25.59 38.38 29.85 38.38 29.85 34.11 29.85 29.85 25.59 29.85 25.59 34.11 25.59 38.38"/><polygon class="cls-4" points="34.11 34.11 34.11 38.38 38.38 38.38 38.38 34.11 38.38 29.85 38.38 25.59 34.11 25.59 34.11 29.85 34.11 34.11"/><polygon class="cls-4" points="21.32 110.87 21.32 106.61 21.32 102.34 21.32 98.08 21.32 93.81 21.32 89.55 21.32 85.29 21.32 81.02 21.32 76.76 21.32 72.49 21.32 68.23 21.32 63.96 21.32 59.7 21.32 55.44 21.32 51.17 21.32 46.91 21.32 42.64 21.32 38.38 21.32 34.11 21.32 29.85 17.06 29.85 17.06 34.11 17.06 38.38 17.06 42.64 17.06 46.91 17.06 51.17 17.06 55.44 17.06 59.7 17.06 63.96 17.06 68.23 17.06 72.49 17.06 76.76 17.06 81.02 17.06 85.29 17.06 89.55 17.06 93.81 17.06 98.08 17.06 102.34 17.06 106.61 17.06 110.87 17.06 115.14 17.06 119.4 21.32 119.4 21.32 115.14 21.32 110.87"/><polygon class="cls-4" points="42.64 29.85 42.64 34.11 42.64 38.38 46.91 38.38 46.91 34.11 46.91 29.85 46.91 25.59 46.91 21.32 42.64 21.32 42.64 25.59 42.64 29.85"/><polygon class="cls-4" points="25.59 25.59 25.59 21.32 21.32 21.32 21.32 25.59 21.32 29.85 25.59 29.85 25.59 25.59"/><polygon class="cls-4" points="12.79 25.59 8.53 25.59 8.53 29.85 12.79 29.85 17.06 29.85 17.06 25.59 12.79 25.59"/><polygon class="cls-4" points="63.96 25.59 63.96 29.85 63.96 34.11 63.96 38.38 68.23 38.38 68.23 34.11 72.49 34.11 72.49 29.85 68.23 29.85 68.23 25.59 68.23 21.32 63.96 21.32 59.7 21.32 59.7 25.59 63.96 25.59"/><polygon class="cls-4" points="29.85 25.59 34.11 25.59 34.11 21.32 34.11 17.06 29.85 17.06 29.85 21.32 29.85 25.59"/><polygon class="cls-4" points="51.17 21.32 51.17 25.59 51.17 29.85 55.44 29.85 55.44 25.59 55.44 21.32 59.7 21.32 59.7 17.06 55.44 17.06 55.44 12.79 51.17 12.79 51.17 17.06 51.17 21.32"/><polygon class="cls-4" points="38.38 21.32 42.64 21.32 42.64 17.06 42.64 12.79 38.38 12.79 38.38 17.06 38.38 21.32"/><rect class="cls-4" x="17.06" y="17.06" width="4.26" height="4.26"/><polygon class="cls-4" points="8.53 17.06 4.26 17.06 4.26 21.32 4.26 25.59 8.53 25.59 8.53 21.32 8.53 17.06"/><rect class="cls-4" x="25.59" y="12.79" width="4.26" height="4.26"/><polygon class="cls-4" points="17.06 8.53 12.79 8.53 12.79 12.79 12.79 17.06 17.06 17.06 17.06 12.79 17.06 8.53"/><polygon class="cls-4" points="4.26 12.79 4.26 8.53 4.26 4.26 0 4.26 0 8.53 0 12.79 0 17.06 4.26 17.06 4.26 12.79"/><polygon class="cls-4" points="46.91 12.79 51.17 12.79 51.17 8.53 51.17 4.26 46.91 4.26 46.91 8.53 46.91 12.79"/><polygon class="cls-4" points="8.53 8.53 12.79 8.53 12.79 4.26 17.06 4.26 21.32 4.26 21.32 8.53 21.32 12.79 25.59 12.79 25.59 8.53 25.59 4.26 29.85 4.26 34.11 4.26 34.11 8.53 34.11 12.79 38.38 12.79 38.38 8.53 38.38 4.26 42.64 4.26 46.91 4.26 46.91 0 42.64 0 38.38 0 34.11 0 29.85 0 25.59 0 21.32 0 17.06 0 12.79 0 8.53 0 4.26 0 4.26 4.26 8.53 4.26 8.53 8.53"/><path class="cls-5" d="M59.7,55.44H55.44V59.7H46.91V55.44H34.11V76.76h4.27V81h4.26v4.27H64V81h4.27V55.44H59.7Z"/></g></g></g></g></g></g></svg>