<svg xmlns="http://www.w3.org/2000/svg" viewBox="0 0 22.09 13.25"><defs><style>.cls-1{fill:#ea180e;}.cls-2{fill:#fff;}.cls-3{fill:#0d0b16;}</style></defs><g id="Layer_2" data-name="Layer 2"><g id="Icons"><g id="Level_2" data-name="Level 2"><g id="Mesoderm"><g id="Mesoderm-Face"><g id="Mouth"><polygon class="cls-1" points="13.25 13.25 13.25 8.83 8.83 8.83 4.42 8.83 4.42 13.25 8.83 13.25 13.25 13.25"/><polygon class="cls-2" points="13.25 4.42 17.67 4.42 22.09 4.42 22.09 0 17.67 0 13.25 0 8.83 0 4.42 0 4.42 4.42 8.83 4.42 13.25 4.42"/><polygon class="cls-3" points="8.83 8.83 13.25 8.83 17.67 8.83 17.67 4.42 13.25 4.42 8.83 4.42 4.42 4.42 4.42 0 0 0 0 4.42 0 8.83 4.42 8.83 8.83 8.83"/></g></g></g></g></g></g></svg>