<svg xmlns="http://www.w3.org/2000/svg" viewBox="0 0 136.93 119.26"><defs><style>.cls-1{fill:#e1b8d9;}.cls-2{fill:#ca85bf;}.cls-3{fill:#0d0b16;}.cls-4{fill:#5f2990;}.cls-5{fill:#560e82;}</style></defs><g id="Layer_2" data-name="Layer 2"><g id="Icons"><g id="Level_2" data-name="Level 2"><g id="Mesoderm"><g id="Mesoderm-Base"><path class="cls-1" d="M119.26,22.09h-4.41V17.67h-4.42V13.25H106V8.83H92.76V4.42H53V8.83H39.75v4.42H35.34v4.42H26.5v4.42H22.09V26.5H17.67v4.42H13.25v8.83H8.83V61.84h4.42V75.09h4.42v4.42h4.42v8.83H26.5v4.42h8.84v4.42h8.83v4.41H57.42V106H70.67v-4.42H88.34V97.18h8.84V92.76h4.41V88.34H106V83.93h4.42V79.51h4.42V75.09h4.41V66.26h4.42V26.5h-4.42ZM106,39.75V66.26h-4.42v8.83H97.18v4.42H92.76v4.42H88.34v4.41H75.09v4.42H57.42V88.34H48.59V83.93H39.75V79.51H35.34V75.09H30.92V61.84H26.5V44.17h4.42V35.34h4.42V26.5h4.41V22.09h8.84V17.67h8.83V13.25H79.51v4.42h8.83v4.42h8.84V26.5h4.41v8.84H106Z"/><polygon class="cls-2" points="128.1 39.76 128.1 35.34 128.1 30.92 123.68 30.92 123.68 35.34 123.68 39.76 123.68 44.17 123.68 48.59 123.68 53.01 123.68 57.42 123.68 61.84 123.68 66.26 119.26 66.26 119.26 70.67 119.26 75.09 114.85 75.09 114.85 79.51 110.43 79.51 110.43 83.93 106.01 83.93 106.01 88.34 101.59 88.34 101.59 92.76 97.18 92.76 97.18 97.18 92.76 97.18 88.34 97.18 88.34 101.59 83.93 101.59 79.51 101.59 75.09 101.59 70.67 101.59 70.67 106.01 66.26 106.01 61.84 106.01 57.42 106.01 57.42 101.59 53.01 101.59 48.59 101.59 44.17 101.59 44.17 97.18 39.76 97.18 35.34 97.18 35.34 92.76 30.92 92.76 26.5 92.76 26.5 88.34 22.09 88.34 22.09 83.93 22.09 79.51 17.67 79.51 17.67 75.09 13.25 75.09 13.25 70.67 13.25 66.26 13.25 61.84 8.83 61.84 8.83 57.42 8.83 53.01 4.42 53.01 4.42 57.42 4.42 61.84 4.42 66.26 4.42 70.67 4.42 75.09 8.83 75.09 8.83 79.51 8.83 83.93 8.83 88.34 13.25 88.34 13.25 92.76 17.67 92.76 17.67 97.18 22.09 97.18 22.09 101.59 26.5 101.59 26.5 106.01 30.92 106.01 30.92 110.43 35.34 110.43 39.76 110.43 44.17 110.43 44.17 114.85 48.59 114.85 53.01 114.85 57.42 114.85 61.84 114.85 66.26 114.85 70.67 114.85 75.09 114.85 79.51 114.85 83.93 114.85 88.34 114.85 88.34 110.43 92.76 110.43 97.18 110.43 97.18 106.01 101.59 106.01 106.01 106.01 106.01 101.59 110.43 101.59 110.43 97.18 114.85 97.18 114.85 92.76 119.26 92.76 119.26 88.34 123.68 88.34 123.68 83.93 123.68 79.51 128.1 79.51 128.1 75.09 128.1 70.67 128.1 66.26 132.51 66.26 132.51 61.84 132.51 57.42 132.51 53.01 132.51 48.59 132.51 44.17 128.1 44.17 128.1 39.76"/><polygon class="cls-3" points="79.51 114.85 75.09 114.85 70.67 114.85 66.26 114.85 61.84 114.85 57.42 114.85 53.01 114.85 48.59 114.85 44.17 114.85 44.17 119.26 48.59 119.26 53.01 119.26 57.42 119.26 61.84 119.26 66.26 119.26 70.67 119.26 75.09 119.26 79.51 119.26 83.93 119.26 88.34 119.26 88.34 114.85 83.93 114.85 79.51 114.85"/><polygon class="cls-3" points="39.76 110.43 35.34 110.43 30.92 110.43 30.92 114.85 35.34 114.85 39.76 114.85 44.17 114.85 44.17 110.43 39.76 110.43"/><polygon class="cls-3" points="97.18 106.01 97.18 110.43 101.59 110.43 106.01 110.43 106.01 106.01 101.59 106.01 97.18 106.01"/><polygon class="cls-3" points="88.34 110.43 88.34 114.85 92.76 114.85 97.18 114.85 97.18 110.43 92.76 110.43 88.34 110.43"/><rect class="cls-3" x="26.5" y="106.01" width="4.42" height="4.42"/><rect class="cls-3" x="22.09" y="101.59" width="4.42" height="4.42"/><polygon class="cls-3" points="110.43 101.59 106.01 101.59 106.01 106.01 110.43 106.01 114.85 106.01 114.85 101.59 114.85 97.18 110.43 97.18 110.43 101.59"/><rect class="cls-3" x="17.67" y="97.18" width="4.42" height="4.42"/><rect class="cls-3" x="114.85" y="92.76" width="4.42" height="4.42"/><rect class="cls-3" x="13.25" y="92.76" width="4.42" height="4.42"/><rect class="cls-3" x="119.26" y="88.34" width="4.42" height="4.42"/><rect class="cls-3" x="8.83" y="88.34" width="4.42" height="4.42"/><polygon class="cls-3" points="123.68 83.93 123.68 88.34 128.1 88.34 128.1 83.93 128.1 79.51 123.68 79.51 123.68 83.93"/><polygon class="cls-3" points="8.83 79.51 8.83 75.09 4.42 75.09 4.42 79.51 4.42 83.93 4.42 88.34 8.83 88.34 8.83 83.93 8.83 79.51"/><polygon class="cls-3" points="128.1 70.67 128.1 75.09 128.1 79.51 132.51 79.51 132.51 75.09 132.51 70.67 132.51 66.26 128.1 66.26 128.1 70.67"/><polygon class="cls-3" points="4.42 66.26 4.42 61.84 4.42 57.42 4.42 53.01 0 53.01 0 57.42 0 61.84 0 66.26 0 70.67 0 75.09 4.42 75.09 4.42 70.67 4.42 66.26"/><polygon class="cls-3" points="132.51 53.01 132.51 57.42 132.51 61.84 132.51 66.26 136.93 66.26 136.93 61.84 136.93 57.42 136.93 53.01 136.93 48.59 136.93 44.17 132.51 44.17 132.51 48.59 132.51 53.01"/><polygon class="cls-3" points="8.83 48.59 8.83 44.17 8.83 39.76 4.42 39.76 4.42 44.17 4.42 48.59 4.42 53.01 8.83 53.01 8.83 48.59"/><polygon class="cls-3" points="128.1 39.76 128.1 44.17 132.51 44.17 132.51 39.76 132.51 35.34 132.51 30.92 128.1 30.92 128.1 35.34 128.1 39.76"/><polygon class="cls-3" points="13.25 35.34 13.25 30.92 8.83 30.92 8.83 35.34 8.83 39.76 13.25 39.76 13.25 35.34"/><rect class="cls-3" x="123.68" y="26.5" width="4.42" height="4.42"/><rect class="cls-3" x="13.25" y="26.5" width="4.42" height="4.42"/><rect class="cls-3" x="119.26" y="22.09" width="4.42" height="4.42"/><rect class="cls-3" x="17.67" y="22.09" width="4.42" height="4.42"/><rect class="cls-3" x="114.85" y="17.67" width="4.42" height="4.42"/><rect class="cls-3" x="22.09" y="17.67" width="4.42" height="4.42"/><rect class="cls-3" x="110.43" y="13.25" width="4.42" height="4.42"/><polygon class="cls-3" points="35.34 17.67 35.34 13.25 39.76 13.25 39.76 8.83 35.34 8.83 30.92 8.83 30.92 13.25 26.5 13.25 26.5 17.67 30.92 17.67 35.34 17.67"/><rect class="cls-3" x="106.01" y="8.83" width="4.42" height="4.42"/><polygon class="cls-3" points="97.18 8.83 101.59 8.83 106.01 8.83 106.01 4.42 101.59 4.42 97.18 4.42 92.76 4.42 92.76 8.83 97.18 8.83"/><polygon class="cls-3" points="48.59 8.83 53.01 8.83 53.01 4.42 48.59 4.42 44.17 4.42 39.76 4.42 39.76 8.83 44.17 8.83 48.59 8.83"/><polygon class="cls-3" points="61.84 4.42 66.26 4.42 70.67 4.42 75.09 4.42 79.51 4.42 83.93 4.42 88.34 4.42 92.76 4.42 92.76 0 88.34 0 83.93 0 79.51 0 75.09 0 70.67 0 66.26 0 61.84 0 57.42 0 53.01 0 53.01 4.42 57.42 4.42 61.84 4.42"/><path class="cls-4" d="M88.34,22.09V17.67H79.51V13.25H57.42v4.42H48.59v4.42H39.75V26.5H35.34v8.84H30.92V53h4.42v8.83h4.41v4.42h4.42v4.41h4.42v4.42H83.93V70.67h4.41V66.26h4.42V61.84h4.42V22.09H88.34Z"/><polygon class="cls-5" points="101.59 30.92 101.59 26.5 97.18 26.5 97.18 30.92 97.18 35.34 97.18 39.76 97.18 44.17 97.18 48.59 97.18 53.01 97.18 57.42 97.18 61.84 92.76 61.84 92.76 66.26 88.34 66.26 88.34 70.67 83.93 70.67 83.93 75.09 79.51 75.09 75.09 75.09 70.67 75.09 66.26 75.09 61.84 75.09 57.42 75.09 53.01 75.09 48.59 75.09 48.59 70.67 44.17 70.67 44.17 66.26 39.76 66.26 39.76 61.84 35.34 61.84 35.34 57.42 35.34 53.01 30.92 53.01 30.92 48.59 30.92 44.17 26.5 44.17 26.5 48.59 26.5 53.01 26.5 57.42 26.5 61.84 30.92 61.84 30.92 66.26 30.92 70.67 30.92 75.09 35.34 75.09 35.34 79.51 39.76 79.51 39.76 83.93 44.17 83.93 48.59 83.93 48.59 88.34 53.01 88.34 57.42 88.34 57.42 92.76 61.84 92.76 66.26 92.76 70.67 92.76 75.09 92.76 75.09 88.34 79.51 88.34 83.93 88.34 88.34 88.34 88.34 83.93 92.76 83.93 92.76 79.51 97.18 79.51 97.18 75.09 101.59 75.09 101.59 70.67 101.59 66.26 106.01 66.26 106.01 61.84 106.01 57.42 106.01 53.01 106.01 48.59 106.01 44.17 106.01 39.76 106.01 35.34 101.59 35.34 101.59 30.92"/></g></g></g></g></g></svg>