<svg xmlns="http://www.w3.org/2000/svg" viewBox="0 0 21.7 13.02"><defs><style>.cls-1{fill:#ea180e;}.cls-2{fill:#fff;}.cls-3{fill:#0d0b16;}</style></defs><g id="Layer_2" data-name="Layer 2"><g id="Icons"><g id="Level_4" data-name="Level 4"><g id="Meso"><g id="Muscle"><g id="Muscle-Face"><g id="Mouth"><polygon class="cls-1" points="13.02 13.02 13.02 8.68 8.68 8.68 4.34 8.68 4.34 13.02 8.68 13.02 13.02 13.02"/><polygon class="cls-2" points="8.68 0 4.34 0 4.34 4.34 8.68 4.34 13.02 4.34 17.36 4.34 17.36 0 13.02 0 8.68 0"/><polygon class="cls-3" points="17.36 4.34 13.02 4.34 8.68 4.34 4.34 4.34 4.34 0 0 0 0 4.34 0 8.68 4.34 8.68 8.68 8.68 13.02 8.68 13.02 13.02 17.36 13.02 17.36 8.68 21.7 8.68 21.7 4.34 21.7 0 17.36 0 17.36 4.34"/></g></g></g></g></g></g></g></svg>