<svg xmlns="http://www.w3.org/2000/svg" viewBox="0 0 156.22 69.43"><defs><style>.cls-1{fill:#e1b8d9;}.cls-2{fill:#ca85bf;}.cls-3{fill:#0d0b16;}.cls-4{fill:#5f2990;}.cls-5{fill:#560e82;}</style></defs><g id="Layer_2" data-name="Layer 2"><g id="Icons"><g id="Level_4" data-name="Level 4"><g id="Meso"><g id="Muscle"><g id="Muscle-Base"><polygon class="cls-1" points="21.7 47.73 17.36 47.73 17.36 52.07 13.02 52.07 8.68 52.07 8.68 56.41 8.68 60.75 13.02 60.75 17.36 60.75 21.7 60.75 26.04 60.75 26.04 56.41 26.04 52.07 21.7 52.07 21.7 47.73"/><polygon class="cls-1" points="143.2 8.68 138.86 8.68 138.86 4.34 134.52 4.34 134.52 8.68 130.18 8.68 130.18 13.02 134.52 13.02 134.52 17.36 138.86 17.36 143.2 17.36 143.2 13.02 147.54 13.02 147.54 8.68 147.54 4.34 143.2 4.34 143.2 8.68"/><rect class="cls-2" x="13.02" y="47.73" width="4.34" height="4.34"/><polygon class="cls-2" points="13.02 60.75 8.68 60.75 8.68 65.09 13.02 65.09 17.36 65.09 21.7 65.09 21.7 60.75 17.36 60.75 13.02 60.75"/><rect class="cls-2" x="4.34" y="56.41" width="4.34" height="4.34"/><rect class="cls-2" x="143.2" y="13.02" width="4.34" height="4.34"/><rect class="cls-2" x="147.54" y="8.68" width="4.34" height="4.34"/><rect class="cls-2" x="138.86" y="4.34" width="4.34" height="4.34"/><polygon class="cls-3" points="13.02 65.09 8.68 65.09 8.68 60.75 4.34 60.75 4.34 65.09 4.34 69.43 8.68 69.43 13.02 69.43 17.36 69.43 21.7 69.43 21.7 65.09 17.36 65.09 13.02 65.09"/><polygon class="cls-3" points="21.7 60.75 21.7 65.09 26.04 65.09 30.38 65.09 30.38 60.75 26.04 60.75 21.7 60.75"/><polygon class="cls-3" points="69.43 56.41 65.09 56.41 60.75 56.41 56.41 56.41 52.07 56.41 47.73 56.41 43.4 56.41 39.05 56.41 34.72 56.41 30.38 56.41 30.38 60.75 34.72 60.75 39.05 60.75 43.4 60.75 47.73 60.75 52.07 60.75 56.41 60.75 60.75 60.75 65.09 60.75 69.43 60.75 73.77 60.75 78.11 60.75 78.11 56.41 73.77 56.41 69.43 56.41"/><rect class="cls-3" y="56.41" width="4.34" height="4.34"/><polygon class="cls-3" points="82.45 52.07 78.11 52.07 78.11 56.41 82.45 56.41 86.79 56.41 91.13 56.41 91.13 52.07 86.79 52.07 82.45 52.07"/><rect class="cls-3" x="4.34" y="52.07" width="4.34" height="4.34"/><polygon class="cls-3" points="91.13 47.73 91.13 52.07 95.47 52.07 99.81 52.07 99.81 47.73 95.47 47.73 91.13 47.73"/><rect class="cls-3" x="8.68" y="47.73" width="4.34" height="4.34"/><rect class="cls-3" x="99.81" y="43.39" width="4.34" height="4.34"/><polygon class="cls-3" points="21.7 47.73 26.04 47.73 30.38 47.73 30.38 43.4 26.04 43.4 21.7 43.4 17.36 43.4 13.02 43.4 13.02 47.73 17.36 47.73 21.7 47.73"/><rect class="cls-3" x="104.15" y="39.06" width="4.34" height="4.34"/><polygon class="cls-3" points="39.05 43.4 39.05 39.05 34.72 39.05 30.38 39.05 30.38 43.4 34.72 43.4 39.05 43.4"/><rect class="cls-3" x="108.49" y="34.72" width="4.34" height="4.34"/><rect class="cls-3" x="39.06" y="34.72" width="4.34" height="4.34"/><rect class="cls-3" x="112.83" y="30.38" width="4.34" height="4.34"/><rect class="cls-3" x="43.39" y="30.38" width="4.34" height="4.34"/><rect class="cls-3" x="117.17" y="26.04" width="4.34" height="4.34"/><rect class="cls-3" x="47.73" y="26.04" width="4.34" height="4.34"/><polygon class="cls-3" points="125.84 21.7 121.5 21.7 121.5 26.04 125.84 26.04 130.18 26.04 134.52 26.04 134.52 21.7 130.18 21.7 125.84 21.7"/><rect class="cls-3" x="52.07" y="21.7" width="4.34" height="4.34"/><polygon class="cls-3" points="143.2 21.7 147.54 21.7 147.54 17.36 143.2 17.36 138.86 17.36 134.52 17.36 134.52 21.7 138.86 21.7 143.2 21.7"/><rect class="cls-3" x="56.41" y="17.36" width="4.34" height="4.34"/><rect class="cls-3" x="147.54" y="13.02" width="4.34" height="4.34"/><polygon class="cls-3" points="69.43 17.36 73.77 17.36 73.77 13.02 69.43 13.02 65.09 13.02 60.75 13.02 60.75 17.36 65.09 17.36 69.43 17.36"/><rect class="cls-3" x="151.88" y="8.68" width="4.34" height="4.34"/><polygon class="cls-3" points="82.45 13.02 86.79 13.02 91.13 13.02 95.47 13.02 99.81 13.02 104.15 13.02 108.49 13.02 112.83 13.02 117.17 13.02 121.5 13.02 121.5 8.68 117.17 8.68 112.83 8.68 108.49 8.68 104.15 8.68 99.81 8.68 95.47 8.68 91.13 8.68 86.79 8.68 82.45 8.68 78.11 8.68 73.77 8.68 73.77 13.02 78.11 13.02 82.45 13.02"/><rect class="cls-3" x="147.54" y="4.34" width="4.34" height="4.34"/><polygon class="cls-3" points="130.18 8.68 134.52 8.68 134.52 4.34 130.18 4.34 125.84 4.34 121.5 4.34 121.5 8.68 125.84 8.68 130.18 8.68"/><polygon class="cls-3" points="143.2 4.34 147.54 4.34 147.54 0 143.2 0 138.86 0 134.52 0 134.52 4.34 138.86 4.34 143.2 4.34"/><polygon class="cls-4" points="26.04 47.73 26.04 47.73 21.7 47.73 21.7 52.07 26.04 52.07 26.04 56.41 30.38 56.41 30.38 52.07 34.72 52.07 34.72 47.73 30.38 47.73 26.04 47.73"/><polygon class="cls-4" points="56.41 43.4 52.07 43.4 52.07 47.73 56.41 47.73 56.41 52.07 52.07 52.07 47.73 52.07 47.73 47.73 47.73 43.4 43.4 43.4 39.05 43.4 39.05 47.73 39.05 52.07 39.05 56.41 43.4 56.41 47.73 56.41 52.07 56.41 56.41 56.41 60.75 56.41 65.09 56.41 69.43 56.41 73.77 56.41 78.11 56.41 78.11 52.07 73.77 52.07 69.43 52.07 65.09 52.07 65.09 47.73 60.75 47.73 60.75 43.4 60.75 39.05 56.41 39.05 56.41 43.4"/><rect class="cls-4" x="47.73" y="39.06" width="4.34" height="4.34"/><rect class="cls-4" x="43.39" y="34.72" width="4.34" height="4.34"/><polygon class="cls-4" points="86.79 39.05 81.72 39.05 78.11 39.05 73.77 39.05 73.77 47.73 78.11 47.73 82.45 47.73 82.45 52.07 86.79 52.07 91.13 52.07 91.13 47.73 86.79 47.73 86.79 39.05"/><polyline class="cls-4" points="60.75 39.05 65.09 39.05 65.09 43.4 69.43 43.4 73.77 43.4 73.77 39.05 73.77 39.05 73.77 34.72 73.77 30.38 65.09 30.38 65.09 26.04 60.75 26.04 60.75 21.7 56.41 21.7 56.41 26.04 52.07 26.04 52.07 30.38 47.73 30.38 47.73 34.72 52.07 34.72 52.07 39.05 56.41 39.05"/><polygon class="cls-4" points="112.83 17.36 108.49 17.36 104.15 17.36 104.15 21.7 108.49 21.7 108.49 26.04 112.83 26.04 112.83 30.38 117.17 30.38 117.17 26.04 117.17 21.7 112.83 21.7 112.83 17.36"/><polygon class="cls-4" points="108.49 26.04 104.15 26.04 104.15 26.04 99.81 26.04 99.81 34.72 95.47 34.72 95.47 30.38 86.79 30.38 86.79 34.72 86.79 39.05 86.79 39.05 86.79 43.4 91.13 43.4 91.13 47.73 95.47 47.73 99.81 47.73 99.81 43.4 95.47 43.4 95.47 39.05 99.81 39.05 99.81 43.4 104.15 43.4 104.15 39.05 108.49 39.05 108.49 34.72 112.83 34.72 112.83 30.38 108.49 30.38 108.49 26.04"/><polygon class="cls-4" points="65.09 26.04 69.43 26.04 69.43 39.05 73.77 39.05 78.11 39.05 82.45 39.05 86.79 39.05 91.13 30.38 91.13 26.04 95.47 26.04 95.47 30.38 99.81 30.38 99.81 26.04 104.15 26.04 104.15 21.7 99.81 21.7 95.47 21.7 91.13 21.7 91.13 17.36 86.79 17.36 82.45 17.36 82.45 13.02 78.11 13.02 73.77 13.02 73.77 17.36 78.11 17.36 78.11 21.7 82.45 21.7 86.79 21.7 86.79 26.04 82.45 26.04 78.11 26.04 78.11 21.7 73.77 21.7 69.43 21.7 69.43 17.36 65.09 17.36 60.75 17.36 60.75 21.7 65.09 21.7 65.09 26.04"/><polygon class="cls-4" points="130.18 17.36 125.84 17.36 125.84 13.02 130.18 13.02 130.18 8.68 125.84 8.68 121.5 8.68 121.5 13.02 117.17 13.02 117.17 17.36 121.5 17.36 121.5 21.7 125.84 21.7 130.18 21.7 134.52 21.7 134.52 17.36 134.52 13.02 130.18 13.02 130.18 17.36"/><polygon class="cls-4" points="99.81 13.02 95.47 13.02 95.47 17.36 99.81 17.36 104.15 17.36 104.15 13.02 99.81 13.02"/><rect class="cls-5" x="26.04" y="56.41" width="4.34" height="4.34"/><polygon class="cls-5" points="30.38 43.4 30.38 47.73 34.72 47.73 34.72 52.07 30.38 52.07 30.38 56.41 34.72 56.41 39.05 56.41 39.05 52.07 39.05 47.73 39.05 43.4 34.72 43.4 30.38 43.4"/><rect class="cls-5" x="52.07" y="39.06" width="4.34" height="4.34"/><rect class="cls-5" x="104.15" y="21.7" width="4.34" height="4.34"/><polygon class="cls-5" points="95.47 17.36 95.47 13.02 91.13 13.02 86.79 13.02 82.45 13.02 82.45 17.36 86.79 17.36 91.13 17.36 91.13 21.7 95.47 21.7 99.81 21.7 104.15 21.7 104.15 17.36 99.81 17.36 95.47 17.36"/><rect class="cls-5" x="125.84" y="13.02" width="4.34" height="4.34"/><polygon class="cls-5" points="73.77 47.73 73.77 43.4 69.43 43.4 69.43 43.4 65.09 43.4 65.09 39.05 60.75 39.05 60.75 43.4 60.75 47.73 65.09 47.73 65.09 47.73 65.09 52.07 69.43 52.07 73.77 52.07 78.11 52.07 82.45 52.07 82.45 47.73 78.11 47.73 73.77 47.73"/><rect class="cls-5" x="86.79" y="43.39" width="4.34" height="4.34"/><rect class="cls-5" x="95.47" y="39.06" width="4.34" height="4.34"/><polygon class="cls-5" points="47.73 39.05 52.07 39.05 52.07 34.72 47.73 34.72 47.73 39.05 43.4 39.05 39.05 39.05 39.05 43.4 43.4 43.4 43.4 43.4 47.73 43.4 47.73 47.73 47.73 47.73 47.73 52.07 52.07 52.07 56.41 52.07 56.41 47.73 52.07 47.73 52.07 43.4 47.73 43.4 47.73 39.05"/><rect class="cls-5" x="108.49" y="26.04" width="4.34" height="4.34"/><rect class="cls-5" x="95.47" y="30.38" width="4.34" height="4.34"/><rect class="cls-5" x="91.13" y="26.04" width="4.34" height="4.34"/><rect class="cls-5" x="65.09" y="26.04" width="4.34" height="4.34"/><polygon class="cls-5" points="86.79 21.7 82.45 21.7 78.11 21.7 78.11 26.04 82.45 26.04 86.79 26.04 86.79 21.7"/><rect class="cls-5" x="60.75" y="21.7" width="4.34" height="4.34"/><polygon class="cls-5" points="73.77 17.36 69.43 17.36 69.43 21.7 73.77 21.7 78.11 21.7 78.11 17.36 73.77 17.36"/><polygon class="cls-5" points="117.17 13.02 112.83 13.02 108.49 13.02 104.15 13.02 104.15 17.36 108.49 17.36 112.83 17.36 112.83 21.7 117.17 21.7 117.17 26.04 121.5 26.04 121.5 21.7 121.5 17.36 117.17 17.36 117.17 13.02"/></g></g></g></g></g></g></svg>