<svg xmlns="http://www.w3.org/2000/svg" viewBox="0 0 143.26 76.11" shape-rendering="crispEdges"><defs><style>.cls-1{fill:#d49ccb;}.cls-2{fill:#e1b8d9;}.cls-3{fill:#ca85bf;}.cls-4{fill:#0d0b16;}.cls-5{fill:#5f2990;}</style></defs><g id="Layer_2" data-name="Layer 2"><g id="Icons"><g id="Level_3" data-name="Level 3"><g id="Meso"><g id="Muscle_Cells" data-name="Muscle Cells"><g id="MuscleCells-Base"><rect class="cls-1" x="50.56" y="28.04" width="4.21" height="4.01"/><polygon class="cls-2" points="8.43 60.08 8.43 56.08 4.21 56.08 4.21 60.08 4.21 64.09 4.21 68.09 4.21 72.1 8.43 72.1 12.64 72.1 12.64 68.09 12.64 64.09 8.43 64.09 8.43 60.08"/><polygon class="cls-2" points="21.07 56.08 21.07 52.07 16.85 52.07 12.64 52.07 12.64 56.08 12.64 60.08 16.85 60.08 16.85 64.09 16.85 68.09 21.07 68.09 21.07 64.09 25.28 64.09 25.28 60.08 21.07 60.08 21.07 56.08"/><polygon class="cls-2" points="67.42 48.07 67.42 52.07 71.63 52.07 75.84 52.07 75.84 48.07 71.63 48.07 67.42 48.07"/><polygon class="cls-2" points="54.77 48.07 54.77 52.07 54.77 56.08 58.99 56.08 58.99 52.07 63.2 52.07 63.2 48.07 58.99 48.07 54.77 48.07"/><polygon class="cls-2" points="46.35 48.07 46.35 44.06 42.13 44.06 42.13 40.05 42.13 36.05 37.92 36.05 37.92 40.05 37.92 44.06 37.92 48.07 37.92 52.07 42.13 52.07 42.13 56.08 46.35 56.08 50.56 56.08 50.56 52.07 46.35 52.07 46.35 48.07"/><polygon class="cls-2" points="25.28 48.07 25.28 52.07 25.28 56.08 29.49 56.08 29.49 60.08 29.49 64.09 33.71 64.09 33.71 60.08 33.71 56.08 33.71 52.07 33.71 48.07 29.49 48.07 25.28 48.07"/><polygon class="cls-2" points="80.06 44.06 80.06 48.07 84.27 48.07 88.48 48.07 88.48 44.06 84.27 44.06 80.06 44.06"/><rect class="cls-2" x="46.35" y="32.04" width="4.21" height="4.01"/><polygon class="cls-2" points="67.42 28.04 67.42 24.03 63.2 24.03 58.99 24.03 58.99 28.04 58.99 32.04 63.2 32.04 67.42 32.04 67.42 28.04"/><polygon class="cls-2" points="92.7 24.03 92.7 20.03 88.48 20.03 84.27 20.03 84.27 24.03 88.48 24.03 88.48 28.04 88.48 32.04 88.48 36.05 92.7 36.05 92.7 40.05 92.7 44.06 96.91 44.06 96.91 40.05 96.91 36.05 96.91 32.04 96.91 28.04 92.7 28.04 92.7 24.03"/><polygon class="cls-2" points="80.06 24.03 80.06 20.03 75.84 20.03 75.84 24.03 71.63 24.03 71.63 28.04 75.84 28.04 80.06 28.04 80.06 24.03"/><polygon class="cls-2" points="105.34 20.03 105.34 16.02 101.12 16.02 101.12 20.03 101.12 24.03 101.12 28.04 101.12 32.04 101.12 36.05 105.34 36.05 105.34 32.04 109.55 32.04 109.55 28.04 109.55 24.03 105.34 24.03 105.34 20.03"/><polygon class="cls-2" points="117.98 16.02 117.98 12.02 113.76 12.02 113.76 16.02 113.76 20.03 113.76 24.03 113.76 28.04 117.98 28.04 117.98 24.03 122.19 24.03 122.19 20.03 117.98 20.03 117.98 16.02"/><polygon class="cls-2" points="130.62 12.02 130.62 8.01 126.4 8.01 122.19 8.01 122.19 12.02 126.4 12.02 126.4 16.02 126.4 20.03 130.62 20.03 134.83 20.03 134.83 16.02 130.62 16.02 130.62 12.02"/><polygon class="cls-2" points="134.83 8.01 134.83 12.02 139.04 12.02 139.04 8.01 139.04 4.01 134.83 4.01 134.83 8.01"/><polygon class="cls-3" points="12.64 56.08 8.43 56.08 8.43 60.08 8.43 64.09 12.64 64.09 12.64 68.09 12.64 72.1 16.85 72.1 16.85 68.09 16.85 64.09 16.85 60.08 12.64 60.08 12.64 56.08"/><polygon class="cls-3" points="25.28 52.07 25.28 48.07 21.07 48.07 21.07 52.07 21.07 56.08 21.07 60.08 25.28 60.08 25.28 64.09 29.49 64.09 29.49 60.08 29.49 56.08 25.28 56.08 25.28 52.07"/><rect class="cls-3" x="63.2" y="48.07" width="4.21" height="4.01"/><polygon class="cls-3" points="46.35 48.07 46.35 52.07 50.56 52.07 50.56 56.08 54.77 56.08 54.77 52.07 54.77 48.07 50.56 48.07 46.35 48.07"/><polygon class="cls-3" points="37.92 48.07 37.92 44.06 37.92 40.05 33.71 40.05 33.71 44.06 29.49 44.06 29.49 48.07 33.71 48.07 33.71 52.07 33.71 56.08 33.71 60.08 37.92 60.08 42.13 60.08 42.13 56.08 42.13 52.07 37.92 52.07 37.92 48.07"/><rect class="cls-3" x="75.84" y="44.06" width="4.21" height="4.01"/><polygon class="cls-3" points="46.35 40.05 46.35 36.05 42.13 36.05 42.13 40.05 42.13 44.06 46.35 44.06 46.35 40.05"/><polygon class="cls-3" points="88.48 40.05 84.27 40.05 84.27 44.06 88.48 44.06 92.7 44.06 92.7 40.05 92.7 36.05 88.48 36.05 88.48 40.05"/><polygon class="cls-3" points="84.27 32.04 88.48 32.04 88.48 28.04 88.48 24.03 84.27 24.03 84.27 20.03 80.06 20.03 80.06 24.03 80.06 28.04 84.27 28.04 84.27 32.04"/><rect class="cls-3" x="54.77" y="28.04" width="4.21" height="4.01"/><rect class="cls-3" x="67.42" y="24.03" width="4.21" height="4.01"/><polygon class="cls-3" points="92.7 20.03 92.7 24.03 92.7 28.04 96.91 28.04 96.91 32.04 96.91 36.05 96.91 40.05 101.12 40.05 101.12 36.05 101.12 32.04 101.12 28.04 101.12 24.03 101.12 20.03 96.91 20.03 92.7 20.03"/><polygon class="cls-3" points="105.34 16.02 105.34 20.03 105.34 24.03 109.55 24.03 109.55 28.04 113.76 28.04 113.76 24.03 113.76 20.03 113.76 16.02 109.55 16.02 105.34 16.02"/><polygon class="cls-3" points="117.98 12.02 117.98 16.02 117.98 20.03 122.19 20.03 122.19 24.03 126.4 24.03 126.4 20.03 126.4 16.02 126.4 12.02 122.19 12.02 117.98 12.02"/><polygon class="cls-3" points="134.83 8.01 134.83 4.01 130.62 4.01 130.62 8.01 130.62 12.02 130.62 16.02 134.83 16.02 134.83 20.03 139.04 20.03 139.04 16.02 139.04 12.02 134.83 12.02 134.83 8.01"/><polygon class="cls-4" points="109.55 28.04 109.55 32.04 113.76 32.04 117.98 32.04 117.98 28.04 113.76 28.04 109.55 28.04"/><polygon class="cls-4" points="8.43 72.1 4.21 72.1 4.21 76.11 8.43 76.11 12.64 76.11 16.85 76.11 16.85 72.1 12.64 72.1 8.43 72.1"/><rect class="cls-4" x="16.85" y="68.09" width="4.21" height="4.01"/><polygon class="cls-4" points="25.28 64.09 21.07 64.09 21.07 68.09 25.28 68.09 29.49 68.09 33.71 68.09 33.71 64.09 29.49 64.09 25.28 64.09"/><polygon class="cls-4" points="4.21 64.09 4.21 60.08 4.21 56.08 0 56.08 0 60.08 0 64.09 0 68.09 0 72.1 4.21 72.1 4.21 68.09 4.21 64.09"/><polygon class="cls-4" points="33.71 60.08 33.71 64.09 37.92 64.09 42.13 64.09 42.13 60.08 37.92 60.08 33.71 60.08"/><polygon class="cls-4" points="50.56 56.08 46.35 56.08 42.13 56.08 42.13 60.08 46.35 60.08 50.56 60.08 54.77 60.08 58.99 60.08 58.99 56.08 54.77 56.08 50.56 56.08"/><polygon class="cls-4" points="67.42 52.07 63.2 52.07 58.99 52.07 58.99 56.08 63.2 56.08 67.42 56.08 71.63 56.08 75.84 56.08 75.84 52.07 71.63 52.07 67.42 52.07"/><polygon class="cls-4" points="12.64 56.08 12.64 52.07 8.43 52.07 4.21 52.07 4.21 56.08 8.43 56.08 12.64 56.08"/><polygon class="cls-4" points="80.06 48.07 75.84 48.07 75.84 52.07 80.06 52.07 84.27 52.07 88.48 52.07 88.48 48.07 84.27 48.07 80.06 48.07"/><polygon class="cls-4" points="21.07 52.07 21.07 48.07 16.85 48.07 12.64 48.07 12.64 52.07 16.85 52.07 21.07 52.07"/><polygon class="cls-4" points="88.48 44.06 88.48 48.07 92.7 48.07 96.91 48.07 96.91 44.06 92.7 44.06 88.48 44.06"/><polygon class="cls-4" points="29.49 48.07 29.49 44.06 25.28 44.06 21.07 44.06 21.07 48.07 25.28 48.07 29.49 48.07"/><rect class="cls-4" x="96.91" y="40.06" width="4.21" height="4.01"/><rect class="cls-4" x="29.49" y="40.06" width="4.21" height="4.01"/><rect class="cls-4" x="101.12" y="36.05" width="4.21" height="4.01"/><rect class="cls-4" x="33.71" y="36.05" width="4.21" height="4.01"/><rect class="cls-4" x="105.34" y="32.04" width="4.21" height="4.01"/><polygon class="cls-4" points="46.35 36.05 46.35 32.04 42.13 32.04 37.92 32.04 37.92 36.05 42.13 36.05 46.35 36.05"/><rect class="cls-4" x="46.35" y="28.04" width="4.21" height="4.01"/><polygon class="cls-4" points="117.98 24.03 117.98 28.04 122.19 28.04 126.4 28.04 126.4 24.03 122.19 24.03 117.98 24.03"/><polygon class="cls-4" points="58.99 28.04 58.99 24.03 54.77 24.03 50.56 24.03 50.56 28.04 54.77 28.04 58.99 28.04"/><polygon class="cls-4" points="130.62 20.03 126.4 20.03 126.4 24.03 130.62 24.03 134.83 24.03 139.04 24.03 139.04 20.03 134.83 20.03 130.62 20.03"/><polygon class="cls-4" points="67.42 24.03 71.63 24.03 75.84 24.03 75.84 20.03 71.63 20.03 67.42 20.03 63.2 20.03 58.99 20.03 58.99 24.03 63.2 24.03 67.42 24.03"/><polygon class="cls-4" points="84.27 20.03 88.48 20.03 92.7 20.03 96.91 20.03 101.12 20.03 101.12 16.02 96.91 16.02 92.7 16.02 88.48 16.02 84.27 16.02 80.06 16.02 75.84 16.02 75.84 20.03 80.06 20.03 84.27 20.03"/><polygon class="cls-4" points="109.55 16.02 113.76 16.02 113.76 12.02 109.55 12.02 105.34 12.02 101.12 12.02 101.12 16.02 105.34 16.02 109.55 16.02"/><polygon class="cls-4" points="122.19 12.02 122.19 8.01 117.98 8.01 113.76 8.01 113.76 12.02 117.98 12.02 122.19 12.02"/><polygon class="cls-4" points="139.04 8.01 139.04 12.02 139.04 16.02 139.04 20.03 143.26 20.03 143.26 16.02 143.26 12.02 143.26 8.01 143.26 4.01 139.04 4.01 139.04 8.01"/><polygon class="cls-4" points="130.62 8.01 130.62 4.01 126.4 4.01 122.19 4.01 122.19 8.01 126.4 8.01 130.62 8.01"/><polygon class="cls-4" points="139.04 4.01 139.04 0 134.83 0 130.62 0 130.62 4.01 134.83 4.01 139.04 4.01"/><path class="cls-5" d="M84.27,40.06V28H67.42v4H50.56v4m0,0H46.35v12H75.84v-4h8.43v-4"/><polygon class="cls-5" points="84.27 36.05 84.27 40.05 88.48 40.05 88.48 36.05 88.48 32.04 84.27 32.04 84.27 36.05"/></g></g></g></g></g></g></svg>