<svg xmlns="http://www.w3.org/2000/svg" viewBox="0 0 127.05 139.18"><defs><style>.cls-1{fill:#caead9;}.cls-2{fill:#4cb9b3;}.cls-3{fill:#8dd2bd;}.cls-4{fill:#ceecdb;}.cls-5{fill:#0d0b16;}.cls-6{fill:#317c80;}</style></defs><g id="Layer_2" data-name="Layer 2"><g id="Icons"><g id="Level_3" data-name="Level 3"><g id="Ecto"><g id="NerveCells"><g id="NerveCells-Base"><rect class="cls-1" x="21.17" y="54.83" width="4.23" height="4.22"/><polygon class="cls-2" points="80.47 97 80.47 92.78 76.23 92.78 76.23 88.57 76.23 84.35 76.23 80.13 72 80.13 72 75.92 67.76 75.92 67.76 71.7 67.76 67.48 63.52 67.48 63.52 63.26 63.52 59.05 59.29 59.05 59.29 63.26 55.05 63.26 55.05 67.48 59.29 67.48 59.29 71.7 63.52 71.7 63.52 75.92 63.52 80.13 67.76 80.13 67.76 84.35 72 84.35 72 88.57 72 92.78 72 97 76.23 97 76.23 101.22 76.23 105.44 80.47 105.44 80.47 109.66 84.7 109.66 84.7 105.44 84.7 101.22 80.47 101.22 80.47 97"/><polyline class="cls-2" points="50.82 42.17 55.05 42.17 55.05 37.96 55.05 33.74 55.05 29.52 50.82 29.52 46.59 29.52 42.35 29.52 38.12 29.52 33.88 29.52 29.64 29.52 29.64 33.74 25.41 33.74 25.41 37.96 29.64 37.96 29.64 42.17 29.64 46.39 33.88 46.39 33.88 42.17"/><rect class="cls-3" x="59.29" y="29.52" width="4.24" height="4.22"/><polygon class="cls-3" points="8.47 59.05 4.24 59.05 4.24 63.26 4.24 67.48 8.47 67.48 8.47 63.26 12.71 63.26 16.94 63.26 16.94 59.05 12.71 59.05 8.47 59.05"/><polygon class="cls-3" points="80.47 42.17 76.23 42.17 72 42.17 72 37.96 67.76 37.96 67.76 33.74 63.52 33.74 63.52 37.96 63.52 42.17 59.29 42.17 59.29 46.39 55.05 46.39 55.05 50.61 50.82 50.61 50.82 54.83 46.59 54.83 42.35 54.83 38.12 54.83 33.88 54.83 29.64 54.83 25.41 54.83 25.41 59.05 29.64 59.05 33.88 59.05 38.12 59.05 38.12 63.26 42.35 63.26 42.35 67.48 42.35 71.7 38.12 71.7 38.12 75.92 42.35 75.92 46.59 75.92 50.82 75.92 50.82 71.7 55.05 71.7 55.05 67.48 50.82 67.48 50.82 63.26 55.05 63.26 55.05 59.05 59.29 59.05 59.29 54.83 59.29 50.61 63.52 50.61 63.52 46.39 67.76 46.39 72 46.39 76.23 46.39 76.23 50.61 80.47 50.61 80.47 46.39 84.7 46.39 84.7 42.17 84.7 37.96 80.47 37.96 80.47 42.17"/><polygon class="cls-4" points="59.29 29.52 59.29 25.3 59.29 21.09 55.05 21.09 55.05 16.87 55.05 12.65 59.29 12.65 59.29 8.44 55.05 8.44 55.05 4.22 50.82 4.22 46.59 4.22 46.59 8.44 50.82 8.44 50.82 12.65 46.59 12.65 46.59 16.87 42.35 16.87 42.35 21.09 38.12 21.09 38.12 25.3 33.88 25.3 29.64 25.3 25.41 25.3 21.18 25.3 21.18 21.09 16.94 21.09 16.94 16.87 16.94 12.65 12.71 12.65 12.71 16.87 8.47 16.87 8.47 12.65 4.24 12.65 4.24 16.87 4.24 21.09 8.47 21.09 8.47 25.3 12.71 25.3 12.71 29.52 16.94 29.52 16.94 33.74 16.94 37.96 21.18 37.96 21.18 42.17 21.18 46.39 21.18 50.61 16.94 50.61 16.94 54.83 12.71 54.83 12.71 59.05 16.94 59.05 21.18 59.05 21.18 54.83 25.41 54.83 29.64 54.83 29.64 50.61 29.64 46.39 25.41 46.39 25.41 42.17 25.41 37.96 25.41 33.74 29.64 33.74 29.64 29.52 33.88 29.52 38.12 29.52 42.35 29.52 46.59 29.52 50.82 29.52 55.05 29.52 55.05 33.74 55.05 37.96 55.05 42.17 55.05 46.39 59.29 46.39 59.29 42.17 63.52 42.17 63.52 37.96 63.52 33.74 59.29 33.74 59.29 29.52"/><polygon class="cls-5" points="84.7 46.39 88.94 46.39 88.94 42.17 88.94 37.96 84.7 37.96 84.7 42.17 84.7 46.39"/><rect class="cls-5" x="80.46" y="33.74" width="4.24" height="4.22"/><polygon class="cls-5" points="4.24 12.65 0 12.65 0 16.87 0 21.09 4.24 21.09 4.24 16.87 4.24 12.65"/><rect class="cls-5" x="101.64" y="134.96" width="4.24" height="4.22"/><polygon class="cls-5" points="93.17 134.96 97.41 134.96 101.64 134.96 101.64 130.74 97.41 130.74 93.17 130.74 88.94 130.74 88.94 134.96 93.17 134.96"/><polygon class="cls-5" points="72 130.74 72 134.96 76.23 134.96 76.23 130.74 76.23 126.53 72 126.53 72 130.74"/><polygon class="cls-5" points="84.7 126.53 84.7 130.74 88.94 130.74 88.94 126.53 88.94 122.31 88.94 118.09 84.7 118.09 84.7 122.31 84.7 126.53"/><polygon class="cls-5" points="76.23 122.31 76.23 126.53 80.47 126.53 80.47 122.31 80.47 118.09 76.23 118.09 76.23 122.31"/><polygon class="cls-5" points="80.47 113.87 80.47 118.09 84.7 118.09 84.7 113.87 84.7 109.66 80.47 109.66 80.47 113.87"/><polygon class="cls-5" points="84.7 109.66 88.94 109.66 93.17 109.66 97.41 109.66 101.64 109.66 101.64 105.44 97.41 105.44 93.17 105.44 88.94 105.44 88.94 101.22 84.7 101.22 84.7 105.44 84.7 109.66"/><rect class="cls-5" x="76.23" y="105.44" width="4.24" height="4.22"/><polygon class="cls-5" points="110.11 105.44 114.34 105.44 114.34 101.22 110.11 101.22 105.88 101.22 101.64 101.22 101.64 105.44 105.88 105.44 110.11 105.44"/><polygon class="cls-5" points="76.23 97 72 97 72 101.22 72 105.44 76.23 105.44 76.23 101.22 76.23 97"/><rect class="cls-5" x="114.34" y="97" width="4.24" height="4.22"/><polygon class="cls-5" points="97.41 101.22 97.41 97 97.41 92.78 97.41 88.57 93.17 88.57 93.17 92.78 93.17 97 88.94 97 88.94 101.22 93.17 101.22 97.41 101.22"/><polygon class="cls-5" points="122.81 92.78 122.81 88.57 118.58 88.57 118.58 92.78 118.58 97 122.81 97 122.81 92.78"/><polygon class="cls-5" points="80.47 101.22 84.7 101.22 84.7 97 84.7 92.78 80.47 92.78 80.47 97 80.47 101.22"/><polygon class="cls-5" points="72 88.57 72 84.35 67.76 84.35 67.76 88.57 67.76 92.78 67.76 97 72 97 72 92.78 72 88.57"/><polygon class="cls-5" points="127.05 84.35 127.05 80.13 122.81 80.13 122.81 84.35 122.81 88.57 127.05 88.57 127.05 84.35"/><rect class="cls-5" x="97.4" y="84.35" width="4.24" height="4.22"/><rect class="cls-5" x="71.99" y="75.91" width="4.24" height="4.22"/><polygon class="cls-5" points="76.23 88.57 76.23 92.78 80.47 92.78 80.47 88.57 80.47 84.35 80.47 80.13 76.23 80.13 76.23 84.35 76.23 88.57"/><rect class="cls-5" x="101.64" y="80.13" width="4.24" height="4.22"/><rect class="cls-5" x="63.52" y="80.13" width="4.24" height="4.22"/><polygon class="cls-5" points="63.52 71.7 59.29 71.7 59.29 75.92 59.29 80.13 63.52 80.13 63.52 75.92 63.52 71.7"/><polygon class="cls-5" points="42.35 75.92 38.12 75.92 38.12 80.13 42.35 80.13 46.59 80.13 50.82 80.13 50.82 75.92 46.59 75.92 42.35 75.92"/><polygon class="cls-5" points="67.76 75.92 72 75.92 72 71.7 72 67.48 67.76 67.48 67.76 71.7 67.76 75.92"/><rect class="cls-5" x="50.82" y="71.7" width="4.24" height="4.22"/><rect class="cls-5" x="33.88" y="71.7" width="4.24" height="4.22"/><rect class="cls-5" x="55.05" y="67.48" width="4.24" height="4.22"/><polygon class="cls-5" points="42.35 67.48 42.35 63.26 38.12 63.26 38.12 67.48 38.12 71.7 42.35 71.7 42.35 67.48"/><rect class="cls-5" x="4.24" y="67.48" width="4.23" height="4.22"/><polygon class="cls-5" points="63.52 67.48 67.76 67.48 67.76 63.26 67.76 59.05 63.52 59.05 63.52 63.26 63.52 67.48"/><rect class="cls-5" x="50.82" y="63.26" width="4.24" height="4.22"/><polygon class="cls-5" points="8.47 63.26 8.47 67.48 12.71 67.48 16.94 67.48 16.94 63.26 12.71 63.26 8.47 63.26"/><polygon class="cls-5" points="4.24 63.26 4.24 59.05 0 59.05 0 63.26 0 67.48 4.24 67.48 4.24 63.26"/><rect class="cls-5" x="55.05" y="59.04" width="4.24" height="4.22"/><polygon class="cls-5" points="33.88 59.05 29.64 59.05 25.41 59.05 21.18 59.05 16.94 59.05 16.94 63.26 21.18 63.26 25.41 63.26 29.64 63.26 33.88 63.26 38.12 63.26 38.12 59.05 33.88 59.05"/><polygon class="cls-5" points="59.29 54.83 59.29 59.05 63.52 59.05 63.52 54.83 63.52 50.61 59.29 50.61 59.29 54.83"/><polygon class="cls-5" points="12.71 59.05 12.71 54.83 8.47 54.83 4.24 54.83 4.24 59.05 8.47 59.05 12.71 59.05"/><rect class="cls-5" x="76.23" y="50.61" width="4.24" height="4.22"/><rect class="cls-5" x="12.7" y="50.61" width="4.24" height="4.22"/><rect class="cls-5" x="80.46" y="46.39" width="4.24" height="4.22"/><polygon class="cls-5" points="72 46.39 67.76 46.39 63.52 46.39 63.52 50.61 67.76 50.61 72 50.61 76.23 50.61 76.23 46.39 72 46.39"/><polygon class="cls-5" points="21.18 46.39 21.18 42.17 21.18 37.96 16.94 37.96 16.94 42.17 16.94 46.39 16.94 50.61 21.18 50.61 21.18 46.39"/><polygon class="cls-5" points="76.23 42.17 80.47 42.17 80.47 37.96 76.23 37.96 72 37.96 72 42.17 76.23 42.17"/><rect class="cls-5" x="67.76" y="33.74" width="4.23" height="4.22"/><rect class="cls-5" x="63.52" y="29.52" width="4.24" height="4.22"/><polygon class="cls-5" points="16.94 29.52 12.71 29.52 12.71 33.74 12.71 37.96 16.94 37.96 16.94 33.74 16.94 29.52"/><polygon class="cls-5" points="59.29 29.52 63.52 29.52 63.52 25.3 63.52 21.09 59.29 21.09 59.29 25.3 59.29 29.52"/><rect class="cls-5" x="8.47" y="25.3" width="4.24" height="4.22"/><rect class="cls-5" x="4.24" y="21.09" width="4.23" height="4.22"/><rect class="cls-5" x="38.11" y="16.87" width="4.24" height="4.22"/><polygon class="cls-5" points="16.94 21.09 21.18 21.09 21.18 16.87 21.18 12.65 16.94 12.65 16.94 16.87 16.94 21.09"/><polygon class="cls-5" points="25.41 25.3 29.64 25.3 33.88 25.3 38.12 25.3 38.12 21.09 33.88 21.09 29.64 21.09 25.41 21.09 21.18 21.09 21.18 25.3 25.41 25.3"/><polygon class="cls-5" points="55.05 16.87 55.05 21.09 59.29 21.09 59.29 16.87 59.29 12.65 55.05 12.65 55.05 16.87"/><rect class="cls-5" x="42.35" y="12.65" width="4.24" height="4.22"/><rect class="cls-5" x="8.47" y="12.65" width="4.24" height="4.22"/><rect class="cls-5" x="59.29" y="8.44" width="4.24" height="4.22"/><rect class="cls-5" x="46.58" y="8.44" width="4.23" height="4.22"/><rect class="cls-5" x="12.7" y="8.44" width="4.24" height="4.22"/><rect class="cls-5" x="4.24" y="8.44" width="4.23" height="4.22"/><rect class="cls-5" x="55.05" y="4.22" width="4.24" height="4.22"/><rect class="cls-5" x="42.35" y="4.22" width="4.24" height="4.22"/><polygon class="cls-5" points="55.05 4.22 55.05 0 50.82 0 46.59 0 46.59 4.22 50.82 4.22 55.05 4.22"/><polyline class="cls-6" points="33.88 42.17 33.88 46.39 29.64 46.39 29.64 50.61 29.64 54.83 33.88 54.83 38.12 54.83 42.35 54.83 46.59 54.83 50.82 54.83 50.82 50.61 55.05 50.61 55.05 46.39 55.05 42.17 50.82 42.17"/><polygon class="cls-6" points="29.64 37.96 25.41 37.96 25.41 42.17 25.41 46.39 29.64 46.39 29.64 42.17 29.64 37.96"/></g></g></g></g></g></g></svg>