<svg xmlns="http://www.w3.org/2000/svg" viewBox="0 0 142.74 62.71"><defs><style>.cls-1{fill:#fcfefa;}.cls-2{fill:#fafdf6;}.cls-3{fill:#fff;}.cls-4{fill:#a6da89;}.cls-5{fill:#cceaad;}.cls-6{fill:#0d0b16;}.cls-7{fill:#4cad38;}</style></defs><g id="Layer_2" data-name="Layer 2"><g id="Icons"><g id="Level_4" data-name="Level 4"><g id="Endo"><g id="Pancreas"><g id="Pancreas-Base"><rect class="cls-1" x="58.78" y="8.36" width="4.2" height="4.18"/><rect class="cls-2" x="54.58" y="8.36" width="4.2" height="4.18"/><polygon class="cls-3" points="54.58 8.36 50.38 8.36 46.18 8.36 41.98 8.36 41.98 4.18 37.78 4.18 33.59 4.18 29.39 4.18 29.39 8.36 25.19 8.36 20.99 8.36 16.79 8.36 16.79 12.54 20.99 12.54 25.19 12.54 29.39 12.54 33.59 12.54 33.59 8.36 37.78 8.36 37.78 12.54 41.98 12.54 46.18 12.54 50.38 12.54 54.58 12.54 54.58 8.36"/><path class="cls-4" d="M71.37,37.63h8.4v4.18H92.36V37.63H105V33.45h12.59V29.27h-21v4.18h-4.2V29.27h4.2V25.09h21v4.18H126V20.9H79.77V16.72H25.19V20.9H21v8.37h-4.2v20.9h12.6V46h4.2V37.63H58.78m-21-8.36H33.59v4.18h-4.2v4.18h-4.2V46H21V37.63h4.2V33.45h4.2V29.27h4.2V25.09h4.19Z"/><polygon class="cls-5" points="134.35 16.72 134.35 12.54 130.15 12.54 125.95 12.54 121.75 12.54 117.55 12.54 117.55 16.72 113.35 16.72 109.16 16.72 104.96 16.72 100.76 16.72 100.76 12.54 96.56 12.54 92.36 12.54 88.16 12.54 88.16 8.36 83.97 8.36 79.77 8.36 75.57 8.36 71.37 8.36 67.17 8.36 62.98 8.36 62.98 12.54 58.78 12.54 54.58 12.54 50.38 12.54 46.18 12.54 41.98 12.54 37.78 12.54 37.78 8.36 33.59 8.36 33.59 12.54 29.39 12.54 25.19 12.54 20.99 12.54 16.79 12.54 16.79 16.72 12.6 16.72 12.6 20.91 12.6 25.09 8.4 25.09 8.4 29.27 8.4 33.45 8.4 37.63 4.2 37.63 4.2 41.81 4.2 45.99 4.2 50.17 8.4 50.17 8.4 54.35 8.4 58.53 12.6 58.53 16.79 58.53 20.99 58.53 25.19 58.53 29.39 58.53 33.59 58.53 33.59 54.35 37.78 54.35 37.78 50.17 41.98 50.17 41.98 45.99 46.18 45.99 50.38 45.99 54.58 45.99 58.78 45.99 62.98 45.99 67.17 45.99 71.37 45.99 75.57 45.99 75.57 50.17 79.77 50.17 83.97 50.17 83.97 45.99 88.16 45.99 92.36 45.99 96.56 45.99 100.76 45.99 100.76 41.81 104.96 41.81 109.16 41.81 109.16 37.63 113.35 37.63 117.55 37.63 117.55 33.45 113.35 33.45 109.16 33.45 104.96 33.45 104.96 37.63 100.76 37.63 96.56 37.63 92.36 37.63 92.36 41.81 88.16 41.81 83.97 41.81 79.77 41.81 79.77 37.63 75.57 37.63 71.37 37.63 67.17 37.63 62.98 37.63 58.78 37.63 54.58 37.63 50.38 37.63 46.18 37.63 41.98 37.63 37.78 37.63 33.59 37.63 33.59 41.81 33.59 45.99 29.39 45.99 29.39 50.17 25.19 50.17 20.99 50.17 16.79 50.17 16.79 45.99 16.79 41.81 16.79 37.63 16.79 33.45 16.79 29.27 20.99 29.27 20.99 25.09 20.99 20.91 25.19 20.91 25.19 16.72 29.39 16.72 33.59 16.72 37.78 16.72 41.98 16.72 46.18 16.72 50.38 16.72 54.58 16.72 58.78 16.72 62.98 16.72 67.17 16.72 71.37 16.72 75.57 16.72 79.77 16.72 79.77 20.91 83.97 20.91 88.16 20.91 92.36 20.91 96.56 20.91 100.76 20.91 104.96 20.91 109.16 20.91 113.35 20.91 117.55 20.91 121.75 20.91 125.95 20.91 125.95 25.09 125.95 29.27 121.75 29.27 117.55 29.27 117.55 33.45 121.75 33.45 125.95 33.45 130.15 33.45 130.15 29.27 134.35 29.27 134.35 25.09 134.35 20.91 138.54 20.91 138.54 16.72 134.35 16.72"/><polygon class="cls-6" points="25.19 58.53 20.99 58.53 16.79 58.53 12.6 58.53 8.4 58.53 8.4 62.71 12.6 62.71 16.79 62.71 20.99 62.71 25.19 62.71 29.39 62.71 33.59 62.71 33.59 58.53 29.39 58.53 25.19 58.53"/><rect class="cls-6" x="33.59" y="54.35" width="4.2" height="4.18"/><polygon class="cls-6" points="75.57 50.17 75.57 54.35 79.77 54.35 83.97 54.35 83.97 50.17 79.77 50.17 75.57 50.17"/><rect class="cls-6" x="37.78" y="50.17" width="4.2" height="4.18"/><polygon class="cls-6" points="8.4 50.17 4.2 50.17 4.2 54.35 4.2 58.53 8.4 58.53 8.4 54.35 8.4 50.17"/><polygon class="cls-6" points="92.36 45.99 88.16 45.99 83.97 45.99 83.97 50.17 88.16 50.17 92.36 50.17 96.56 50.17 100.76 50.17 100.76 45.99 96.56 45.99 92.36 45.99"/><polygon class="cls-6" points="71.37 45.99 67.17 45.99 62.98 45.99 58.78 45.99 54.58 45.99 50.38 45.99 46.18 45.99 41.98 45.99 41.98 50.17 46.18 50.17 50.38 50.17 54.58 50.17 58.78 50.17 62.98 50.17 67.17 50.17 71.37 50.17 75.57 50.17 75.57 45.99 71.37 45.99"/><polygon class="cls-6" points="100.76 41.81 100.76 45.99 104.96 45.99 109.16 45.99 109.16 41.81 104.96 41.81 100.76 41.81"/><polygon class="cls-6" points="4.2 41.81 4.2 37.63 0 37.63 0 41.81 0 45.99 0 50.17 4.2 50.17 4.2 45.99 4.2 41.81"/><polygon class="cls-6" points="109.16 37.63 109.16 41.81 113.35 41.81 117.55 41.81 117.55 37.63 113.35 37.63 109.16 37.63"/><polygon class="cls-6" points="125.95 37.63 130.15 37.63 130.15 33.45 125.95 33.45 121.75 33.45 117.55 33.45 117.55 37.63 121.75 37.63 125.95 37.63"/><polygon class="cls-6" points="8.4 33.45 8.4 29.27 8.4 25.09 4.2 25.09 4.2 29.27 4.2 33.45 4.2 37.63 8.4 37.63 8.4 33.45"/><polygon class="cls-6" points="134.35 25.09 134.35 29.27 138.54 29.27 138.54 25.09 138.54 20.91 134.35 20.91 134.35 25.09"/><rect class="cls-6" x="130.15" y="29.27" width="4.2" height="4.18"/><polygon class="cls-6" points="12.6 20.91 12.6 16.72 8.4 16.72 8.4 20.91 8.4 25.09 12.6 25.09 12.6 20.91"/><polygon class="cls-6" points="16.79 12.54 16.79 8.36 12.6 8.36 12.6 12.54 12.6 16.72 16.79 16.72 16.79 12.54"/><rect class="cls-6" x="138.54" y="16.72" width="4.2" height="4.18"/><rect class="cls-6" x="134.35" y="12.54" width="4.2" height="4.18"/><polygon class="cls-6" points="104.96 16.72 109.16 16.72 113.35 16.72 117.55 16.72 117.55 12.54 113.35 12.54 109.16 12.54 104.96 12.54 100.76 12.54 100.76 16.72 104.96 16.72"/><polygon class="cls-6" points="125.95 12.54 130.15 12.54 134.35 12.54 134.35 8.36 130.15 8.36 125.95 8.36 121.75 8.36 117.55 8.36 117.55 12.54 121.75 12.54 125.95 12.54"/><polygon class="cls-6" points="92.36 12.54 96.56 12.54 100.76 12.54 100.76 8.36 96.56 8.36 92.36 8.36 88.16 8.36 88.16 12.54 92.36 12.54"/><polygon class="cls-6" points="46.18 8.36 50.38 8.36 54.58 8.36 58.78 8.36 62.98 8.36 67.17 8.36 71.37 8.36 75.57 8.36 79.77 8.36 83.97 8.36 88.16 8.36 88.16 4.18 83.97 4.18 79.77 4.18 75.57 4.18 71.37 4.18 67.17 4.18 62.98 4.18 58.78 4.18 54.58 4.18 50.38 4.18 46.18 4.18 41.98 4.18 41.98 8.36 46.18 8.36"/><polygon class="cls-6" points="25.19 8.36 29.39 8.36 29.39 4.18 25.19 4.18 20.99 4.18 16.79 4.18 16.79 8.36 20.99 8.36 25.19 8.36"/><polygon class="cls-6" points="37.78 4.18 41.98 4.18 41.98 0 37.78 0 33.59 0 29.39 0 29.39 4.18 33.59 4.18 37.78 4.18"/><polygon class="cls-7" points="20.99 41.81 20.99 45.99 25.19 45.99 25.19 41.81 25.19 37.63 20.99 37.63 20.99 41.81"/><rect class="cls-7" x="25.19" y="33.45" width="4.2" height="4.18"/><rect class="cls-7" x="92.36" y="29.27" width="4.2" height="4.18"/><rect class="cls-7" x="29.39" y="29.27" width="4.2" height="4.18"/><polygon class="cls-7" points="109.16 25.09 104.96 25.09 100.76 25.09 96.56 25.09 96.56 29.27 100.76 29.27 104.96 29.27 109.16 29.27 113.35 29.27 117.55 29.27 117.55 25.09 113.35 25.09 109.16 25.09"/><rect class="cls-7" x="33.59" y="25.09" width="4.2" height="4.18"/></g></g></g></g></g></g></svg>