<svg xmlns="http://www.w3.org/2000/svg" viewBox="0 0 24.9 16.6"><defs><style>.cls-1{fill:#ea180e;}.cls-2{fill:#fff;}.cls-3{fill:#0d0b16;}</style></defs><g id="Layer_2" data-name="Layer 2"><g id="Icons"><g id="Level_1" data-name="Level 1"><g id="Pluripotent_stem_cell" data-name="Pluripotent stem cell"><g id="Pluripotent-Face"><g id="Mouth"><polygon class="cls-1" points="12.45 16.6 12.45 12.45 8.3 12.45 4.15 12.45 4.15 16.6 8.3 16.6 12.45 16.6"/><polygon class="cls-2" points="16.6 0 12.45 0 8.3 0 4.15 0 0 0 0 4.15 4.15 4.15 8.3 4.15 12.45 4.15 16.6 4.15 20.75 4.15 24.9 4.15 24.9 0 20.75 0 16.6 0"/><polygon class="cls-3" points="16.6 4.15 12.45 4.15 8.3 4.15 4.15 4.15 0 4.15 0 8.3 0 12.45 4.15 12.45 8.3 12.45 12.45 12.45 12.45 16.6 16.6 16.6 20.75 16.6 20.75 12.45 24.9 12.45 24.9 8.3 24.9 4.15 20.75 4.15 16.6 4.15"/></g></g></g></g></g></g></svg>