<svg xmlns="http://www.w3.org/2000/svg" viewBox="0 0 141.1 116.2"><defs><style>.cls-1{fill:#80b2d4;}.cls-2{fill:#1f3492;}.cls-3{fill:#3b419b;}.cls-4{fill:#b3d4e7;}.cls-5{fill:#0d0b16;}</style></defs><g id="Layer_2" data-name="Layer 2"><g id="Icons"><g id="Level_1" data-name="Level 1"><g id="Pluripotent_stem_cell" data-name="Pluripotent stem cell"><g id="Pluripotent-Base"><polygon class="cls-1" points="132.8 37.35 132.8 33.2 132.8 29.05 128.65 29.05 128.65 33.2 128.65 37.35 128.65 41.5 128.65 45.65 128.65 49.8 128.65 53.95 128.65 58.1 124.5 58.1 124.5 62.25 124.5 66.4 124.5 70.55 120.35 70.55 120.35 74.7 116.2 74.7 116.2 78.85 112.05 78.85 112.05 83 107.9 83 107.9 87.15 103.75 87.15 103.75 91.3 99.6 91.3 95.45 91.3 95.45 95.45 91.3 95.45 87.15 95.45 87.15 99.6 83 99.6 78.85 99.6 74.7 99.6 70.55 99.6 66.4 99.6 62.25 99.6 58.1 99.6 53.95 99.6 49.8 99.6 45.65 99.6 45.65 95.45 41.5 95.45 37.35 95.45 37.35 91.3 33.2 91.3 29.05 91.3 29.05 87.15 24.9 87.15 24.9 83 20.75 83 20.75 78.85 16.6 78.85 16.6 74.7 16.6 70.55 12.45 70.55 12.45 66.4 12.45 62.25 8.3 62.25 8.3 58.1 8.3 53.95 8.3 49.8 4.15 49.8 4.15 53.95 4.15 58.1 4.15 62.25 4.15 66.4 4.15 70.55 4.15 74.7 8.3 74.7 8.3 78.85 8.3 83 12.45 83 12.45 87.15 12.45 91.3 16.6 91.3 16.6 95.45 20.75 95.45 20.75 99.6 24.9 99.6 29.05 99.6 29.05 103.75 33.2 103.75 33.2 107.9 37.35 107.9 41.5 107.9 45.65 107.9 45.65 112.05 49.8 112.05 53.95 112.05 58.1 112.05 62.25 112.05 66.4 112.05 70.55 112.05 74.7 112.05 78.85 112.05 83 112.05 87.15 112.05 87.15 107.9 91.3 107.9 95.45 107.9 99.6 107.9 99.6 103.75 103.75 103.75 107.9 103.75 107.9 99.6 112.05 99.6 116.2 99.6 116.2 95.45 120.35 95.45 120.35 91.3 124.5 91.3 124.5 87.15 124.5 83 128.65 83 128.65 78.85 132.8 78.85 132.8 74.7 132.8 70.55 132.8 66.4 136.95 66.4 136.95 62.25 136.95 58.1 136.95 53.95 136.95 49.8 136.95 45.65 136.95 41.5 132.8 41.5 132.8 37.35"/><polygon class="cls-2" points="107.9 37.35 107.9 33.2 107.9 29.05 103.75 29.05 103.75 33.2 103.75 37.35 103.75 41.5 103.75 45.65 103.75 49.8 99.6 49.8 99.6 53.95 99.6 58.1 95.45 58.1 95.45 62.25 91.3 62.25 91.3 66.4 87.15 66.4 87.15 70.55 83 70.55 78.85 70.55 78.85 74.7 74.7 74.7 70.55 74.7 66.4 74.7 62.25 74.7 58.1 74.7 53.95 74.7 53.95 70.55 49.8 70.55 45.65 70.55 45.65 66.4 41.5 66.4 41.5 62.25 37.35 62.25 37.35 58.1 37.35 53.95 33.2 53.95 33.2 49.8 33.2 45.65 33.2 41.5 33.2 37.35 29.05 37.35 29.05 41.5 29.05 45.65 29.05 49.8 29.05 53.95 29.05 58.1 29.05 62.25 29.05 66.4 33.2 66.4 33.2 70.55 33.2 74.7 37.35 74.7 37.35 78.85 41.5 78.85 45.65 78.85 45.65 83 49.8 83 49.8 87.15 53.95 87.15 58.1 87.15 62.25 87.15 66.4 87.15 70.55 87.15 74.7 87.15 78.85 87.15 83 87.15 83 83 87.15 83 91.3 83 91.3 78.85 95.45 78.85 99.6 78.85 99.6 74.7 103.75 74.7 103.75 70.55 103.75 66.4 107.9 66.4 107.9 62.25 107.9 58.1 112.05 58.1 112.05 53.95 112.05 49.8 112.05 45.65 112.05 41.5 107.9 41.5 107.9 37.35"/><rect class="cls-2" x="99.6" y="24.9" width="4.15" height="4.15"/><path class="cls-3" d="M99.6,24.9V20.75H95.45V16.6h-8.3V12.45H54V16.6h-8.3v4.15H41.5V24.9H37.35v4.15H33.2V54h4.15v8.3H41.5V66.4h4.15v4.15H54V74.7h24.9V70.55h8.3V66.4H91.3V62.25h4.15V58.1H99.6V49.8h4.15V29.05H99.6Z"/><path class="cls-4" d="M124.5,20.75h-4.15V16.6H116.2V12.45h-8.3V8.3H99.6V4.15H49.8V8.3H41.5v4.15H33.2V16.6H29.05v4.15h-8.3V24.9H16.6v4.15H12.45v8.3H8.3v24.9h4.15v8.3H16.6v8.3h4.15V83H24.9v4.15h4.15V91.3h8.3v4.15h8.3V99.6h41.5V95.45h8.3V91.3h8.3V87.15h4.15V83h4.15V78.85h4.15V74.7h4.15V70.55h4.15V58.1h4.15V24.9H124.5Zm-12.45,24.9V58.1H107.9v8.3h-4.15v8.3H99.6v4.15H91.3V83H83v4.15H49.8V83H45.65V78.85h-8.3V74.7H33.2V66.4H29.05V37.35H33.2v-8.3h4.15V24.9H41.5V20.75h4.15V16.6H54V12.45h33.2V16.6h8.3v4.15H99.6V24.9h4.15v4.15h4.15V41.5h4.15Z"/><polygon class="cls-5" points="12.45 83 8.3 83 8.3 87.15 8.3 91.3 12.45 91.3 12.45 87.15 12.45 83"/><rect class="cls-5" x="116.2" y="95.45" width="4.15" height="4.15"/><polygon class="cls-5" points="78.85 112.05 74.7 112.05 70.55 112.05 66.4 112.05 62.25 112.05 58.1 112.05 53.95 112.05 49.8 112.05 45.65 112.05 45.65 116.2 49.8 116.2 53.95 116.2 58.1 116.2 62.25 116.2 66.4 116.2 70.55 116.2 74.7 116.2 78.85 116.2 83 116.2 87.15 116.2 87.15 112.05 83 112.05 78.85 112.05"/><polygon class="cls-5" points="91.3 107.9 87.15 107.9 87.15 112.05 91.3 112.05 95.45 112.05 99.6 112.05 99.6 107.9 95.45 107.9 91.3 107.9"/><polygon class="cls-5" points="41.5 107.9 37.35 107.9 33.2 107.9 33.2 112.05 37.35 112.05 41.5 112.05 45.65 112.05 45.65 107.9 41.5 107.9"/><polygon class="cls-5" points="99.6 103.75 99.6 107.9 103.75 107.9 107.9 107.9 107.9 103.75 103.75 103.75 99.6 103.75"/><polygon class="cls-5" points="107.9 99.6 107.9 103.75 112.05 103.75 116.2 103.75 116.2 99.6 112.05 99.6 107.9 99.6"/><polygon class="cls-5" points="29.05 103.75 29.05 99.6 24.9 99.6 20.75 99.6 20.75 103.75 24.9 103.75 24.9 107.9 29.05 107.9 33.2 107.9 33.2 103.75 29.05 103.75"/><rect class="cls-5" x="16.6" y="95.45" width="4.15" height="4.15"/><rect class="cls-5" x="120.35" y="91.3" width="4.15" height="4.15"/><rect class="cls-5" x="12.45" y="91.3" width="4.15" height="4.15"/><polygon class="cls-5" points="124.5 87.15 124.5 91.3 128.65 91.3 128.65 87.15 128.65 83 124.5 83 124.5 87.15"/><rect class="cls-5" x="128.65" y="78.85" width="4.15" height="4.15"/><polygon class="cls-5" points="8.3 74.7 4.15 74.7 4.15 78.85 4.15 83 8.3 83 8.3 78.85 8.3 74.7"/><polygon class="cls-5" points="132.8 70.55 132.8 74.7 132.8 78.85 136.95 78.85 136.95 74.7 136.95 70.55 136.95 66.4 132.8 66.4 132.8 70.55"/><polygon class="cls-5" points="4.15 66.4 4.15 62.25 4.15 58.1 4.15 53.95 4.15 49.8 0 49.8 0 53.95 0 58.1 0 62.25 0 66.4 0 70.55 0 74.7 4.15 74.7 4.15 70.55 4.15 66.4"/><polygon class="cls-5" points="136.95 45.65 136.95 49.8 136.95 53.95 136.95 58.1 136.95 62.25 136.95 66.4 141.09 66.4 141.09 62.25 141.09 58.1 141.09 53.95 141.09 49.8 141.09 45.65 141.09 41.5 136.95 41.5 136.95 45.65"/><polygon class="cls-5" points="8.3 45.65 8.3 41.5 8.3 37.35 4.15 37.35 4.15 41.5 4.15 45.65 4.15 49.8 8.3 49.8 8.3 45.65"/><polygon class="cls-5" points="132.8 37.35 132.8 41.5 136.95 41.5 136.95 37.35 136.95 33.2 136.95 29.05 132.8 29.05 132.8 33.2 132.8 37.35"/><polygon class="cls-5" points="12.45 33.2 12.45 29.05 8.3 29.05 8.3 33.2 8.3 37.35 12.45 37.35 12.45 33.2"/><rect class="cls-5" x="128.65" y="24.9" width="4.15" height="4.15"/><rect class="cls-5" x="12.45" y="24.9" width="4.15" height="4.15"/><rect class="cls-5" x="124.5" y="20.75" width="4.15" height="4.15"/><rect class="cls-5" x="16.6" y="20.75" width="4.15" height="4.15"/><rect class="cls-5" x="120.35" y="16.6" width="4.15" height="4.15"/><rect class="cls-5" x="116.2" y="12.45" width="4.15" height="4.15"/><polygon class="cls-5" points="29.05 20.75 29.05 16.6 33.2 16.6 33.2 12.45 29.05 12.45 24.9 12.45 24.9 16.6 20.75 16.6 20.75 20.75 24.9 20.75 29.05 20.75"/><polygon class="cls-5" points="112.05 12.45 116.2 12.45 116.2 8.3 112.05 8.3 107.9 8.3 107.9 12.45 112.05 12.45"/><polygon class="cls-5" points="41.5 12.45 41.5 8.3 37.35 8.3 33.2 8.3 33.2 12.45 37.35 12.45 41.5 12.45"/><polygon class="cls-5" points="103.75 8.3 107.9 8.3 107.9 4.15 103.75 4.15 99.6 4.15 99.6 8.3 103.75 8.3"/><polygon class="cls-5" points="49.8 8.3 49.8 4.15 45.65 4.15 41.5 4.15 41.5 8.3 45.65 8.3 49.8 8.3"/><polygon class="cls-5" points="58.1 4.15 62.25 4.15 66.4 4.15 70.55 4.15 74.7 4.15 78.85 4.15 83 4.15 87.15 4.15 91.3 4.15 95.45 4.15 99.6 4.15 99.6 0 95.45 0 91.3 0 87.15 0 83 0 78.85 0 74.7 0 70.55 0 66.4 0 62.25 0 58.1 0 53.95 0 49.8 0 49.8 4.15 53.95 4.15 58.1 4.15"/></g></g></g></g></g></svg>