<svg xmlns="http://www.w3.org/2000/svg" viewBox="0 0 212.96 120.03"><defs><style>.cls-1{fill:#0d0b16;}.cls-2{fill:#fff;}</style></defs><g id="Layer_2" data-name="Layer 2"><g id="Icons"><g id="Level_1" data-name="Level 1"><g id="Speech_Bubble" data-name="Speech Bubble"><path class="cls-1" d="M209.09,7.74V19.36H69.7V3.87H209.09V0H3.87V3.87H27.1V19.36H3.87V3.87H0V108.42H3.87V23.23H27.1v85.19H3.87v3.87h193.6v-3.87H69.7V23.23H209.09V120H213V3.87h-3.87ZM38.72,27.1v81.32H31V23.23h7.74Zm0-19.36V19.36H31V3.87h7.74ZM65.82,27.1v81.32H42.59V23.23H65.82Zm0-19.36V19.36H42.59V3.87H65.82Z"/><polygon class="cls-2" points="201.34 3.87 197.47 3.87 193.6 3.87 189.73 3.87 185.86 3.87 181.98 3.87 178.11 3.87 174.24 3.87 170.37 3.87 166.5 3.87 162.62 3.87 158.75 3.87 154.88 3.87 151.01 3.87 147.14 3.87 143.26 3.87 139.39 3.87 135.52 3.87 131.65 3.87 127.78 3.87 123.9 3.87 120.03 3.87 116.16 3.87 112.29 3.87 108.42 3.87 104.54 3.87 100.67 3.87 96.8 3.87 92.93 3.87 89.06 3.87 85.18 3.87 81.31 3.87 77.44 3.87 73.57 3.87 69.7 3.87 65.82 3.87 61.95 3.87 58.08 3.87 54.21 3.87 50.34 3.87 46.46 3.87 42.59 3.87 38.72 3.87 34.85 3.87 30.98 3.87 27.1 3.87 23.23 3.87 19.36 3.87 15.49 3.87 11.62 3.87 7.74 3.87 3.87 3.87 3.87 7.74 3.87 11.62 3.87 15.49 3.87 19.36 3.87 23.23 3.87 27.1 3.87 30.98 3.87 34.85 3.87 38.72 3.87 42.59 3.87 46.46 3.87 50.34 3.87 54.21 3.87 58.08 3.87 61.95 3.87 65.82 3.87 69.7 3.87 73.57 3.87 77.44 3.87 81.31 3.87 85.18 3.87 89.06 3.87 92.93 3.87 96.8 3.87 100.67 3.87 104.54 3.87 108.42 7.74 108.42 11.62 108.42 15.49 108.42 19.36 108.42 23.23 108.42 27.1 108.42 30.98 108.42 34.85 108.42 38.72 108.42 42.59 108.42 46.46 108.42 50.34 108.42 54.21 108.42 58.08 108.42 61.95 108.42 65.82 108.42 69.7 108.42 73.57 108.42 77.44 108.42 81.31 108.42 85.18 108.42 89.06 108.42 92.93 108.42 96.8 108.42 100.67 108.42 104.54 108.42 108.42 108.42 112.29 108.42 116.16 108.42 120.03 108.42 123.9 108.42 127.78 108.42 131.65 108.42 135.52 108.42 139.39 108.42 143.26 108.42 147.14 108.42 151.01 108.42 154.88 108.42 158.75 108.42 162.62 108.42 166.5 108.42 170.37 108.42 174.24 108.42 178.11 108.42 181.98 108.42 185.86 108.42 189.73 108.42 193.6 108.42 197.47 108.42 197.47 112.29 201.34 112.29 201.34 116.16 205.22 116.16 205.22 120.03 209.09 120.03 209.09 116.16 209.09 112.29 209.09 108.42 209.09 104.54 209.09 100.67 209.09 96.8 209.09 92.93 209.09 89.06 209.09 85.18 209.09 81.31 209.09 77.44 209.09 73.57 209.09 69.7 209.09 65.82 209.09 61.95 209.09 58.08 209.09 54.21 209.09 50.34 209.09 46.46 209.09 42.59 209.09 38.72 209.09 34.85 209.09 30.98 209.09 27.1 209.09 23.23 209.09 19.36 209.09 15.49 209.09 11.62 209.09 7.74 209.09 3.87 205.22 3.87 201.34 3.87"/></g></g></g></g></svg>