<svg xmlns="http://www.w3.org/2000/svg" viewBox="0 0 107.42 95.03"><defs><style>.cls-1{fill:#4cb9b3;}.cls-2{fill:#8dd2bd;}.cls-3{fill:#ceecdb;}.cls-4{fill:#0d0b16;}.cls-5{fill:#317c80;}</style></defs><g id="Layer_2" data-name="Layer 2"><g id="Icons"><g id="Level_4" data-name="Level 4"><g id="Ecto"><g id="Skin_Tissue" data-name="Skin Tissue"><g id="SkinTissue-Base"><polyline class="cls-1" points="45.45 61.98 45.45 57.84 41.32 57.84 37.19 57.84 33.05 57.84 28.92 57.84 24.79 57.84 20.66 57.84 16.53 57.84 12.39 57.84 8.26 57.84 4.13 57.84 4.13 61.98 4.13 66.11 4.13 70.24 4.13 74.37 4.13 78.5 4.13 82.63 4.13 86.76 4.13 90.9 8.26 90.9 12.39 90.9 16.53 90.9 20.66 90.9 24.79 90.9 28.92 90.9 33.05 90.9 37.19 90.9 41.32 90.9 45.45 90.9 49.58 90.9 53.71 90.9 57.84 90.9 61.98 90.9 66.11 90.9 70.24 90.9 74.37 90.9 78.5 90.9 82.63 90.9 86.77 90.9 90.9 90.9 95.03 90.9 99.16 90.9 103.29 90.9 103.29 86.76 103.29 82.63 103.29 78.5 103.29 74.37 103.29 70.24 103.29 66.11 103.29 61.98 99.16 61.98 95.03 61.98 90.9 61.98 86.77 61.98 82.63 61.98 78.5 61.98 74.37 61.98 70.24 61.98 66.11 61.98 61.98 61.98"/><polygon class="cls-1" points="57.84 66.11 57.84 61.98 53.71 61.98 49.58 61.98 49.58 66.11 53.71 66.11 57.84 66.11"/><polygon class="cls-2" points="95.03 57.84 90.9 57.84 86.77 57.84 82.63 57.84 78.5 57.84 74.37 57.84 70.24 57.84 66.11 57.84 61.98 57.84 61.98 61.98 66.11 61.98 70.24 61.98 74.37 61.98 78.5 61.98 82.63 61.98 86.77 61.98 90.9 61.98 95.03 61.98 99.16 61.98 103.29 61.98 103.29 57.84 99.16 57.84 95.03 57.84"/><polygon class="cls-2" points="45.45 57.84 45.45 61.98 53.71 61.98 61.98 61.98 61.98 57.84 53.71 57.84 45.45 57.84"/><polygon class="cls-2" points="45.45 53.71 41.32 53.71 37.19 53.71 33.05 53.71 28.92 53.71 24.79 53.71 20.66 53.71 16.53 53.71 12.39 53.71 8.26 53.71 4.13 53.71 4.13 57.84 8.26 57.84 12.39 57.84 16.53 57.84 20.66 57.84 24.79 57.84 28.92 57.84 33.05 57.84 37.19 57.84 41.32 57.84 45.45 57.84 49.58 57.84 49.58 53.71 45.45 53.71"/><polygon class="cls-3" points="95.03 45.45 90.9 45.45 86.77 45.45 82.63 45.45 82.63 49.58 82.63 53.71 78.5 53.71 78.5 49.58 78.5 45.45 74.37 45.45 70.24 45.45 66.11 45.45 61.98 45.45 61.98 41.32 57.84 41.32 57.84 45.45 57.84 49.58 53.71 49.58 53.71 45.45 53.71 41.32 49.58 41.32 45.45 41.32 41.32 41.32 37.19 41.32 33.05 41.32 28.92 41.32 28.92 45.45 28.92 49.58 24.79 49.58 24.79 45.45 24.79 41.32 20.66 41.32 16.53 41.32 12.39 41.32 8.26 41.32 4.13 41.32 4.13 45.45 4.13 49.58 4.13 53.71 8.26 53.71 12.39 53.71 16.53 53.71 20.66 53.71 24.79 53.71 28.92 53.71 33.05 53.71 37.19 53.71 41.32 53.71 45.45 53.71 49.58 53.71 49.58 57.84 53.71 57.84 57.84 57.84 61.98 57.84 66.11 57.84 70.24 57.84 74.37 57.84 78.5 57.84 82.63 57.84 86.77 57.84 90.9 57.84 95.03 57.84 99.16 57.84 103.29 57.84 103.29 53.71 103.29 49.58 103.29 45.45 99.16 45.45 95.03 45.45"/><polygon class="cls-4" points="95.03 90.9 90.9 90.9 86.77 90.9 82.63 90.9 78.5 90.9 74.37 90.9 70.24 90.9 66.11 90.9 61.98 90.9 57.84 90.9 53.71 90.9 49.58 90.9 45.45 90.9 41.32 90.9 37.19 90.9 33.05 90.9 28.92 90.9 24.79 90.9 20.66 90.9 16.53 90.9 12.39 90.9 8.26 90.9 4.13 90.9 4.13 95.03 8.26 95.03 12.39 95.03 16.53 95.03 20.66 95.03 24.79 95.03 28.92 95.03 33.05 95.03 37.19 95.03 41.32 95.03 45.45 95.03 49.58 95.03 53.71 95.03 57.84 95.03 61.98 95.03 66.11 95.03 70.24 95.03 74.37 95.03 78.5 95.03 82.63 95.03 86.77 95.03 90.9 95.03 95.03 95.03 99.16 95.03 103.29 95.03 103.29 90.9 99.16 90.9 95.03 90.9"/><polygon class="cls-4" points="4.13 82.63 4.13 78.5 4.13 74.37 4.13 70.24 4.13 66.11 4.13 61.98 4.13 57.84 4.13 53.71 4.13 49.58 4.13 45.45 4.13 41.32 0 41.32 0 45.45 0 49.58 0 53.71 0 57.84 0 61.98 0 66.11 0 70.24 0 74.37 0 78.5 0 82.63 0 86.76 0 90.9 4.13 90.9 4.13 86.76 4.13 82.63"/><polygon class="cls-4" points="103.29 49.58 103.29 53.71 103.29 57.84 103.29 61.98 103.29 66.11 103.29 70.24 103.29 74.37 103.29 78.5 103.29 82.63 103.29 86.76 103.29 90.9 107.42 90.9 107.42 86.76 107.42 82.63 107.42 78.5 107.42 74.37 107.42 70.24 107.42 66.11 107.42 61.98 107.42 57.84 107.42 53.71 107.42 49.58 107.42 45.45 103.29 45.45 103.29 49.58"/><polygon class="cls-4" points="66.11 45.45 70.24 45.45 74.37 45.45 78.5 45.45 78.5 41.32 78.5 37.19 78.5 33.05 78.5 28.92 78.5 24.79 78.5 20.66 78.5 16.53 74.37 16.53 74.37 20.66 74.37 24.79 74.37 28.92 74.37 33.05 74.37 37.19 74.37 41.32 70.24 41.32 66.11 41.32 61.98 41.32 61.98 45.45 66.11 45.45"/><polygon class="cls-4" points="12.39 41.32 16.53 41.32 20.66 41.32 24.79 41.32 24.79 37.19 24.79 33.05 24.79 28.92 24.79 24.79 24.79 20.66 24.79 16.53 20.66 16.53 20.66 20.66 20.66 24.79 20.66 28.92 20.66 33.05 20.66 37.19 16.53 37.19 12.39 37.19 8.26 37.19 4.13 37.19 4.13 41.32 8.26 41.32 12.39 41.32"/><polygon class="cls-4" points="82.63 24.79 82.63 28.92 82.63 33.05 82.63 37.19 82.63 41.32 82.63 45.45 86.77 45.45 90.9 45.45 95.03 45.45 99.16 45.45 103.29 45.45 103.29 41.32 99.16 41.32 95.03 41.32 90.9 41.32 86.77 41.32 86.77 37.19 86.77 33.05 86.77 28.92 86.77 24.79 86.77 20.66 82.63 20.66 82.63 24.79"/><polygon class="cls-4" points="28.92 24.79 28.92 28.92 28.92 33.05 28.92 37.19 28.92 41.32 33.05 41.32 37.19 41.32 41.32 41.32 45.45 41.32 49.58 41.32 53.71 41.32 53.71 37.19 53.71 33.05 53.71 28.92 53.71 24.79 53.71 20.66 53.71 16.53 53.71 12.39 53.71 8.26 49.58 8.26 49.58 12.39 49.58 16.53 49.58 20.66 49.58 24.79 49.58 28.92 49.58 33.05 49.58 37.19 45.45 37.19 41.32 37.19 37.19 37.19 33.05 37.19 33.05 33.05 33.05 28.92 33.05 24.79 33.05 20.66 28.92 20.66 28.92 24.79"/><rect class="cls-4" x="53.71" y="4.13" width="4.13" height="4.13"/><polygon class="cls-4" points="82.63 12.39 82.63 8.26 82.63 4.13 78.5 4.13 78.5 8.26 78.5 12.39 78.5 16.53 82.63 16.53 82.63 12.39"/><polygon class="cls-4" points="57.84 16.53 57.84 20.66 57.84 24.79 57.84 28.92 57.84 33.05 57.84 37.19 57.84 41.32 61.98 41.32 61.98 37.19 61.98 33.05 61.98 28.92 61.98 24.79 61.98 20.66 61.98 16.53 61.98 12.39 57.84 12.39 57.84 16.53"/><polygon class="cls-4" points="33.05 16.53 33.05 20.66 37.19 20.66 37.19 16.53 37.19 12.39 33.05 12.39 33.05 16.53"/><polygon class="cls-4" points="28.92 12.39 28.92 8.26 24.79 8.26 24.79 12.39 24.79 16.53 28.92 16.53 28.92 12.39"/><polygon class="cls-4" points="86.77 12.39 86.77 16.53 86.77 20.66 90.9 20.66 90.9 16.53 90.9 12.39 90.9 8.26 86.77 8.26 86.77 12.39"/><polygon class="cls-4" points="37.19 12.39 41.32 12.39 41.32 8.26 41.32 4.13 37.19 4.13 37.19 8.26 37.19 12.39"/><rect class="cls-4" x="90.9" y="4.13" width="4.13" height="4.13"/><polygon class="cls-4" points="61.98 8.26 61.98 12.39 66.11 12.39 66.11 8.26 66.11 4.13 66.11 0 61.98 0 57.84 0 57.84 4.13 61.98 4.13 61.98 8.26"/><rect class="cls-4" x="28.92" y="4.13" width="4.13" height="4.13"/><polygon class="cls-4" points="90.9 4.13 90.9 0 86.77 0 82.63 0 82.63 4.13 86.77 4.13 90.9 4.13"/><rect class="cls-4" x="33.05" width="4.13" height="4.13"/><polygon class="cls-5" points="82.63 4.13 82.63 8.26 82.63 12.39 82.63 16.53 78.5 16.53 78.5 20.66 78.5 24.79 78.5 28.92 78.5 33.05 78.5 37.19 78.5 41.32 78.5 45.45 78.5 49.58 78.5 53.71 82.63 53.71 82.63 49.58 82.63 45.45 82.63 41.32 82.63 37.19 82.63 33.05 82.63 28.92 82.63 24.79 82.63 20.66 86.77 20.66 86.77 16.53 86.77 12.39 86.77 8.26 90.9 8.26 90.9 4.13 86.77 4.13 82.63 4.13"/><polygon class="cls-5" points="57.84 8.26 53.71 8.26 53.71 12.39 53.71 16.53 53.71 20.66 53.71 24.79 53.71 28.92 53.71 33.05 53.71 37.19 53.71 41.32 53.71 45.45 53.71 49.58 57.84 49.58 57.84 45.45 57.84 41.32 57.84 37.19 57.84 33.05 57.84 28.92 57.84 24.79 57.84 20.66 57.84 16.53 57.84 12.39 61.98 12.39 61.98 8.26 61.98 4.13 57.84 4.13 57.84 8.26"/><polygon class="cls-5" points="33.05 8.26 28.92 8.26 28.92 12.39 28.92 16.53 24.79 16.53 24.79 20.66 24.79 24.79 24.79 28.92 24.79 33.05 24.79 37.19 24.79 41.32 24.79 45.45 24.79 49.58 28.92 49.58 28.92 45.45 28.92 41.32 28.92 37.19 28.92 33.05 28.92 28.92 28.92 24.79 28.92 20.66 33.05 20.66 33.05 16.53 33.05 12.39 37.19 12.39 37.19 8.26 37.19 4.13 33.05 4.13 33.05 8.26"/></g></g></g></g></g></g></svg>