<svg xmlns="http://www.w3.org/2000/svg" viewBox="0 0 81.13 123.83"><defs><style>.cls-1{fill:#0d0b16;}.cls-2{fill:#ceecdb;}.cls-3{fill:#a5dccc;}.cls-4{fill:#4cb9b3;}.cls-5{fill:#8dd2bd;}</style></defs><g id="Layer_2" data-name="Layer 2"><g id="Icons"><g id="Level_3" data-name="Level 3"><g id="Ecto"><g id="SkinCells"><g id="SkinCells-Base"><rect class="cls-1" x="68.32" y="12.81" width="4.27" height="4.27"/><path class="cls-2" d="M68.32,12.81V4.27H55.51V8.54H47v4.27H38.43v4.27H34.16v4.27H25.62v4.27H21.35v4.27H12.81v4.27H8.54v4.27H4.27V89.67h8.54v4.27h8.54v4.27H38.43V93.94H47V89.67h8.54V85.4h4.27V81.13h4.27V76.86h4.27V72.59h4.27V17.08H68.32ZM47,47V68.32H42.7v4.27H21.35V68.32H17.08V51.24h4.27V42.7h4.27V38.43H38.43V42.7H47Z"/><polygon class="cls-3" points="29.89 98.21 25.62 98.21 21.35 98.21 21.35 102.48 25.62 102.48 29.89 102.48 34.16 102.48 38.43 102.48 38.43 98.21 34.16 98.21 29.89 98.21"/><polygon class="cls-3" points="38.43 93.94 38.43 98.21 42.7 98.21 46.97 98.21 46.97 93.94 42.7 93.94 38.43 93.94"/><polygon class="cls-3" points="17.08 93.94 12.81 93.94 12.81 98.21 17.08 98.21 21.35 98.21 21.35 93.94 17.08 93.94"/><polygon class="cls-3" points="46.97 89.67 46.97 93.94 51.24 93.94 55.51 93.94 55.51 89.67 51.24 89.67 46.97 89.67"/><rect class="cls-3" x="8.54" y="89.67" width="4.27" height="4.27"/><rect class="cls-3" x="55.51" y="85.4" width="4.27" height="4.27"/><rect class="cls-3" x="59.78" y="81.13" width="4.27" height="4.27"/><rect class="cls-3" x="64.05" y="76.86" width="4.27" height="4.27"/><rect class="cls-3" x="68.32" y="72.59" width="4.27" height="4.27"/><rect class="cls-3" x="4.27" y="34.16" width="4.27" height="4.27"/><polygon class="cls-3" points="12.81 29.89 17.08 29.89 21.35 29.89 21.35 25.62 25.62 25.62 25.62 21.35 21.35 21.35 17.08 21.35 17.08 25.62 12.81 25.62 8.54 25.62 8.54 29.89 8.54 34.16 12.81 34.16 12.81 29.89"/><polygon class="cls-3" points="34.16 21.35 34.16 17.08 38.43 17.08 38.43 12.81 34.16 12.81 29.89 12.81 29.89 17.08 25.62 17.08 25.62 21.35 29.89 21.35 34.16 21.35"/><polygon class="cls-3" points="46.97 12.81 46.97 8.54 42.7 8.54 38.43 8.54 38.43 12.81 42.7 12.81 46.97 12.81"/><polygon class="cls-3" points="55.51 8.54 55.51 4.27 51.24 4.27 46.97 4.27 46.97 8.54 51.24 8.54 55.51 8.54"/><path class="cls-4" d="M38.43,42.7V38.43H25.62V42.7H21.35v8.54H17.08V68.32h4.27v4.27H42.7V68.32H47V42.7H38.43Z"/><rect class="cls-5" x="4.27" y="89.67" width="4.27" height="4.27"/><polygon class="cls-5" points="72.59 81.13 72.59 76.86 68.32 76.86 68.32 81.13 64.05 81.13 64.05 85.4 59.78 85.4 59.78 89.67 55.51 89.67 55.51 93.94 51.24 93.94 46.97 93.94 46.97 98.21 42.7 98.21 38.43 98.21 38.43 102.48 34.16 102.48 29.89 102.48 25.62 102.48 21.35 102.48 21.35 98.21 17.08 98.21 12.81 98.21 12.81 93.94 8.54 93.94 8.54 98.21 8.54 102.48 8.54 106.75 8.54 111.02 12.81 111.02 12.81 115.29 17.08 115.29 21.35 115.29 21.35 119.56 25.62 119.56 29.89 119.56 34.16 119.56 38.43 119.56 42.7 119.56 46.97 119.56 51.24 119.56 51.24 115.29 55.51 115.29 59.78 115.29 59.78 111.02 64.05 111.02 64.05 106.75 68.32 106.75 68.32 102.48 72.59 102.48 72.59 98.21 72.59 93.94 76.86 93.94 76.86 89.67 76.86 85.4 72.59 85.4 72.59 81.13"/><polygon class="cls-1" points="25.62 123.83 29.89 123.83 34.16 123.83 38.43 123.83 42.7 123.83 46.97 123.83 51.24 123.83 51.24 119.56 46.97 119.56 42.7 119.56 38.43 119.56 34.16 119.56 29.89 119.56 25.62 119.56 21.35 119.56 21.35 123.83 25.62 123.83"/><polygon class="cls-1" points="59.78 119.56 59.78 115.29 55.51 115.29 51.24 115.29 51.24 119.56 55.51 119.56 59.78 119.56"/><polygon class="cls-1" points="17.08 119.56 21.35 119.56 21.35 115.29 17.08 115.29 12.81 115.29 12.81 119.56 17.08 119.56"/><rect class="cls-1" x="59.78" y="111.02" width="4.27" height="4.27"/><rect class="cls-1" x="8.54" y="111.02" width="4.27" height="4.27"/><rect class="cls-1" x="64.05" y="106.75" width="4.27" height="4.27"/><rect class="cls-1" x="68.32" y="102.48" width="4.27" height="4.27"/><polygon class="cls-1" points="76.86 98.21 76.86 93.94 72.59 93.94 72.59 98.21 72.59 102.48 76.86 102.48 76.86 98.21"/><polygon class="cls-1" points="4.27 102.48 4.27 106.75 4.27 111.02 8.54 111.02 8.54 106.75 8.54 102.48 8.54 98.21 8.54 93.94 4.27 93.94 4.27 98.21 4.27 102.48"/><polygon class="cls-1" points="81.13 89.67 81.13 85.4 76.86 85.4 76.86 89.67 76.86 93.94 81.13 93.94 81.13 89.67"/><polygon class="cls-1" points="4.27 89.67 4.27 85.4 4.27 81.13 4.27 76.86 4.27 72.59 4.27 68.32 4.27 64.05 4.27 59.78 4.27 55.51 4.27 51.24 4.27 46.97 4.27 42.7 4.27 38.43 4.27 34.16 0 34.16 0 38.43 0 42.7 0 46.97 0 51.24 0 55.51 0 59.78 0 64.05 0 68.32 0 72.59 0 76.86 0 81.13 0 85.4 0 89.67 0 93.94 4.27 93.94 4.27 89.67"/><polygon class="cls-1" points="76.86 76.86 76.86 72.59 76.86 68.32 76.86 64.05 76.86 59.78 76.86 55.51 76.86 51.24 76.86 46.97 76.86 42.7 76.86 38.43 76.86 34.16 76.86 29.89 76.86 25.62 76.86 21.35 76.86 17.08 72.59 17.08 72.59 21.35 72.59 25.62 72.59 29.89 72.59 34.16 72.59 38.43 72.59 42.7 72.59 46.97 72.59 51.24 72.59 55.51 72.59 59.78 72.59 64.05 72.59 68.32 72.59 72.59 72.59 76.86 72.59 81.13 72.59 85.4 76.86 85.4 76.86 81.13 76.86 76.86"/><polygon class="cls-1" points="8.54 29.89 8.54 25.62 4.27 25.62 4.27 29.89 4.27 34.16 8.54 34.16 8.54 29.89"/><polygon class="cls-1" points="17.08 25.62 17.08 21.35 12.81 21.35 8.54 21.35 8.54 25.62 12.81 25.62 17.08 25.62"/><polygon class="cls-1" points="25.62 21.35 25.62 17.08 21.35 17.08 17.08 17.08 17.08 21.35 21.35 21.35 25.62 21.35"/><rect class="cls-1" x="25.62" y="12.81" width="4.27" height="4.27"/><polygon class="cls-1" points="68.32 12.81 72.59 12.81 72.59 8.54 72.59 4.27 68.32 4.27 68.32 8.54 68.32 12.81"/><polygon class="cls-1" points="38.43 12.81 38.43 8.54 34.16 8.54 29.89 8.54 29.89 12.81 34.16 12.81 38.43 12.81"/><polygon class="cls-1" points="46.97 8.54 46.97 4.27 42.7 4.27 38.43 4.27 38.43 8.54 42.7 8.54 46.97 8.54"/><polygon class="cls-1" points="55.51 4.27 59.78 4.27 64.05 4.27 68.32 4.27 68.32 0 64.05 0 59.78 0 55.51 0 51.24 0 46.97 0 46.97 4.27 51.24 4.27 55.51 4.27"/></g></g></g></g></g></g></svg>