<svg xmlns="http://www.w3.org/2000/svg" viewBox="0 0 61.2 56.49"><defs><style>.cls-1{fill:#fff;}.cls-2{fill:red;}.cls-3{fill:#ff9797;}.cls-4{fill:#c40000;}</style></defs><g id="Layer_2" data-name="Layer 2"><g id="Layer_1-2" data-name="Layer 1"><rect class="cls-1" y="14.12" width="4.71" height="4.71" transform="translate(4.71 32.95) rotate(-180)"/><rect class="cls-1" x="4.71" y="9.42" width="4.71" height="4.71" transform="translate(14.12 23.54) rotate(-180)"/><rect class="cls-1" x="9.42" y="4.71" width="4.71" height="4.71" transform="translate(23.54 14.12) rotate(-180)"/><rect class="cls-1" x="14.12" width="4.71" height="4.71" transform="translate(32.95 4.71) rotate(-180)"/><rect class="cls-1" x="18.83" width="4.71" height="4.71" transform="translate(42.37 4.71) rotate(-180)"/><rect class="cls-1" x="23.54" y="4.71" width="4.71" height="4.71" transform="translate(51.78 14.12) rotate(-180)"/><rect class="cls-1" y="18.83" width="4.71" height="4.71" transform="translate(4.71 42.37) rotate(-180)"/><rect class="cls-1" y="23.54" width="4.71" height="4.71" transform="translate(4.71 51.78) rotate(-180)"/><rect class="cls-1" x="4.71" y="28.25" width="4.71" height="4.71" transform="translate(14.12 61.2) rotate(-180)"/><rect class="cls-1" x="9.42" y="32.95" width="4.71" height="4.71" transform="translate(23.54 70.61) rotate(-180)"/><rect class="cls-1" x="14.12" y="37.66" width="4.71" height="4.71" transform="translate(32.95 80.03) rotate(-180)"/><rect class="cls-1" x="28.25" y="9.42" width="4.71" height="4.71" transform="translate(61.2 23.54) rotate(-180)"/><rect class="cls-1" x="32.95" y="4.71" width="4.71" height="4.71" transform="translate(70.61 14.12) rotate(-180)"/><rect class="cls-1" x="37.66" width="4.71" height="4.71" transform="translate(80.03 4.71) rotate(-180)"/><rect class="cls-1" x="42.37" width="4.71" height="4.71" transform="translate(89.44 4.71) rotate(-180)"/><rect class="cls-1" x="47.08" y="4.71" width="4.71" height="4.71" transform="translate(98.86 14.12) rotate(-180)"/><rect class="cls-1" x="51.78" y="9.42" width="4.71" height="4.71" transform="translate(108.27 23.54) rotate(-180)"/><rect class="cls-1" x="56.49" y="14.12" width="4.71" height="4.71" transform="translate(117.69 32.95) rotate(-180)"/><rect class="cls-1" x="56.49" y="18.83" width="4.71" height="4.71" transform="translate(117.69 42.37) rotate(-180)"/><rect class="cls-1" x="56.49" y="23.54" width="4.71" height="4.71" transform="translate(117.69 51.78) rotate(-180)"/><rect class="cls-1" x="51.78" y="28.25" width="4.71" height="4.71" transform="translate(108.27 61.2) rotate(-180)"/><rect class="cls-1" x="47.08" y="32.95" width="4.71" height="4.71" transform="translate(98.86 70.61) rotate(-180)"/><rect class="cls-1" x="42.37" y="37.66" width="4.71" height="4.71" transform="translate(89.44 80.03) rotate(-180)"/><rect class="cls-1" x="37.66" y="42.37" width="4.71" height="4.71" transform="translate(80.03 89.44) rotate(-180)"/><rect class="cls-1" x="32.95" y="47.08" width="4.71" height="4.71" transform="translate(70.61 98.86) rotate(-180)"/><rect class="cls-1" x="28.25" y="51.78" width="4.71" height="4.71" transform="translate(61.2 108.27) rotate(-180)"/><rect class="cls-1" x="23.54" y="47.08" width="4.71" height="4.71" transform="translate(51.78 98.86) rotate(-180)"/><rect class="cls-1" x="18.83" y="42.37" width="4.71" height="4.71" transform="translate(42.37 89.44) rotate(-180)"/><rect class="cls-2" x="4.71" y="23.54" width="4.71" height="4.71" transform="translate(14.12 51.78) rotate(-180)"/><rect class="cls-2" x="9.42" y="28.25" width="4.71" height="4.71" transform="translate(23.54 61.2) rotate(-180)"/><rect class="cls-2" x="14.12" y="32.95" width="4.71" height="4.71" transform="translate(32.95 70.61) rotate(-180)"/><rect class="cls-2" x="18.83" y="37.66" width="4.71" height="4.71" transform="translate(42.37 80.03) rotate(-180)"/><rect class="cls-2" x="23.54" y="42.37" width="4.71" height="4.71" transform="translate(51.78 89.44) rotate(-180)"/><rect class="cls-2" x="28.25" y="47.08" width="4.71" height="4.71" transform="translate(61.2 98.86) rotate(-180)"/><rect class="cls-2" x="28.25" y="23.54" width="4.71" height="4.71" transform="translate(61.2 51.78) rotate(-180)"/><rect class="cls-3" x="42.37" y="23.54" width="4.71" height="4.71" transform="translate(89.44 51.78) rotate(-180)"/><rect class="cls-2" x="47.08" y="23.54" width="4.71" height="4.71" transform="translate(98.86 51.78) rotate(-180)"/><rect class="cls-2" x="32.95" y="23.54" width="4.71" height="4.71" transform="translate(70.61 51.78) rotate(-180)"/><rect class="cls-2" x="37.66" y="23.54" width="4.71" height="4.71" transform="translate(80.03 51.78) rotate(-180)"/><rect class="cls-2" x="18.83" y="23.54" width="4.71" height="4.71" transform="translate(42.37 51.78) rotate(-180)"/><rect class="cls-2" x="23.54" y="23.54" width="4.71" height="4.71" transform="translate(51.78 51.78) rotate(-180)"/><rect class="cls-4" x="9.42" y="23.54" width="4.71" height="4.71" transform="translate(23.54 51.78) rotate(-180)"/><rect class="cls-2" x="14.12" y="23.54" width="4.71" height="4.71" transform="translate(32.95 51.78) rotate(-180)"/><rect class="cls-2" x="28.25" y="28.25" width="4.71" height="4.71" transform="translate(61.2 61.2) rotate(-180)"/><rect class="cls-2" x="42.37" y="28.25" width="4.71" height="4.71" transform="translate(89.44 61.2) rotate(-180)"/><rect class="cls-2" x="32.95" y="28.25" width="4.71" height="4.71" transform="translate(70.61 61.2) rotate(-180)"/><rect class="cls-2" x="37.66" y="28.25" width="4.71" height="4.71" transform="translate(80.03 61.2) rotate(-180)"/><rect class="cls-2" x="18.83" y="28.25" width="4.71" height="4.71" transform="translate(42.37 61.2) rotate(-180)"/><rect class="cls-2" x="23.54" y="28.25" width="4.71" height="4.71" transform="translate(51.78 61.2) rotate(-180)"/><rect class="cls-2" x="28.25" y="32.95" width="4.71" height="4.71" transform="translate(61.2 70.61) rotate(-180)"/><rect class="cls-2" x="32.95" y="32.95" width="4.71" height="4.71" transform="translate(70.61 70.61) rotate(-180)"/><rect class="cls-2" x="37.66" y="32.95" width="4.71" height="4.71" transform="translate(80.03 70.61) rotate(-180)"/><rect class="cls-4" x="18.83" y="32.95" width="4.71" height="4.71" transform="translate(42.37 70.61) rotate(-180)"/><rect class="cls-2" x="23.54" y="32.95" width="4.71" height="4.71" transform="translate(51.78 70.61) rotate(-180)"/><rect class="cls-2" x="28.25" y="37.66" width="4.71" height="4.71" transform="translate(61.2 80.03) rotate(-180)"/><rect class="cls-2" x="28.25" y="42.37" width="4.71" height="4.71" transform="translate(61.2 89.44) rotate(-180)"/><rect class="cls-2" x="32.95" y="37.66" width="4.71" height="4.71" transform="translate(70.61 80.03) rotate(-180)"/><rect class="cls-4" x="23.54" y="37.66" width="4.71" height="4.71" transform="translate(51.78 80.03) rotate(-180)"/><rect class="cls-4" x="14.12" y="28.25" width="4.71" height="4.71" transform="translate(32.95 61.2) rotate(-180)"/><rect class="cls-2" x="51.78" y="23.54" width="4.71" height="4.71" transform="translate(108.27 51.78) rotate(-180)"/><rect class="cls-2" x="47.08" y="28.25" width="4.71" height="4.71" transform="translate(98.86 61.2) rotate(-180)"/><rect class="cls-2" x="42.37" y="32.95" width="4.71" height="4.71" transform="translate(89.44 70.61) rotate(-180)"/><rect class="cls-2" x="37.66" y="37.66" width="4.71" height="4.71" transform="translate(80.03 80.03) rotate(-180)"/><rect class="cls-2" x="32.95" y="42.37" width="4.71" height="4.71" transform="translate(70.61 89.44) rotate(-180)"/></g></g></svg>